<ttFont>
    <TTGlyph name=".notdef" xMin="193" yMin="0" xMax="1034" yMax="1462">
      <contour>
        <pt x="193" y="1462" on="1"/>
        <pt x="1034" y="1462" on="1"/>
        <pt x="1034" y="0" on="1"/>
        <pt x="193" y="0" on="1"/>
      </contour>
      <contour>
        <pt x="297" y="104" on="1"/>
        <pt x="930" y="104" on="1"/>
        <pt x="930" y="1358" on="1"/>
        <pt x="297" y="1358" on="1"/>
      </contour>
    </TTGlyph>
    <TTGlyph name="aatamil" xMin="52" yMin="-658" xMax="2952" yMax="1174">
      <contour>
        <pt x="2334" y="-254" on="1"/>
        <pt x="2032" y="-254" on="1"/>
        <pt x="2032" y="178" on="1"/>
        <pt x="1751" y="178" on="1"/>
        <pt x="1633" y="-44" on="0"/>
        <pt x="1109" y="-288" on="0"/>
        <pt x="757" y="-288" on="1"/>
        <pt x="720" y="-288" on="1"/>
        <pt x="408" y="-288" on="0"/>
        <pt x="52" y="-61" on="0"/>
        <pt x="52" y="130" on="1"/>
        <pt x="52" y="203" on="0"/>
        <pt x="122" y="324" on="0"/>
        <pt x="283" y="394" on="0"/>
        <pt x="464" y="394" on="1"/>
        <pt x="1515" y="394" on="1"/>
        <pt x="1521" y="431" on="0"/>
        <pt x="1521" y="502" on="1"/>
        <pt x="1521" y="624" on="0"/>
        <pt x="1445" y="819" on="0"/>
        <pt x="1370" y="881" on="1"/>
        <pt x="1376" y="845" on="0"/>
        <pt x="1376" y="804" on="1"/>
        <pt x="1376" y="644" on="0"/>
        <pt x="1180" y="468" on="0"/>
        <pt x="990" y="468" on="1"/>
        <pt x="817" y="468" on="0"/>
        <pt x="600" y="647" on="0"/>
        <pt x="600" y="801" on="1"/>
        <pt x="600" y="979" on="0"/>
        <pt x="857" y="1174" on="0"/>
        <pt x="1084" y="1174" on="1"/>
        <pt x="1300" y="1174" on="0"/>
        <pt x="1629" y="998" on="0"/>
        <pt x="1807" y="683" on="0"/>
        <pt x="1807" y="500" on="1"/>
        <pt x="1807" y="437" on="0"/>
        <pt x="1800" y="394" on="1"/>
        <pt x="2032" y="394" on="1"/>
        <pt x="2032" y="1150" on="1"/>
        <pt x="2334" y="1150" on="1"/>
        <pt x="2334" y="196" on="1"/>
        <pt x="2432" y="240" on="0"/>
        <pt x="2573" y="240" on="1"/>
        <pt x="2677" y="240" on="0"/>
        <pt x="2854" y="153" on="0"/>
        <pt x="2952" y="-6" on="0"/>
        <pt x="2952" y="-112" on="1"/>
        <pt x="2952" y="-364" on="0"/>
        <pt x="2496" y="-658" on="0"/>
        <pt x="2084" y="-658" on="1"/>
        <pt x="2049" y="-658" on="1"/>
        <pt x="1757" y="-658" on="0"/>
        <pt x="1429" y="-471" on="0"/>
        <pt x="1429" y="-306" on="1"/>
        <pt x="1429" y="-203" on="0"/>
        <pt x="1607" y="-50" on="0"/>
        <pt x="1746" y="-50" on="1"/>
        <pt x="1858" y="-50" on="0"/>
        <pt x="1966" y="-86" on="1"/>
        <pt x="1931" y="-279" on="1"/>
        <pt x="1866" y="-259" on="0"/>
        <pt x="1803" y="-259" on="1"/>
        <pt x="1700" y="-259" on="0"/>
        <pt x="1700" y="-321" on="1"/>
        <pt x="1700" y="-442" on="0"/>
        <pt x="2085" y="-442" on="1"/>
        <pt x="2097" y="-442" on="1"/>
        <pt x="2360" y="-442" on="0"/>
        <pt x="2666" y="-274" on="0"/>
        <pt x="2666" y="-128" on="1"/>
        <pt x="2666" y="-54" on="0"/>
        <pt x="2573" y="30" on="0"/>
        <pt x="2489" y="30" on="1"/>
        <pt x="2411" y="30" on="0"/>
        <pt x="2334" y="-8" on="1"/>
      </contour>
      <contour>
        <pt x="1105" y="969" on="1"/>
        <pt x="1091" y="969" on="1"/>
        <pt x="873" y="969" on="0"/>
        <pt x="873" y="815" on="1"/>
        <pt x="873" y="752" on="0"/>
        <pt x="946" y="676" on="0"/>
        <pt x="1008" y="676" on="1"/>
        <pt x="1138" y="676" on="0"/>
        <pt x="1138" y="833" on="1"/>
        <pt x="1138" y="900" on="0"/>
      </contour>
      <contour>
        <pt x="780" y="-71" on="1"/>
        <pt x="1014" y="-71" on="0"/>
        <pt x="1343" y="53" on="0"/>
        <pt x="1439" y="178" on="1"/>
        <pt x="542" y="178" on="1"/>
        <pt x="445" y="178" on="0"/>
        <pt x="379" y="166" on="0"/>
        <pt x="343" y="131" on="0"/>
        <pt x="343" y="101" on="1"/>
        <pt x="343" y="18" on="0"/>
        <pt x="553" y="-71" on="0"/>
        <pt x="756" y="-71" on="1"/>
      </contour>
    </TTGlyph>
    <TTGlyph name="aavowelsigntamil" xMin="164" yMin="0" xMax="1385" yMax="1150">
      <contour>
        <pt x="164" y="1150" on="1"/>
        <pt x="1385" y="1150" on="1"/>
        <pt x="1385" y="933" on="1"/>
        <pt x="1089" y="933" on="1"/>
        <pt x="1089" y="0" on="1"/>
        <pt x="787" y="0" on="1"/>
        <pt x="787" y="933" on="1"/>
        <pt x="466" y="933" on="1"/>
        <pt x="466" y="0" on="1"/>
        <pt x="164" y="0" on="1"/>
      </contour>
    </TTGlyph>
    <TTGlyph name="aitamil" xMin="105" yMin="-658" xMax="2202" yMax="1174">
      <contour>
        <pt x="721" y="-658" on="1"/>
        <pt x="420" y="-658" on="0"/>
        <pt x="105" y="-413" on="0"/>
        <pt x="105" y="-187" on="1"/>
        <pt x="105" y="-37" on="0"/>
        <pt x="250" y="182" on="0"/>
        <pt x="555" y="311" on="0"/>
        <pt x="843" y="311" on="1"/>
        <pt x="1262" y="311" on="1"/>
        <pt x="1422" y="311" on="0"/>
        <pt x="1597" y="329" on="0"/>
        <pt x="1740" y="372" on="0"/>
        <pt x="1847" y="454" on="0"/>
        <pt x="1900" y="576" on="0"/>
        <pt x="1900" y="660" on="1"/>
        <pt x="1900" y="800" on="0"/>
        <pt x="1755" y="957" on="0"/>
        <pt x="1634" y="957" on="1"/>
        <pt x="1549" y="957" on="0"/>
        <pt x="1440" y="872" on="0"/>
        <pt x="1401" y="732" on="0"/>
        <pt x="1401" y="602" on="1"/>
        <pt x="1401" y="433" on="1"/>
        <pt x="1099" y="433" on="1"/>
        <pt x="1099" y="549" on="1"/>
        <pt x="1099" y="709" on="0"/>
        <pt x="1025" y="882" on="0"/>
        <pt x="858" y="971" on="0"/>
        <pt x="720" y="972" on="1"/>
        <pt x="812" y="933" on="0"/>
        <pt x="912" y="784" on="0"/>
        <pt x="912" y="687" on="1"/>
        <pt x="912" y="532" on="0"/>
        <pt x="695" y="353" on="0"/>
        <pt x="503" y="353" on="1"/>
        <pt x="382" y="353" on="0"/>
        <pt x="202" y="440" on="0"/>
        <pt x="105" y="601" on="0"/>
        <pt x="105" y="696" on="1"/>
        <pt x="105" y="918" on="0"/>
        <pt x="450" y="1174" on="0"/>
        <pt x="737" y="1174" on="1"/>
        <pt x="906" y="1174" on="0"/>
        <pt x="1157" y="1074" on="0"/>
        <pt x="1238" y="975" on="1"/>
        <pt x="1307" y="1074" on="0"/>
        <pt x="1516" y="1174" on="0"/>
        <pt x="1655" y="1174" on="1"/>
        <pt x="1819" y="1174" on="0"/>
        <pt x="2066" y="1055" on="0"/>
        <pt x="2202" y="823" on="0"/>
        <pt x="2202" y="673" on="1"/>
        <pt x="2202" y="480" on="0"/>
        <pt x="2030" y="224" on="0"/>
        <pt x="1664" y="94" on="0"/>
        <pt x="1331" y="94" on="1"/>
        <pt x="855" y="94" on="1"/>
        <pt x="726" y="94" on="0"/>
        <pt x="571" y="63" on="0"/>
        <pt x="457" y="-9" on="0"/>
        <pt x="407" y="-112" on="0"/>
        <pt x="407" y="-180" on="1"/>
        <pt x="407" y="-303" on="0"/>
        <pt x="586" y="-440" on="0"/>
        <pt x="740" y="-440" on="1"/>
        <pt x="869" y="-440" on="0"/>
        <pt x="1026" y="-362" on="0"/>
        <pt x="1099" y="-225" on="0"/>
        <pt x="1099" y="-90" on="1"/>
        <pt x="1099" y="-34" on="1"/>
        <pt x="1401" y="-34" on="1"/>
        <pt x="1401" y="-99" on="1"/>
        <pt x="1401" y="-247" on="0"/>
        <pt x="1475" y="-384" on="0"/>
        <pt x="1590" y="-440" on="0"/>
        <pt x="1663" y="-440" on="1"/>
        <pt x="1774" y="-440" on="0"/>
        <pt x="1901" y="-309" on="0"/>
        <pt x="1901" y="-195" on="1"/>
        <pt x="1901" y="-90" on="0"/>
        <pt x="1863" y="11" on="1"/>
        <pt x="2150" y="99" on="1"/>
        <pt x="2202" y="-18" on="0"/>
        <pt x="2202" y="-185" on="1"/>
        <pt x="2202" y="-414" on="0"/>
        <pt x="1933" y="-658" on="0"/>
        <pt x="1678" y="-658" on="1"/>
        <pt x="1373" y="-658" on="0"/>
        <pt x="1237" y="-455" on="1"/>
        <pt x="1137" y="-560" on="0"/>
        <pt x="882" y="-658" on="0"/>
      </contour>
      <contour>
        <pt x="447" y="891" on="1"/>
        <pt x="365" y="822" on="0"/>
        <pt x="365" y="706" on="1"/>
        <pt x="365" y="637" on="0"/>
        <pt x="441" y="558" on="0"/>
        <pt x="512" y="558" on="1"/>
        <pt x="580" y="558" on="0"/>
        <pt x="657" y="629" on="0"/>
        <pt x="657" y="690" on="1"/>
        <pt x="657" y="774" on="0"/>
        <pt x="549" y="878" on="0"/>
      </contour>
    </TTGlyph>
    <TTGlyph name="aivowelsigntamil" xMin="95" yMin="-24" xMax="2529" yMax="1174">
      <contour>
        <pt x="399" y="666" on="1"/>
        <pt x="501" y="711" on="0"/>
        <pt x="615" y="711" on="1"/>
        <pt x="782" y="711" on="0"/>
        <pt x="981" y="522" on="0"/>
        <pt x="981" y="356" on="1"/>
        <pt x="981" y="175" on="0"/>
        <pt x="764" y="-24" on="0"/>
        <pt x="564" y="-24" on="1"/>
        <pt x="342" y="-24" on="0"/>
        <pt x="95" y="243" on="0"/>
        <pt x="95" y="492" on="1"/>
        <pt x="95" y="697" on="0"/>
        <pt x="301" y="1007" on="0"/>
        <pt x="686" y="1174" on="0"/>
        <pt x="945" y="1174" on="1"/>
        <pt x="1105" y="1174" on="0"/>
        <pt x="1368" y="1110" on="0"/>
        <pt x="1488" y="1045" on="1"/>
        <pt x="1677" y="1174" on="0"/>
        <pt x="1905" y="1174" on="1"/>
        <pt x="2207" y="1174" on="0"/>
        <pt x="2529" y="857" on="0"/>
        <pt x="2529" y="578" on="1"/>
        <pt x="2529" y="421" on="0"/>
        <pt x="2433" y="107" on="0"/>
        <pt x="2347" y="-24" on="1"/>
        <pt x="2097" y="98" on="1"/>
        <pt x="2227" y="303" on="0"/>
        <pt x="2227" y="559" on="1"/>
        <pt x="2227" y="746" on="0"/>
        <pt x="2037" y="957" on="0"/>
        <pt x="1869" y="957" on="1"/>
        <pt x="1755" y="957" on="0"/>
        <pt x="1681" y="915" on="1"/>
        <pt x="1804" y="802" on="0"/>
        <pt x="1928" y="536" on="0"/>
        <pt x="1928" y="383" on="1"/>
        <pt x="1928" y="193" on="0"/>
        <pt x="1713" y="-24" on="0"/>
        <pt x="1524" y="-24" on="1"/>
        <pt x="1325" y="-24" on="0"/>
        <pt x="1112" y="193" on="0"/>
        <pt x="1112" y="384" on="1"/>
        <pt x="1112" y="519" on="0"/>
        <pt x="1208" y="770" on="0"/>
        <pt x="1304" y="886" on="1"/>
        <pt x="1228" y="919" on="0"/>
        <pt x="1051" y="953" on="0"/>
        <pt x="951" y="953" on="1"/>
        <pt x="750" y="953" on="0"/>
        <pt x="461" y="801" on="0"/>
      </contour>
      <contour>
        <pt x="1499" y="756" on="1"/>
        <pt x="1446" y="683" on="0"/>
        <pt x="1393" y="499" on="0"/>
        <pt x="1393" y="389" on="1"/>
        <pt x="1393" y="290" on="0"/>
        <pt x="1458" y="184" on="0"/>
        <pt x="1517" y="184" on="1"/>
        <pt x="1580" y="184" on="0"/>
        <pt x="1644" y="289" on="0"/>
        <pt x="1644" y="391" on="1"/>
        <pt x="1644" y="500" on="0"/>
        <pt x="1571" y="683" on="0"/>
      </contour>
      <contour>
        <pt x="362" y="441" on="1"/>
        <pt x="369" y="317" on="0"/>
        <pt x="474" y="184" on="0"/>
        <pt x="562" y="184" on="1"/>
        <pt x="625" y="184" on="0"/>
        <pt x="699" y="268" on="0"/>
        <pt x="699" y="342" on="1"/>
        <pt x="699" y="417" on="0"/>
        <pt x="611" y="506" on="0"/>
        <pt x="539" y="506" on="1"/>
        <pt x="451" y="506" on="0"/>
      </contour>
    </TTGlyph>
    <TTGlyph name="anusvaratamil" xMin="96" yMin="1163" xMax="682" yMax="1742">
      <contour>
        <pt x="388" y="1742" on="1"/>
        <pt x="516" y="1742" on="0"/>
        <pt x="682" y="1577" on="0"/>
        <pt x="682" y="1451" on="1"/>
        <pt x="682" y="1327" on="0"/>
        <pt x="517" y="1163" on="0"/>
        <pt x="388" y="1163" on="1"/>
        <pt x="259" y="1163" on="0"/>
        <pt x="96" y="1328" on="0"/>
        <pt x="96" y="1451" on="1"/>
        <pt x="96" y="1576" on="0"/>
        <pt x="260" y="1742" on="0"/>
      </contour>
      <contour>
        <pt x="388" y="1341" on="1"/>
        <pt x="437" y="1341" on="0"/>
        <pt x="495" y="1402" on="0"/>
        <pt x="495" y="1451" on="1"/>
        <pt x="495" y="1502" on="0"/>
        <pt x="436" y="1564" on="0"/>
        <pt x="388" y="1564" on="1"/>
        <pt x="341" y="1564" on="0"/>
        <pt x="283" y="1501" on="0"/>
        <pt x="283" y="1451" on="1"/>
        <pt x="283" y="1403" on="0"/>
        <pt x="340" y="1341" on="0"/>
      </contour>
    </TTGlyph>
    <TTGlyph name="asabovesigntamil" xMin="112" yMin="-658" xMax="4393" yMax="1742">
      <contour>
        <pt x="3438" y="0" on="1"/>
        <pt x="2511" y="0" on="1"/>
        <pt x="2504" y="166" on="1"/>
        <pt x="2601" y="341" on="0"/>
        <pt x="2601" y="547" on="1"/>
        <pt x="2601" y="713" on="0"/>
        <pt x="2460" y="919" on="0"/>
        <pt x="2324" y="950" on="1"/>
        <pt x="2375" y="785" on="0"/>
        <pt x="2375" y="637" on="1"/>
        <pt x="2375" y="401" on="0"/>
        <pt x="2155" y="156" on="0"/>
        <pt x="1940" y="156" on="1"/>
        <pt x="1726" y="156" on="0"/>
        <pt x="1482" y="383" on="0"/>
        <pt x="1482" y="589" on="1"/>
        <pt x="1482" y="785" on="0"/>
        <pt x="1727" y="1072" on="0"/>
        <pt x="1953" y="1137" on="1"/>
        <pt x="1843" y="1315" on="0"/>
        <pt x="1429" y="1516" on="0"/>
        <pt x="1189" y="1516" on="1"/>
        <pt x="962" y="1516" on="0"/>
        <pt x="596" y="1342" on="0"/>
        <pt x="398" y="1008" on="0"/>
        <pt x="398" y="776" on="1"/>
        <pt x="398" y="617" on="0"/>
        <pt x="471" y="369" on="0"/>
        <pt x="538" y="290" on="1"/>
        <pt x="523" y="344" on="0"/>
        <pt x="523" y="399" on="1"/>
        <pt x="523" y="563" on="0"/>
        <pt x="746" y="770" on="0"/>
        <pt x="934" y="770" on="1"/>
        <pt x="1132" y="770" on="0"/>
        <pt x="1360" y="554" on="0"/>
        <pt x="1360" y="375" on="1"/>
        <pt x="1360" y="184" on="0"/>
        <pt x="1090" y="-24" on="0"/>
        <pt x="841" y="-24" on="1"/>
        <pt x="621" y="-24" on="0"/>
        <pt x="292" y="168" on="0"/>
        <pt x="112" y="534" on="0"/>
        <pt x="112" y="779" on="1"/>
        <pt x="112" y="1065" on="0"/>
        <pt x="380" y="1503" on="0"/>
        <pt x="875" y="1742" on="0"/>
        <pt x="1190" y="1742" on="1"/>
        <pt x="1555" y="1742" on="0"/>
        <pt x="2095" y="1453" on="0"/>
        <pt x="2242" y="1174" on="1"/>
        <pt x="2565" y="1169" on="0"/>
        <pt x="2898" y="854" on="0"/>
        <pt x="2898" y="581" on="1"/>
        <pt x="2898" y="405" on="0"/>
        <pt x="2822" y="217" on="1"/>
        <pt x="3486" y="217" on="1"/>
        <pt x="3530" y="385" on="1"/>
        <pt x="3310" y="408" on="0"/>
        <pt x="3080" y="620" on="0"/>
        <pt x="3080" y="797" on="1"/>
        <pt x="3080" y="899" on="0"/>
        <pt x="3183" y="1075" on="0"/>
        <pt x="3374" y="1174" on="0"/>
        <pt x="3501" y="1174" on="1"/>
        <pt x="3695" y="1174" on="0"/>
        <pt x="3896" y="985" on="0"/>
        <pt x="3896" y="835" on="1"/>
        <pt x="3896" y="724" on="0"/>
        <pt x="3869" y="598" on="1"/>
        <pt x="3931" y="607" on="0"/>
        <pt x="4047" y="654" on="0"/>
        <pt x="4131" y="711" on="1"/>
        <pt x="4393" y="711" on="1"/>
        <pt x="4393" y="0" on="1"/>
        <pt x="3720" y="0" on="1"/>
        <pt x="3573" y="-581" on="1"/>
        <pt x="3299" y="-508" on="1"/>
      </contour>
      <contour>
        <pt x="3583" y="592" on="1"/>
        <pt x="3614" y="736" on="0"/>
        <pt x="3614" y="823" on="1"/>
        <pt x="3614" y="962" on="0"/>
        <pt x="3503" y="962" on="1"/>
        <pt x="3434" y="962" on="0"/>
        <pt x="3353" y="865" on="0"/>
        <pt x="3353" y="785" on="1"/>
        <pt x="3353" y="698" on="0"/>
        <pt x="3468" y="602" on="0"/>
      </contour>
      <contour>
        <pt x="2042" y="938" on="1"/>
        <pt x="1910" y="900" on="0"/>
        <pt x="1767" y="712" on="0"/>
        <pt x="1767" y="586" on="1"/>
        <pt x="1767" y="491" on="0"/>
        <pt x="1854" y="373" on="0"/>
        <pt x="1927" y="373" on="1"/>
        <pt x="2090" y="373" on="0"/>
        <pt x="2090" y="635" on="1"/>
        <pt x="2090" y="793" on="0"/>
      </contour>
      <contour>
        <pt x="828" y="185" on="1"/>
        <pt x="852" y="184" on="1"/>
        <pt x="967" y="179" on="0"/>
        <pt x="1077" y="287" on="0"/>
        <pt x="1077" y="383" on="1"/>
        <pt x="1077" y="459" on="0"/>
        <pt x="998" y="562" on="0"/>
        <pt x="927" y="562" on="1"/>
        <pt x="860" y="562" on="0"/>
        <pt x="774" y="466" on="0"/>
        <pt x="774" y="385" on="1"/>
        <pt x="774" y="275" on="0"/>
      </contour>
      <contour>
        <pt x="4138" y="479" on="1"/>
        <pt x="4082" y="444" on="0"/>
        <pt x="3922" y="397" on="0"/>
        <pt x="3818" y="385" on="1"/>
        <pt x="3775" y="217" on="1"/>
        <pt x="4134" y="217" on="1"/>
        <pt x="4134" y="333" on="1"/>
        <pt x="4134" y="403" on="0"/>
      </contour>
      <contour>
        <pt x="3388" y="-658" on="1"/>
      </contour>
    </TTGlyph>
    <TTGlyph name="asciicircum.tamil" xMin="63" yMin="0" xMax="1220" yMax="1470">
      <contour>
        <pt x="63" y="520" on="1"/>
        <pt x="541" y="1470" on="1"/>
        <pt x="685" y="1470" on="1"/>
        <pt x="1220" y="520" on="1"/>
        <pt x="981" y="520" on="1"/>
        <pt x="619" y="1163" on="1"/>
        <pt x="299" y="520" on="1"/>
      </contour>
      <contour>
        <pt x="597" y="0" on="1"/>
      </contour>
    </TTGlyph>
    <TTGlyph name="asciitilde.tamil" xMin="88" yMin="0" xMax="1081" yMax="1460">
      <contour>
        <pt x="88" y="551" on="1"/>
        <pt x="88" y="782" on="1"/>
        <pt x="191" y="891" on="0"/>
        <pt x="344" y="891" on="1"/>
        <pt x="413" y="891" on="0"/>
        <pt x="531" y="864" on="0"/>
        <pt x="621" y="827" on="1"/>
        <pt x="689" y="798" on="0"/>
        <pt x="795" y="772" on="0"/>
        <pt x="848" y="772" on="1"/>
        <pt x="903" y="772" on="0"/>
        <pt x="1027" y="838" on="0"/>
        <pt x="1081" y="893" on="1"/>
        <pt x="1081" y="662" on="1"/>
        <pt x="980" y="553" on="0"/>
        <pt x="825" y="553" on="1"/>
        <pt x="748" y="553" on="0"/>
        <pt x="620" y="586" on="0"/>
        <pt x="549" y="616" on="1"/>
        <pt x="472" y="648" on="0"/>
        <pt x="370" y="672" on="0"/>
        <pt x="322" y="672" on="1"/>
        <pt x="269" y="672" on="0"/>
        <pt x="146" y="608" on="0"/>
      </contour>
      <contour>
        <pt x="597" y="0" on="1"/>
      </contour>
      <contour>
        <pt x="555" y="1460" on="1"/>
      </contour>
    </TTGlyph>
    <TTGlyph name="asterisk.tamil" xMin="63" yMin="681" xMax="1053" yMax="1742">
      <contour>
        <pt x="688" y="1639" on="1"/>
        <pt x="647" y="1271" on="1"/>
        <pt x="1020" y="1375" on="1"/>
        <pt x="1053" y="1123" on="1"/>
        <pt x="713" y="1099" on="1"/>
        <pt x="936" y="802" on="1"/>
        <pt x="709" y="681" on="1"/>
        <pt x="553" y="994" on="1"/>
        <pt x="416" y="683" on="1"/>
        <pt x="180" y="802" on="1"/>
        <pt x="401" y="1099" on="1"/>
        <pt x="63" y="1125" on="1"/>
        <pt x="102" y="1375" on="1"/>
        <pt x="467" y="1271" on="1"/>
        <pt x="426" y="1639" on="1"/>
      </contour>
      <contour>
        <pt x="795" y="1460" on="1"/>
      </contour>
      <contour>
        <pt x="797" y="1742" on="1"/>
      </contour>
    </TTGlyph>
    <TTGlyph name="atamil" xMin="52" yMin="-658" xMax="2334" yMax="1174">
      <contour>
        <pt x="2334" y="-315" on="1"/>
        <pt x="2032" y="-315" on="1"/>
        <pt x="2032" y="178" on="1"/>
        <pt x="1751" y="178" on="1"/>
        <pt x="1633" y="-44" on="0"/>
        <pt x="1109" y="-288" on="0"/>
        <pt x="757" y="-288" on="1"/>
        <pt x="720" y="-288" on="1"/>
        <pt x="408" y="-288" on="0"/>
        <pt x="52" y="-61" on="0"/>
        <pt x="52" y="130" on="1"/>
        <pt x="52" y="203" on="0"/>
        <pt x="122" y="324" on="0"/>
        <pt x="283" y="394" on="0"/>
        <pt x="464" y="394" on="1"/>
        <pt x="1515" y="394" on="1"/>
        <pt x="1521" y="431" on="0"/>
        <pt x="1521" y="502" on="1"/>
        <pt x="1521" y="624" on="0"/>
        <pt x="1445" y="819" on="0"/>
        <pt x="1370" y="881" on="1"/>
        <pt x="1376" y="845" on="0"/>
        <pt x="1376" y="804" on="1"/>
        <pt x="1376" y="644" on="0"/>
        <pt x="1180" y="468" on="0"/>
        <pt x="990" y="468" on="1"/>
        <pt x="817" y="468" on="0"/>
        <pt x="600" y="647" on="0"/>
        <pt x="600" y="801" on="1"/>
        <pt x="600" y="979" on="0"/>
        <pt x="857" y="1174" on="0"/>
        <pt x="1084" y="1174" on="1"/>
        <pt x="1300" y="1174" on="0"/>
        <pt x="1629" y="998" on="0"/>
        <pt x="1807" y="683" on="0"/>
        <pt x="1807" y="500" on="1"/>
        <pt x="1807" y="437" on="0"/>
        <pt x="1800" y="394" on="1"/>
        <pt x="2032" y="394" on="1"/>
        <pt x="2032" y="1150" on="1"/>
        <pt x="2334" y="1150" on="1"/>
      </contour>
      <contour>
        <pt x="1105" y="969" on="1"/>
        <pt x="1091" y="969" on="1"/>
        <pt x="873" y="969" on="0"/>
        <pt x="873" y="815" on="1"/>
        <pt x="873" y="752" on="0"/>
        <pt x="946" y="676" on="0"/>
        <pt x="1008" y="676" on="1"/>
        <pt x="1138" y="676" on="0"/>
        <pt x="1138" y="833" on="1"/>
        <pt x="1138" y="900" on="0"/>
      </contour>
      <contour>
        <pt x="780" y="-71" on="1"/>
        <pt x="1014" y="-71" on="0"/>
        <pt x="1343" y="53" on="0"/>
        <pt x="1439" y="178" on="1"/>
        <pt x="542" y="178" on="1"/>
        <pt x="445" y="178" on="0"/>
        <pt x="379" y="166" on="0"/>
        <pt x="343" y="131" on="0"/>
        <pt x="343" y="101" on="1"/>
        <pt x="343" y="18" on="0"/>
        <pt x="553" y="-71" on="0"/>
        <pt x="756" y="-71" on="1"/>
      </contour>
      <contour>
        <pt x="486" y="-658" on="1"/>
      </contour>
    </TTGlyph>
    <TTGlyph name="aulengthmarktamil" xMin="95" yMin="-24" xMax="2373" yMax="1174">
      <component glyphName="llatamil" x="0" y="0" flags="0x204"/>
    </TTGlyph>
    <TTGlyph name="autamil" xMin="83" yMin="-658" xMax="4678" yMax="1174">
      <component glyphName="otamil" x="0" y="0" flags="0x4"/>
      <component glyphName="llatamil" x="2305" y="0" flags="0x4"/>
    </TTGlyph>
    <TTGlyph name="auvowelsigntamil" xMin="112" yMin="-24" xMax="4832" yMax="1742">
      <component glyphName="evowelsigntamil" x="0" y="0" flags="0x4"/>
      <component glyphName="viramatamil" x="2798" y="-780" flags="0x4"/>
      <component glyphName="llatamil" x="2459" y="0" flags="0x4"/>
    </TTGlyph>
    <TTGlyph name="backslash.tamil" xMin="35" yMin="-658" xMax="837" yMax="1742">
      <contour>
        <pt x="292" y="1638" on="1"/>
        <pt x="837" y="-500" on="1"/>
        <pt x="580" y="-500" on="1"/>
        <pt x="35" y="1638" on="1"/>
      </contour>
      <contour>
        <pt x="390" y="0" on="1"/>
      </contour>
      <contour>
        <pt x="412" y="-658" on="1"/>
      </contour>
      <contour>
        <pt x="495" y="1460" on="1"/>
      </contour>
      <contour>
        <pt x="497" y="1742" on="1"/>
      </contour>
    </TTGlyph>
    <TTGlyph name="bar.tamil" xMin="455" yMin="-658" xMax="812" yMax="1742">
      <contour>
        <pt x="455" y="1638" on="1"/>
        <pt x="674" y="1638" on="1"/>
        <pt x="674" y="-500" on="1"/>
        <pt x="455" y="-500" on="1"/>
      </contour>
      <contour>
        <pt x="790" y="0" on="1"/>
      </contour>
      <contour>
        <pt x="812" y="-658" on="1"/>
      </contour>
      <contour>
        <pt x="795" y="1460" on="1"/>
      </contour>
      <contour>
        <pt x="797" y="1742" on="1"/>
      </contour>
    </TTGlyph>
    <TTGlyph name="braceleft.tamil" xMin="50" yMin="-658" xMax="714" yMax="1742">
      <contour>
        <pt x="714" y="1413" on="1"/>
        <pt x="636" y="1411" on="0"/>
        <pt x="564" y="1330" on="0"/>
        <pt x="564" y="1242" on="1"/>
        <pt x="564" y="801" on="1"/>
        <pt x="564" y="615" on="0"/>
        <pt x="330" y="579" on="1"/>
        <pt x="330" y="567" on="1"/>
        <pt x="564" y="532" on="0"/>
        <pt x="564" y="346" on="1"/>
        <pt x="564" y="-103" on="1"/>
        <pt x="564" y="-192" on="0"/>
        <pt x="637" y="-273" on="0"/>
        <pt x="714" y="-274" on="1"/>
        <pt x="714" y="-500" on="1"/>
        <pt x="574" y="-500" on="0"/>
        <pt x="389" y="-437" on="0"/>
        <pt x="296" y="-294" on="0"/>
        <pt x="296" y="-161" on="1"/>
        <pt x="296" y="274" on="1"/>
        <pt x="296" y="365" on="0"/>
        <pt x="176" y="453" on="0"/>
        <pt x="50" y="453" on="1"/>
        <pt x="50" y="692" on="1"/>
        <pt x="175" y="692" on="0"/>
        <pt x="296" y="779" on="0"/>
        <pt x="296" y="870" on="1"/>
        <pt x="296" y="1300" on="1"/>
        <pt x="296" y="1430" on="0"/>
        <pt x="386" y="1573" on="0"/>
        <pt x="571" y="1638" on="0"/>
        <pt x="714" y="1638" on="1"/>
      </contour>
      <contour>
        <pt x="190" y="0" on="1"/>
      </contour>
      <contour>
        <pt x="212" y="-658" on="1"/>
      </contour>
      <contour>
        <pt x="195" y="1460" on="1"/>
      </contour>
      <contour>
        <pt x="197" y="1742" on="1"/>
      </contour>
    </TTGlyph>
    <TTGlyph name="braceright.tamil" xMin="74" yMin="-658" xMax="738" yMax="1742">
      <contour>
        <pt x="74" y="1638" on="1"/>
        <pt x="218" y="1638" on="0"/>
        <pt x="403" y="1572" on="0"/>
        <pt x="492" y="1430" on="0"/>
        <pt x="492" y="1300" on="1"/>
        <pt x="492" y="870" on="1"/>
        <pt x="492" y="779" on="0"/>
        <pt x="613" y="692" on="0"/>
        <pt x="738" y="692" on="1"/>
        <pt x="738" y="453" on="1"/>
        <pt x="612" y="453" on="0"/>
        <pt x="492" y="365" on="0"/>
        <pt x="492" y="274" on="1"/>
        <pt x="492" y="-161" on="1"/>
        <pt x="492" y="-294" on="0"/>
        <pt x="400" y="-436" on="0"/>
        <pt x="215" y="-500" on="0"/>
        <pt x="74" y="-500" on="1"/>
        <pt x="74" y="-274" on="1"/>
        <pt x="151" y="-273" on="0"/>
        <pt x="224" y="-192" on="0"/>
        <pt x="224" y="-103" on="1"/>
        <pt x="224" y="346" on="1"/>
        <pt x="224" y="532" on="0"/>
        <pt x="458" y="567" on="1"/>
        <pt x="458" y="579" on="1"/>
        <pt x="224" y="615" on="0"/>
        <pt x="224" y="801" on="1"/>
        <pt x="224" y="1242" on="1"/>
        <pt x="224" y="1330" on="0"/>
        <pt x="152" y="1411" on="0"/>
        <pt x="74" y="1413" on="1"/>
      </contour>
      <contour>
        <pt x="590" y="0" on="1"/>
      </contour>
      <contour>
        <pt x="612" y="-658" on="1"/>
      </contour>
      <contour>
        <pt x="555" y="1460" on="1"/>
      </contour>
      <contour>
        <pt x="557" y="1742" on="1"/>
      </contour>
    </TTGlyph>
    <TTGlyph name="bracketleft.tamil" xMin="140" yMin="-658" xMax="667" yMax="1742">
      <contour>
        <pt x="624" y="-500" on="1"/>
        <pt x="140" y="-500" on="1"/>
        <pt x="140" y="1638" on="1"/>
        <pt x="624" y="1638" on="1"/>
        <pt x="624" y="1427" on="1"/>
        <pt x="400" y="1427" on="1"/>
        <pt x="400" y="-289" on="1"/>
        <pt x="624" y="-289" on="1"/>
      </contour>
      <contour>
        <pt x="490" y="0" on="1"/>
      </contour>
      <contour>
        <pt x="512" y="-658" on="1"/>
      </contour>
      <contour>
        <pt x="665" y="1460" on="1"/>
      </contour>
      <contour>
        <pt x="667" y="1742" on="1"/>
      </contour>
    </TTGlyph>
    <TTGlyph name="bracketright.tamil" xMin="74" yMin="-658" xMax="607" yMax="1742">
      <contour>
        <pt x="74" y="-289" on="1"/>
        <pt x="298" y="-289" on="1"/>
        <pt x="298" y="1427" on="1"/>
        <pt x="74" y="1427" on="1"/>
        <pt x="74" y="1638" on="1"/>
        <pt x="558" y="1638" on="1"/>
        <pt x="558" y="-500" on="1"/>
        <pt x="74" y="-500" on="1"/>
      </contour>
      <contour>
        <pt x="190" y="0" on="1"/>
      </contour>
      <contour>
        <pt x="212" y="-658" on="1"/>
      </contour>
      <contour>
        <pt x="605" y="1460" on="1"/>
      </contour>
      <contour>
        <pt x="607" y="1742" on="1"/>
      </contour>
    </TTGlyph>
    <TTGlyph name="caprehalftamil" xMin="88" yMin="-24" xMax="1559" yMax="1742">
      <component glyphName="catamil" x="0" y="0" flags="0x204"/>
      <component glyphName="viramatamil" x="1551" y="0" flags="0x4"/>
    </TTGlyph>
    <TTGlyph name="catamil" xMin="88" yMin="-24" xMax="1559" yMax="1150">
      <contour>
        <pt x="1170" y="507" on="1"/>
        <pt x="1170" y="492" on="1"/>
        <pt x="1170" y="343" on="0"/>
        <pt x="1107" y="161" on="0"/>
        <pt x="970" y="36" on="0"/>
        <pt x="755" y="-24" on="0"/>
        <pt x="602" y="-24" on="1"/>
        <pt x="368" y="-24" on="0"/>
        <pt x="88" y="169" on="0"/>
        <pt x="88" y="337" on="1"/>
        <pt x="88" y="440" on="0"/>
        <pt x="192" y="590" on="0"/>
        <pt x="296" y="637" on="1"/>
        <pt x="296" y="1150" on="1"/>
        <pt x="1559" y="1150" on="1"/>
        <pt x="1559" y="933" on="1"/>
        <pt x="1170" y="933" on="1"/>
        <pt x="1170" y="711" on="1"/>
        <pt x="1559" y="711" on="1"/>
        <pt x="1559" y="507" on="1"/>
      </contour>
      <contour>
        <pt x="566" y="702" on="1"/>
        <pt x="659" y="711" on="0"/>
        <pt x="748" y="711" on="1"/>
        <pt x="878" y="711" on="1"/>
        <pt x="878" y="933" on="1"/>
        <pt x="566" y="933" on="1"/>
      </contour>
      <contour>
        <pt x="878" y="507" on="1"/>
        <pt x="725" y="507" on="1"/>
        <pt x="545" y="507" on="0"/>
        <pt x="384" y="431" on="0"/>
        <pt x="384" y="340" on="1"/>
        <pt x="384" y="270" on="0"/>
        <pt x="513" y="193" on="0"/>
        <pt x="623" y="193" on="1"/>
        <pt x="762" y="193" on="0"/>
        <pt x="878" y="338" on="0"/>
        <pt x="878" y="487" on="1"/>
      </contour>
    </TTGlyph>
    <TTGlyph name="cauuvowelsigntamil" xMin="115" yMin="-658" xMax="2774" yMax="1174">
      <contour>
        <pt x="1709" y="507" on="1"/>
        <pt x="1709" y="492" on="1"/>
        <pt x="1709" y="343" on="0"/>
        <pt x="1646" y="161" on="0"/>
        <pt x="1509" y="36" on="0"/>
        <pt x="1294" y="-24" on="0"/>
        <pt x="1141" y="-24" on="1"/>
        <pt x="907" y="-24" on="0"/>
        <pt x="627" y="169" on="0"/>
        <pt x="627" y="337" on="1"/>
        <pt x="627" y="440" on="0"/>
        <pt x="731" y="590" on="0"/>
        <pt x="835" y="637" on="1"/>
        <pt x="835" y="1150" on="1"/>
        <pt x="2098" y="1150" on="1"/>
        <pt x="2098" y="933" on="1"/>
        <pt x="1709" y="933" on="1"/>
        <pt x="1709" y="711" on="1"/>
        <pt x="2448" y="711" on="1"/>
        <pt x="2448" y="507" on="1"/>
        <pt x="2204" y="507" on="1"/>
        <pt x="2204" y="347" on="1"/>
        <pt x="2250" y="372" on="0"/>
        <pt x="2367" y="398" on="0"/>
        <pt x="2415" y="398" on="1"/>
        <pt x="2588" y="398" on="0"/>
        <pt x="2774" y="197" on="0"/>
        <pt x="2774" y="24" on="1"/>
        <pt x="2774" y="-309" on="0"/>
        <pt x="2128" y="-658" on="0"/>
        <pt x="1559" y="-658" on="1"/>
        <pt x="1438" y="-658" on="1"/>
        <pt x="1034" y="-658" on="0"/>
        <pt x="432" y="-431" on="0"/>
        <pt x="115" y="13" on="0"/>
        <pt x="115" y="293" on="1"/>
        <pt x="115" y="343" on="1"/>
        <pt x="115" y="751" on="0"/>
        <pt x="390" y="1174" on="1"/>
        <pt x="625" y="1032" on="1"/>
        <pt x="518" y="876" on="0"/>
        <pt x="401" y="516" on="0"/>
        <pt x="401" y="359" on="1"/>
        <pt x="401" y="333" on="1"/>
        <pt x="401" y="-36" on="0"/>
        <pt x="946" y="-435" on="0"/>
        <pt x="1462" y="-435" on="1"/>
        <pt x="1542" y="-435" on="1"/>
        <pt x="1813" y="-435" on="0"/>
        <pt x="2256" y="-329" on="0"/>
        <pt x="2494" y="-124" on="0"/>
        <pt x="2494" y="22" on="1"/>
        <pt x="2494" y="101" on="0"/>
        <pt x="2416" y="188" on="0"/>
        <pt x="2346" y="188" on="1"/>
        <pt x="2273" y="188" on="0"/>
        <pt x="2204" y="141" on="1"/>
        <pt x="2204" y="0" on="1"/>
        <pt x="1918" y="0" on="1"/>
        <pt x="1918" y="507" on="1"/>
      </contour>
      <contour>
        <pt x="1105" y="702" on="1"/>
        <pt x="1198" y="711" on="0"/>
        <pt x="1287" y="711" on="1"/>
        <pt x="1417" y="711" on="1"/>
        <pt x="1417" y="933" on="1"/>
        <pt x="1105" y="933" on="1"/>
      </contour>
      <contour>
        <pt x="1417" y="507" on="1"/>
        <pt x="1264" y="507" on="1"/>
        <pt x="1084" y="507" on="0"/>
        <pt x="923" y="431" on="0"/>
        <pt x="923" y="340" on="1"/>
        <pt x="923" y="270" on="0"/>
        <pt x="1052" y="193" on="0"/>
        <pt x="1162" y="193" on="1"/>
        <pt x="1301" y="193" on="0"/>
        <pt x="1417" y="338" on="0"/>
        <pt x="1417" y="487" on="1"/>
      </contour>
    </TTGlyph>
    <TTGlyph name="cauvowelsigntamil" xMin="88" yMin="-24" xMax="1909" yMax="1150">
      <contour>
        <pt x="1170" y="507" on="1"/>
        <pt x="1170" y="492" on="1"/>
        <pt x="1170" y="343" on="0"/>
        <pt x="1107" y="161" on="0"/>
        <pt x="970" y="36" on="0"/>
        <pt x="755" y="-24" on="0"/>
        <pt x="602" y="-24" on="1"/>
        <pt x="368" y="-24" on="0"/>
        <pt x="88" y="169" on="0"/>
        <pt x="88" y="337" on="1"/>
        <pt x="88" y="440" on="0"/>
        <pt x="192" y="590" on="0"/>
        <pt x="296" y="637" on="1"/>
        <pt x="296" y="1150" on="1"/>
        <pt x="1559" y="1150" on="1"/>
        <pt x="1559" y="933" on="1"/>
        <pt x="1170" y="933" on="1"/>
        <pt x="1170" y="711" on="1"/>
        <pt x="1909" y="711" on="1"/>
        <pt x="1909" y="507" on="1"/>
        <pt x="1674" y="507" on="1"/>
        <pt x="1674" y="0" on="1"/>
        <pt x="1379" y="0" on="1"/>
        <pt x="1379" y="507" on="1"/>
      </contour>
      <contour>
        <pt x="566" y="702" on="1"/>
        <pt x="659" y="711" on="0"/>
        <pt x="748" y="711" on="1"/>
        <pt x="878" y="711" on="1"/>
        <pt x="878" y="933" on="1"/>
        <pt x="566" y="933" on="1"/>
      </contour>
      <contour>
        <pt x="878" y="507" on="1"/>
        <pt x="725" y="507" on="1"/>
        <pt x="545" y="507" on="0"/>
        <pt x="384" y="431" on="0"/>
        <pt x="384" y="340" on="1"/>
        <pt x="384" y="270" on="0"/>
        <pt x="513" y="193" on="0"/>
        <pt x="623" y="193" on="1"/>
        <pt x="762" y="193" on="0"/>
        <pt x="878" y="338" on="0"/>
        <pt x="878" y="487" on="1"/>
      </contour>
    </TTGlyph>
    <TTGlyph name="colon.tamil" xMin="117" yMin="-27" xMax="467" yMax="1150">
      <contour>
        <pt x="293" y="1139" on="1"/>
        <pt x="375" y="1139" on="0"/>
        <pt x="467" y="1052" on="0"/>
        <pt x="467" y="969" on="1"/>
        <pt x="467" y="887" on="0"/>
        <pt x="374" y="799" on="0"/>
        <pt x="293" y="799" on="1"/>
        <pt x="210" y="799" on="0"/>
        <pt x="117" y="887" on="0"/>
        <pt x="117" y="969" on="1"/>
        <pt x="117" y="1052" on="0"/>
        <pt x="208" y="1139" on="0"/>
      </contour>
      <contour>
        <pt x="293" y="313" on="1"/>
        <pt x="375" y="313" on="0"/>
        <pt x="467" y="226" on="0"/>
        <pt x="467" y="143" on="1"/>
        <pt x="467" y="61" on="0"/>
        <pt x="372" y="-27" on="0"/>
        <pt x="293" y="-27" on="1"/>
        <pt x="211" y="-27" on="0"/>
        <pt x="117" y="61" on="0"/>
        <pt x="117" y="143" on="1"/>
        <pt x="117" y="226" on="0"/>
        <pt x="208" y="313" on="0"/>
      </contour>
      <contour>
        <pt x="296" y="1150" on="1"/>
      </contour>
    </TTGlyph>
    <TTGlyph name="comma.tamil" xMin="63" yMin="-264" xMax="459" yMax="238">
      <contour>
        <pt x="459" y="215" on="1"/>
        <pt x="407" y="14" on="0"/>
        <pt x="283" y="-264" on="1"/>
        <pt x="63" y="-264" on="1"/>
        <pt x="131" y="22" on="0"/>
        <pt x="164" y="238" on="1"/>
        <pt x="444" y="238" on="1"/>
      </contour>
      <contour>
        <pt x="90" y="0" on="1"/>
      </contour>
    </TTGlyph>
    <TTGlyph name="creditsigntamil" xMin="95" yMin="-24" xMax="2980" yMax="1150">
      <contour>
        <pt x="1763" y="933" on="1"/>
        <pt x="1467" y="933" on="1"/>
        <pt x="1467" y="477" on="1"/>
        <pt x="1638" y="477" on="1"/>
        <pt x="1696" y="605" on="0"/>
        <pt x="1936" y="743" on="0"/>
        <pt x="2098" y="743" on="1"/>
        <pt x="2309" y="743" on="0"/>
        <pt x="2543" y="544" on="0"/>
        <pt x="2543" y="369" on="1"/>
        <pt x="2543" y="271" on="0"/>
        <pt x="2508" y="183" on="1"/>
        <pt x="2763" y="183" on="1"/>
        <pt x="2763" y="732" on="1"/>
        <pt x="2980" y="732" on="1"/>
        <pt x="2980" y="0" on="1"/>
        <pt x="2254" y="0" on="1"/>
        <pt x="2254" y="108" on="1"/>
        <pt x="2316" y="209" on="0"/>
        <pt x="2316" y="323" on="1"/>
        <pt x="2316" y="439" on="0"/>
        <pt x="2193" y="558" on="0"/>
        <pt x="2073" y="558" on="1"/>
        <pt x="1949" y="558" on="0"/>
        <pt x="1869" y="477" on="1"/>
        <pt x="2025" y="476" on="0"/>
        <pt x="2167" y="344" on="0"/>
        <pt x="2167" y="235" on="1"/>
        <pt x="2167" y="118" on="0"/>
        <pt x="2025" y="-8" on="0"/>
        <pt x="1902" y="-8" on="1"/>
        <pt x="1762" y="-8" on="0"/>
        <pt x="1600" y="153" on="0"/>
        <pt x="1600" y="295" on="1"/>
        <pt x="1600" y="304" on="1"/>
        <pt x="1467" y="304" on="1"/>
        <pt x="1467" y="0" on="1"/>
        <pt x="1165" y="0" on="1"/>
        <pt x="1165" y="933" on="1"/>
        <pt x="903" y="933" on="1"/>
        <pt x="726" y="933" on="0"/>
        <pt x="539" y="866" on="0"/>
        <pt x="420" y="749" on="0"/>
        <pt x="390" y="662" on="1"/>
        <pt x="497" y="711" on="0"/>
        <pt x="615" y="711" on="1"/>
        <pt x="784" y="711" on="0"/>
        <pt x="982" y="521" on="0"/>
        <pt x="982" y="357" on="1"/>
        <pt x="982" y="176" on="0"/>
        <pt x="764" y="-24" on="0"/>
        <pt x="564" y="-24" on="1"/>
        <pt x="343" y="-24" on="0"/>
        <pt x="95" y="241" on="0"/>
        <pt x="95" y="482" on="1"/>
        <pt x="95" y="672" on="0"/>
        <pt x="232" y="940" on="0"/>
        <pt x="475" y="1094" on="0"/>
        <pt x="750" y="1150" on="0"/>
        <pt x="986" y="1150" on="1"/>
        <pt x="1763" y="1150" on="1"/>
      </contour>
      <contour>
        <pt x="361" y="440" on="1"/>
        <pt x="366" y="317" on="0"/>
        <pt x="473" y="184" on="0"/>
        <pt x="562" y="184" on="1"/>
        <pt x="625" y="184" on="0"/>
        <pt x="699" y="269" on="0"/>
        <pt x="699" y="342" on="1"/>
        <pt x="699" y="417" on="0"/>
        <pt x="610" y="506" on="0"/>
        <pt x="539" y="506" on="1"/>
        <pt x="450" y="506" on="0"/>
      </contour>
      <contour>
        <pt x="1802" y="304" on="1"/>
        <pt x="1802" y="273" on="1"/>
        <pt x="1802" y="217" on="0"/>
        <pt x="1855" y="157" on="0"/>
        <pt x="1904" y="157" on="1"/>
        <pt x="1937" y="157" on="0"/>
        <pt x="1982" y="193" on="0"/>
        <pt x="1982" y="225" on="1"/>
        <pt x="1982" y="258" on="0"/>
        <pt x="1926" y="304" on="0"/>
        <pt x="1845" y="304" on="1"/>
      </contour>
    </TTGlyph>
    <TTGlyph name="dandatamil" xMin="328" yMin="-100" xMax="666" yMax="1234">
      <contour>
        <pt x="328" y="-100" on="1"/>
        <pt x="328" y="1234" on="1"/>
        <pt x="630" y="1234" on="1"/>
        <pt x="630" y="-100" on="1"/>
      </contour>
      <contour>
        <pt x="660" y="0" on="1"/>
      </contour>
      <contour>
        <pt x="666" y="1150" on="1"/>
      </contour>
    </TTGlyph>
    <TTGlyph name="daysigntamil" xMin="95" yMin="-24" xMax="2205" yMax="1174">
      <contour>
        <pt x="390" y="662" on="1"/>
        <pt x="497" y="711" on="0"/>
        <pt x="615" y="711" on="1"/>
        <pt x="784" y="711" on="0"/>
        <pt x="982" y="521" on="0"/>
        <pt x="982" y="357" on="1"/>
        <pt x="982" y="176" on="0"/>
        <pt x="764" y="-24" on="0"/>
        <pt x="564" y="-24" on="1"/>
        <pt x="340" y="-24" on="0"/>
        <pt x="95" y="249" on="0"/>
        <pt x="95" y="507" on="1"/>
        <pt x="95" y="703" on="0"/>
        <pt x="282" y="1007" on="0"/>
        <pt x="623" y="1174" on="0"/>
        <pt x="831" y="1174" on="1"/>
        <pt x="1162" y="1174" on="0"/>
        <pt x="1511" y="861" on="0"/>
        <pt x="1511" y="581" on="1"/>
        <pt x="1511" y="405" on="0"/>
        <pt x="1435" y="217" on="1"/>
        <pt x="2205" y="217" on="1"/>
        <pt x="2205" y="0" on="1"/>
        <pt x="1124" y="0" on="1"/>
        <pt x="1117" y="166" on="1"/>
        <pt x="1209" y="340" on="0"/>
        <pt x="1209" y="547" on="1"/>
        <pt x="1209" y="740" on="0"/>
        <pt x="1000" y="952" on="0"/>
        <pt x="809" y="952" on="1"/>
        <pt x="655" y="952" on="0"/>
        <pt x="436" y="800" on="0"/>
      </contour>
      <contour>
        <pt x="362" y="441" on="1"/>
        <pt x="369" y="317" on="0"/>
        <pt x="474" y="184" on="0"/>
        <pt x="562" y="184" on="1"/>
        <pt x="625" y="184" on="0"/>
        <pt x="699" y="269" on="0"/>
        <pt x="699" y="342" on="1"/>
        <pt x="699" y="417" on="0"/>
        <pt x="610" y="506" on="0"/>
        <pt x="539" y="506" on="1"/>
        <pt x="451" y="506" on="0"/>
      </contour>
    </TTGlyph>
    <TTGlyph name="dbldandatamil" xMin="328" yMin="-100" xMax="1230" yMax="1234">
      <contour>
        <pt x="328" y="-100" on="1"/>
        <pt x="328" y="1234" on="1"/>
        <pt x="630" y="1234" on="1"/>
        <pt x="630" y="-100" on="1"/>
      </contour>
      <contour>
        <pt x="928" y="-100" on="1"/>
        <pt x="928" y="1234" on="1"/>
        <pt x="1230" y="1234" on="1"/>
        <pt x="1230" y="-100" on="1"/>
      </contour>
      <contour>
        <pt x="790" y="0" on="1"/>
      </contour>
      <contour>
        <pt x="796" y="1150" on="1"/>
      </contour>
    </TTGlyph>
    <TTGlyph name="debitsigntamil" xMin="67" yMin="-658" xMax="1810" yMax="1150">
      <contour>
        <pt x="1232" y="32" on="1"/>
        <pt x="1232" y="-52" on="0"/>
        <pt x="1220" y="-127" on="1"/>
        <pt x="1508" y="-127" on="1"/>
        <pt x="1508" y="688" on="1"/>
        <pt x="1810" y="688" on="1"/>
        <pt x="1810" y="-344" on="1"/>
        <pt x="1159" y="-344" on="1"/>
        <pt x="1079" y="-497" on="0"/>
        <pt x="754" y="-658" on="0"/>
        <pt x="530" y="-658" on="1"/>
        <pt x="411" y="-658" on="0"/>
        <pt x="190" y="-573" on="0"/>
        <pt x="67" y="-420" on="0"/>
        <pt x="67" y="-322" on="1"/>
        <pt x="67" y="-249" on="0"/>
        <pt x="138" y="-162" on="0"/>
        <pt x="253" y="-127" on="0"/>
        <pt x="391" y="-127" on="1"/>
        <pt x="923" y="-127" on="1"/>
        <pt x="930" y="-69" on="0"/>
        <pt x="930" y="16" on="1"/>
        <pt x="930" y="56" on="1"/>
        <pt x="826" y="-24" on="0"/>
        <pt x="696" y="-24" on="1"/>
        <pt x="557" y="-24" on="0"/>
        <pt x="404" y="87" on="0"/>
        <pt x="336" y="267" on="0"/>
        <pt x="336" y="414" on="1"/>
        <pt x="336" y="1150" on="1"/>
        <pt x="638" y="1150" on="1"/>
        <pt x="638" y="451" on="1"/>
        <pt x="638" y="350" on="0"/>
        <pt x="659" y="252" on="0"/>
        <pt x="726" y="193" on="0"/>
        <pt x="786" y="193" on="1"/>
        <pt x="867" y="193" on="0"/>
        <pt x="930" y="267" on="1"/>
        <pt x="930" y="1150" on="1"/>
        <pt x="1232" y="1150" on="1"/>
      </contour>
      <contour>
        <pt x="864" y="-326" on="1"/>
        <pt x="419" y="-326" on="1"/>
        <pt x="372" y="-326" on="0"/>
        <pt x="340" y="-342" on="0"/>
        <pt x="340" y="-360" on="1"/>
        <pt x="340" y="-400" on="0"/>
        <pt x="447" y="-455" on="0"/>
        <pt x="527" y="-455" on="1"/>
        <pt x="647" y="-455" on="0"/>
        <pt x="816" y="-390" on="0"/>
      </contour>
    </TTGlyph>
    <TTGlyph name="divide.tamil" xMin="88" yMin="0" xMax="1081" yMax="1460">
      <contour>
        <pt x="584" y="1223" on="1"/>
        <pt x="650" y="1223" on="0"/>
        <pt x="723" y="1144" on="0"/>
        <pt x="723" y="1071" on="1"/>
        <pt x="723" y="999" on="0"/>
        <pt x="646" y="920" on="0"/>
        <pt x="584" y="920" on="1"/>
        <pt x="520" y="920" on="0"/>
        <pt x="444" y="999" on="0"/>
        <pt x="444" y="1071" on="1"/>
        <pt x="444" y="1145" on="0"/>
        <pt x="516" y="1223" on="0"/>
      </contour>
      <contour>
        <pt x="88" y="612" on="1"/>
        <pt x="88" y="831" on="1"/>
        <pt x="1081" y="831" on="1"/>
        <pt x="1081" y="612" on="1"/>
      </contour>
      <contour>
        <pt x="584" y="524" on="1"/>
        <pt x="650" y="524" on="0"/>
        <pt x="723" y="446" on="0"/>
        <pt x="723" y="373" on="1"/>
        <pt x="723" y="301" on="0"/>
        <pt x="646" y="221" on="0"/>
        <pt x="584" y="221" on="1"/>
        <pt x="519" y="221" on="0"/>
        <pt x="444" y="301" on="0"/>
        <pt x="444" y="373" on="1"/>
        <pt x="444" y="446" on="0"/>
        <pt x="516" y="524" on="0"/>
      </contour>
      <contour>
        <pt x="597" y="0" on="1"/>
      </contour>
      <contour>
        <pt x="555" y="1460" on="1"/>
      </contour>
    </TTGlyph>
    <TTGlyph name="eetamil" xMin="95" yMin="-658" xMax="1763" yMax="1150">
      <contour>
        <pt x="1165" y="67" on="1"/>
        <pt x="1165" y="933" on="1"/>
        <pt x="903" y="933" on="1"/>
        <pt x="726" y="933" on="0"/>
        <pt x="539" y="866" on="0"/>
        <pt x="420" y="749" on="0"/>
        <pt x="390" y="662" on="1"/>
        <pt x="497" y="711" on="0"/>
        <pt x="615" y="711" on="1"/>
        <pt x="784" y="711" on="0"/>
        <pt x="982" y="521" on="0"/>
        <pt x="982" y="357" on="1"/>
        <pt x="982" y="176" on="0"/>
        <pt x="764" y="-24" on="0"/>
        <pt x="564" y="-24" on="1"/>
        <pt x="343" y="-24" on="0"/>
        <pt x="95" y="241" on="0"/>
        <pt x="95" y="482" on="1"/>
        <pt x="95" y="672" on="0"/>
        <pt x="232" y="940" on="0"/>
        <pt x="475" y="1094" on="0"/>
        <pt x="750" y="1150" on="0"/>
        <pt x="986" y="1150" on="1"/>
        <pt x="1763" y="1150" on="1"/>
        <pt x="1763" y="933" on="1"/>
        <pt x="1467" y="933" on="1"/>
        <pt x="1467" y="0" on="1"/>
        <pt x="1010" y="-436" on="1"/>
        <pt x="820" y="-259" on="1"/>
      </contour>
      <contour>
        <pt x="361" y="440" on="1"/>
        <pt x="366" y="317" on="0"/>
        <pt x="473" y="184" on="0"/>
        <pt x="562" y="184" on="1"/>
        <pt x="625" y="184" on="0"/>
        <pt x="699" y="269" on="0"/>
        <pt x="699" y="342" on="1"/>
        <pt x="699" y="417" on="0"/>
        <pt x="610" y="506" on="0"/>
        <pt x="539" y="506" on="1"/>
        <pt x="450" y="506" on="0"/>
      </contour>
      <contour>
        <pt x="986" y="-658" on="1"/>
      </contour>
    </TTGlyph>
    <TTGlyph name="eevowelsigntamil" xMin="112" yMin="-24" xMax="1565" yMax="1742">
      <contour>
        <pt x="748" y="241" on="1"/>
        <pt x="723" y="303" on="0"/>
        <pt x="723" y="399" on="1"/>
        <pt x="723" y="564" on="0"/>
        <pt x="938" y="770" on="0"/>
        <pt x="1124" y="770" on="1"/>
        <pt x="1319" y="770" on="0"/>
        <pt x="1540" y="553" on="0"/>
        <pt x="1540" y="375" on="1"/>
        <pt x="1540" y="189" on="0"/>
        <pt x="1253" y="-24" on="0"/>
        <pt x="1002" y="-24" on="1"/>
        <pt x="740" y="-24" on="0"/>
        <pt x="332" y="190" on="0"/>
        <pt x="112" y="590" on="0"/>
        <pt x="112" y="860" on="1"/>
        <pt x="112" y="1120" on="0"/>
        <pt x="354" y="1521" on="0"/>
        <pt x="794" y="1742" on="0"/>
        <pt x="1062" y="1742" on="1"/>
        <pt x="1303" y="1742" on="0"/>
        <pt x="1565" y="1539" on="0"/>
        <pt x="1565" y="1353" on="1"/>
        <pt x="1565" y="1184" on="0"/>
        <pt x="1340" y="969" on="0"/>
        <pt x="1149" y="969" on="1"/>
        <pt x="964" y="969" on="0"/>
        <pt x="748" y="1166" on="0"/>
        <pt x="748" y="1327" on="1"/>
        <pt x="748" y="1416" on="0"/>
        <pt x="776" y="1481" on="1"/>
        <pt x="598" y="1408" on="0"/>
        <pt x="398" y="1078" on="0"/>
        <pt x="398" y="852" on="1"/>
        <pt x="398" y="633" on="0"/>
        <pt x="580" y="316" on="0"/>
      </contour>
      <contour>
        <pt x="1052" y="1533" on="1"/>
        <pt x="999" y="1447" on="0"/>
        <pt x="999" y="1345" on="1"/>
        <pt x="999" y="1265" on="0"/>
        <pt x="1075" y="1177" on="0"/>
        <pt x="1142" y="1177" on="1"/>
        <pt x="1208" y="1177" on="0"/>
        <pt x="1282" y="1265" on="0"/>
        <pt x="1282" y="1345" on="1"/>
        <pt x="1282" y="1433" on="0"/>
        <pt x="1179" y="1534" on="0"/>
        <pt x="1080" y="1534" on="1"/>
        <pt x="1066" y="1534" on="1"/>
        <pt x="1060" y="1534" on="0"/>
      </contour>
      <contour>
        <pt x="1036" y="184" on="1"/>
        <pt x="1146" y="184" on="0"/>
        <pt x="1257" y="280" on="0"/>
        <pt x="1257" y="384" on="1"/>
        <pt x="1257" y="466" on="0"/>
        <pt x="1183" y="562" on="0"/>
        <pt x="1117" y="562" on="1"/>
        <pt x="1054" y="562" on="0"/>
        <pt x="974" y="466" on="0"/>
        <pt x="974" y="385" on="1"/>
        <pt x="974" y="275" on="0"/>
        <pt x="1029" y="184" on="1"/>
      </contour>
    </TTGlyph>
    <TTGlyph name="eight.tamil" xMin="72" yMin="-20" xMax="1098" yMax="1481">
      <contour>
        <pt x="791" y="772" on="1"/>
        <pt x="950" y="688" on="0"/>
        <pt x="1098" y="495" on="0"/>
        <pt x="1098" y="379" on="1"/>
        <pt x="1098" y="200" on="0"/>
        <pt x="817" y="-20" on="0"/>
        <pt x="586" y="-20" on="1"/>
        <pt x="341" y="-20" on="0"/>
        <pt x="72" y="188" on="0"/>
        <pt x="72" y="371" on="1"/>
        <pt x="72" y="499" on="0"/>
        <pt x="212" y="695" on="0"/>
        <pt x="352" y="764" on="1"/>
        <pt x="231" y="839" on="0"/>
        <pt x="117" y="1019" on="0"/>
        <pt x="117" y="1130" on="1"/>
        <pt x="117" y="1237" on="0"/>
        <pt x="239" y="1397" on="0"/>
        <pt x="457" y="1481" on="0"/>
        <pt x="586" y="1481" on="1"/>
        <pt x="793" y="1481" on="0"/>
        <pt x="1053" y="1291" on="0"/>
        <pt x="1053" y="1128" on="1"/>
        <pt x="1053" y="1014" on="0"/>
        <pt x="922" y="836" on="0"/>
      </contour>
      <contour>
        <pt x="586" y="901" on="1"/>
        <pt x="681" y="945" on="0"/>
        <pt x="762" y="1042" on="0"/>
        <pt x="762" y="1106" on="1"/>
        <pt x="762" y="1173" on="0"/>
        <pt x="664" y="1255" on="0"/>
        <pt x="584" y="1255" on="1"/>
        <pt x="505" y="1255" on="0"/>
        <pt x="408" y="1173" on="0"/>
        <pt x="408" y="1106" on="1"/>
        <pt x="408" y="1044" on="0"/>
        <pt x="493" y="946" on="0"/>
      </contour>
      <contour>
        <pt x="571" y="637" on="1"/>
        <pt x="464" y="588" on="0"/>
        <pt x="358" y="464" on="0"/>
        <pt x="358" y="389" on="1"/>
        <pt x="358" y="306" on="0"/>
        <pt x="476" y="207" on="0"/>
        <pt x="582" y="207" on="1"/>
        <pt x="692" y="207" on="0"/>
        <pt x="811" y="302" on="0"/>
        <pt x="811" y="387" on="1"/>
        <pt x="811" y="449" on="0"/>
        <pt x="717" y="561" on="0"/>
        <pt x="598" y="623" on="1"/>
      </contour>
    </TTGlyph>
    <TTGlyph name="eighttamil" xMin="52" yMin="-658" xMax="2334" yMax="1174">
      <contour>
        <pt x="2334" y="-315" on="1"/>
        <pt x="2032" y="-315" on="1"/>
        <pt x="2032" y="178" on="1"/>
        <pt x="1751" y="178" on="1"/>
        <pt x="1633" y="-44" on="0"/>
        <pt x="1109" y="-288" on="0"/>
        <pt x="757" y="-288" on="1"/>
        <pt x="720" y="-288" on="1"/>
        <pt x="407" y="-288" on="0"/>
        <pt x="52" y="-60" on="0"/>
        <pt x="52" y="130" on="1"/>
        <pt x="52" y="203" on="0"/>
        <pt x="122" y="324" on="0"/>
        <pt x="283" y="394" on="0"/>
        <pt x="464" y="394" on="1"/>
        <pt x="742" y="394" on="1"/>
        <pt x="601" y="555" on="0"/>
        <pt x="601" y="742" on="1"/>
        <pt x="601" y="942" on="0"/>
        <pt x="885" y="1174" on="0"/>
        <pt x="1134" y="1174" on="1"/>
        <pt x="1344" y="1174" on="0"/>
        <pt x="1648" y="1003" on="0"/>
        <pt x="1807" y="693" on="0"/>
        <pt x="1807" y="506" on="1"/>
        <pt x="1807" y="445" on="0"/>
        <pt x="1801" y="394" on="1"/>
        <pt x="2032" y="394" on="1"/>
        <pt x="2032" y="1150" on="1"/>
        <pt x="2334" y="1150" on="1"/>
      </contour>
      <contour>
        <pt x="1093" y="394" on="1"/>
        <pt x="1516" y="394" on="1"/>
        <pt x="1521" y="422" on="0"/>
        <pt x="1521" y="501" on="1"/>
        <pt x="1521" y="700" on="0"/>
        <pt x="1307" y="952" on="0"/>
        <pt x="1131" y="952" on="1"/>
        <pt x="1013" y="952" on="0"/>
        <pt x="886" y="838" on="0"/>
        <pt x="886" y="730" on="1"/>
        <pt x="886" y="641" on="0"/>
        <pt x="997" y="462" on="0"/>
      </contour>
      <contour>
        <pt x="781" y="-71" on="1"/>
        <pt x="1016" y="-71" on="0"/>
        <pt x="1345" y="53" on="0"/>
        <pt x="1438" y="178" on="1"/>
        <pt x="542" y="178" on="1"/>
        <pt x="445" y="178" on="0"/>
        <pt x="379" y="166" on="0"/>
        <pt x="343" y="131" on="0"/>
        <pt x="343" y="101" on="1"/>
        <pt x="343" y="18" on="0"/>
        <pt x="555" y="-71" on="0"/>
        <pt x="757" y="-71" on="1"/>
      </contour>
      <contour>
        <pt x="486" y="-658" on="1"/>
      </contour>
    </TTGlyph>
    <TTGlyph name="ellipsis.tamil" xMin="117" yMin="-27" xMax="1634" yMax="313">
      <contour>
        <pt x="293" y="313" on="1"/>
        <pt x="375" y="313" on="0"/>
        <pt x="467" y="226" on="0"/>
        <pt x="467" y="143" on="1"/>
        <pt x="467" y="61" on="0"/>
        <pt x="372" y="-27" on="0"/>
        <pt x="293" y="-27" on="1"/>
        <pt x="211" y="-27" on="0"/>
        <pt x="117" y="61" on="0"/>
        <pt x="117" y="143" on="1"/>
        <pt x="117" y="226" on="0"/>
        <pt x="208" y="313" on="0"/>
      </contour>
      <contour>
        <pt x="877" y="313" on="1"/>
        <pt x="959" y="313" on="0"/>
        <pt x="1051" y="226" on="0"/>
        <pt x="1051" y="143" on="1"/>
        <pt x="1051" y="61" on="0"/>
        <pt x="956" y="-27" on="0"/>
        <pt x="877" y="-27" on="1"/>
        <pt x="795" y="-27" on="0"/>
        <pt x="700" y="61" on="0"/>
        <pt x="700" y="143" on="1"/>
        <pt x="700" y="226" on="0"/>
        <pt x="792" y="313" on="0"/>
      </contour>
      <contour>
        <pt x="1460" y="313" on="1"/>
        <pt x="1542" y="313" on="0"/>
        <pt x="1634" y="226" on="0"/>
        <pt x="1634" y="143" on="1"/>
        <pt x="1634" y="61" on="0"/>
        <pt x="1539" y="-27" on="0"/>
        <pt x="1460" y="-27" on="1"/>
        <pt x="1378" y="-27" on="0"/>
        <pt x="1284" y="61" on="0"/>
        <pt x="1284" y="143" on="1"/>
        <pt x="1284" y="226" on="0"/>
        <pt x="1375" y="313" on="0"/>
      </contour>
    </TTGlyph>
    <TTGlyph name="emdash.tamil" xMin="82" yMin="0" xMax="1966" yMax="1150">
      <contour>
        <pt x="82" y="424" on="1"/>
        <pt x="82" y="674" on="1"/>
        <pt x="1966" y="674" on="1"/>
        <pt x="1966" y="424" on="1"/>
      </contour>
      <contour>
        <pt x="290" y="0" on="1"/>
      </contour>
      <contour>
        <pt x="296" y="1150" on="1"/>
      </contour>
    </TTGlyph>
    <TTGlyph name="endash.tamil" xMin="82" yMin="0" xMax="942" yMax="1150">
      <contour>
        <pt x="82" y="424" on="1"/>
        <pt x="82" y="674" on="1"/>
        <pt x="942" y="674" on="1"/>
        <pt x="942" y="424" on="1"/>
      </contour>
      <contour>
        <pt x="290" y="0" on="1"/>
      </contour>
      <contour>
        <pt x="296" y="1150" on="1"/>
      </contour>
    </TTGlyph>
    <TTGlyph name="equal.tamil" xMin="88" yMin="0" xMax="1081" yMax="1460">
      <contour>
        <pt x="88" y="807" on="1"/>
        <pt x="88" y="1024" on="1"/>
        <pt x="1081" y="1024" on="1"/>
        <pt x="1081" y="807" on="1"/>
      </contour>
      <contour>
        <pt x="88" y="418" on="1"/>
        <pt x="88" y="637" on="1"/>
        <pt x="1081" y="637" on="1"/>
        <pt x="1081" y="418" on="1"/>
      </contour>
      <contour>
        <pt x="597" y="0" on="1"/>
      </contour>
      <contour>
        <pt x="555" y="1460" on="1"/>
      </contour>
    </TTGlyph>
    <TTGlyph name="etamil" xMin="95" yMin="-24" xMax="1763" yMax="1150">
      <contour>
        <pt x="1165" y="0" on="1"/>
        <pt x="1165" y="933" on="1"/>
        <pt x="903" y="933" on="1"/>
        <pt x="726" y="933" on="0"/>
        <pt x="539" y="866" on="0"/>
        <pt x="420" y="749" on="0"/>
        <pt x="390" y="662" on="1"/>
        <pt x="497" y="711" on="0"/>
        <pt x="615" y="711" on="1"/>
        <pt x="784" y="711" on="0"/>
        <pt x="982" y="521" on="0"/>
        <pt x="982" y="357" on="1"/>
        <pt x="982" y="176" on="0"/>
        <pt x="764" y="-24" on="0"/>
        <pt x="564" y="-24" on="1"/>
        <pt x="343" y="-24" on="0"/>
        <pt x="95" y="241" on="0"/>
        <pt x="95" y="482" on="1"/>
        <pt x="95" y="672" on="0"/>
        <pt x="232" y="940" on="0"/>
        <pt x="475" y="1094" on="0"/>
        <pt x="750" y="1150" on="0"/>
        <pt x="986" y="1150" on="1"/>
        <pt x="1763" y="1150" on="1"/>
        <pt x="1763" y="933" on="1"/>
        <pt x="1467" y="933" on="1"/>
        <pt x="1467" y="0" on="1"/>
      </contour>
      <contour>
        <pt x="361" y="440" on="1"/>
        <pt x="366" y="317" on="0"/>
        <pt x="473" y="184" on="0"/>
        <pt x="562" y="184" on="1"/>
        <pt x="625" y="184" on="0"/>
        <pt x="699" y="269" on="0"/>
        <pt x="699" y="342" on="1"/>
        <pt x="699" y="417" on="0"/>
        <pt x="610" y="506" on="0"/>
        <pt x="539" y="506" on="1"/>
        <pt x="450" y="506" on="0"/>
      </contour>
    </TTGlyph>
    <TTGlyph name="evowelsigntamil" xMin="112" yMin="-24" xMax="1856" yMax="1742">
      <contour>
        <pt x="538" y="290" on="1"/>
        <pt x="523" y="344" on="0"/>
        <pt x="523" y="399" on="1"/>
        <pt x="523" y="563" on="0"/>
        <pt x="746" y="770" on="0"/>
        <pt x="934" y="770" on="1"/>
        <pt x="1132" y="770" on="0"/>
        <pt x="1360" y="554" on="0"/>
        <pt x="1360" y="375" on="1"/>
        <pt x="1360" y="184" on="0"/>
        <pt x="1090" y="-24" on="0"/>
        <pt x="841" y="-24" on="1"/>
        <pt x="621" y="-24" on="0"/>
        <pt x="292" y="168" on="0"/>
        <pt x="112" y="534" on="0"/>
        <pt x="112" y="779" on="1"/>
        <pt x="112" y="1061" on="0"/>
        <pt x="360" y="1499" on="0"/>
        <pt x="811" y="1742" on="0"/>
        <pt x="1085" y="1742" on="1"/>
        <pt x="1311" y="1742" on="0"/>
        <pt x="1585" y="1630" on="0"/>
        <pt x="1768" y="1446" on="0"/>
        <pt x="1856" y="1142" on="0"/>
        <pt x="1856" y="906" on="1"/>
        <pt x="1856" y="0" on="1"/>
        <pt x="1554" y="0" on="1"/>
        <pt x="1554" y="803" on="1"/>
        <pt x="1554" y="1033" on="0"/>
        <pt x="1493" y="1296" on="0"/>
        <pt x="1378" y="1444" on="0"/>
        <pt x="1209" y="1519" on="0"/>
        <pt x="1068" y="1519" on="1"/>
        <pt x="895" y="1519" on="0"/>
        <pt x="579" y="1342" on="0"/>
        <pt x="398" y="1004" on="0"/>
        <pt x="398" y="776" on="1"/>
        <pt x="398" y="617" on="0"/>
        <pt x="471" y="369" on="0"/>
      </contour>
      <contour>
        <pt x="828" y="185" on="1"/>
        <pt x="852" y="184" on="1"/>
        <pt x="967" y="179" on="0"/>
        <pt x="1077" y="287" on="0"/>
        <pt x="1077" y="383" on="1"/>
        <pt x="1077" y="459" on="0"/>
        <pt x="998" y="562" on="0"/>
        <pt x="927" y="562" on="1"/>
        <pt x="860" y="562" on="0"/>
        <pt x="774" y="466" on="0"/>
        <pt x="774" y="385" on="1"/>
        <pt x="774" y="275" on="0"/>
      </contour>
    </TTGlyph>
    <TTGlyph name="exclam.tamil" xMin="138" yMin="-27" xMax="488" yMax="1462">
      <contour>
        <pt x="437" y="485" on="1"/>
        <pt x="193" y="485" on="1"/>
        <pt x="142" y="1462" on="1"/>
        <pt x="488" y="1462" on="1"/>
      </contour>
      <contour>
        <pt x="314" y="313" on="1"/>
        <pt x="396" y="313" on="0"/>
        <pt x="488" y="226" on="0"/>
        <pt x="488" y="143" on="1"/>
        <pt x="488" y="61" on="0"/>
        <pt x="393" y="-27" on="0"/>
        <pt x="314" y="-27" on="1"/>
        <pt x="232" y="-27" on="0"/>
        <pt x="138" y="61" on="0"/>
        <pt x="138" y="143" on="1"/>
        <pt x="138" y="226" on="0"/>
        <pt x="229" y="313" on="0"/>
      </contour>
    </TTGlyph>
    <TTGlyph name="five.tamil" xMin="100" yMin="-20" xMax="1077" yMax="1462">
      <contour>
        <pt x="100" y="59" on="1"/>
        <pt x="100" y="326" on="1"/>
        <pt x="178" y="284" on="0"/>
        <pt x="392" y="231" on="0"/>
        <pt x="483" y="231" on="1"/>
        <pt x="766" y="231" on="0"/>
        <pt x="766" y="463" on="1"/>
        <pt x="766" y="684" on="0"/>
        <pt x="473" y="684" on="1"/>
        <pt x="376" y="684" on="0"/>
        <pt x="252" y="651" on="1"/>
        <pt x="129" y="717" on="1"/>
        <pt x="184" y="1462" on="1"/>
        <pt x="977" y="1462" on="1"/>
        <pt x="977" y="1200" on="1"/>
        <pt x="455" y="1200" on="1"/>
        <pt x="428" y="913" on="1"/>
        <pt x="519" y="934" on="0"/>
        <pt x="614" y="934" on="1"/>
        <pt x="823" y="934" on="0"/>
        <pt x="1077" y="696" on="0"/>
        <pt x="1077" y="489" on="1"/>
        <pt x="1077" y="245" on="0"/>
        <pt x="775" y="-20" on="0"/>
        <pt x="494" y="-20" on="1"/>
        <pt x="250" y="-20" on="0"/>
      </contour>
    </TTGlyph>
    <TTGlyph name="fivetamil" xMin="120" yMin="-658" xMax="2342" yMax="1742">
      <contour>
        <pt x="784" y="1150" on="1"/>
        <pt x="1992" y="1150" on="1"/>
        <pt x="1992" y="933" on="1"/>
        <pt x="1696" y="933" on="1"/>
        <pt x="1696" y="641" on="1"/>
        <pt x="1795" y="687" on="0"/>
        <pt x="1909" y="687" on="1"/>
        <pt x="2109" y="687" on="0"/>
        <pt x="2342" y="430" on="0"/>
        <pt x="2342" y="195" on="1"/>
        <pt x="2342" y="-72" on="0"/>
        <pt x="2090" y="-452" on="0"/>
        <pt x="1604" y="-658" on="0"/>
        <pt x="1298" y="-658" on="1"/>
        <pt x="931" y="-658" on="0"/>
        <pt x="399" y="-381" on="0"/>
        <pt x="120" y="146" on="0"/>
        <pt x="120" y="497" on="1"/>
        <pt x="120" y="553" on="1"/>
        <pt x="120" y="890" on="0"/>
        <pt x="407" y="1444" on="0"/>
        <pt x="951" y="1742" on="0"/>
        <pt x="1330" y="1742" on="1"/>
        <pt x="1565" y="1742" on="0"/>
        <pt x="1982" y="1640" on="0"/>
        <pt x="2246" y="1507" on="1"/>
        <pt x="2137" y="1270" on="1"/>
        <pt x="1876" y="1411" on="0"/>
        <pt x="1525" y="1512" on="0"/>
        <pt x="1342" y="1512" on="1"/>
        <pt x="909" y="1512" on="0"/>
        <pt x="423" y="1024" on="0"/>
        <pt x="423" y="573" on="1"/>
        <pt x="423" y="478" on="1"/>
        <pt x="423" y="42" on="0"/>
        <pt x="868" y="-435" on="0"/>
        <pt x="1282" y="-435" on="1"/>
        <pt x="1299" y="-435" on="1"/>
        <pt x="1655" y="-435" on="0"/>
        <pt x="2040" y="-115" on="0"/>
        <pt x="2040" y="186" on="1"/>
        <pt x="2040" y="328" on="0"/>
        <pt x="1935" y="470" on="0"/>
        <pt x="1835" y="470" on="1"/>
        <pt x="1765" y="470" on="0"/>
        <pt x="1696" y="429" on="1"/>
        <pt x="1696" y="0" on="1"/>
        <pt x="1394" y="0" on="1"/>
        <pt x="1394" y="933" on="1"/>
        <pt x="1086" y="933" on="1"/>
        <pt x="1086" y="0" on="1"/>
        <pt x="784" y="0" on="1"/>
      </contour>
    </TTGlyph>
    <TTGlyph name="four.tamil" xMin="35" yMin="0" xMax="1137" yMax="1462">
      <contour>
        <pt x="1137" y="303" on="1"/>
        <pt x="961" y="303" on="1"/>
        <pt x="961" y="0" on="1"/>
        <pt x="659" y="0" on="1"/>
        <pt x="659" y="303" on="1"/>
        <pt x="35" y="303" on="1"/>
        <pt x="35" y="518" on="1"/>
        <pt x="676" y="1462" on="1"/>
        <pt x="961" y="1462" on="1"/>
        <pt x="961" y="543" on="1"/>
        <pt x="1137" y="543" on="1"/>
      </contour>
      <contour>
        <pt x="659" y="543" on="1"/>
        <pt x="659" y="791" on="1"/>
        <pt x="659" y="852" on="0"/>
        <pt x="668" y="1060" on="0"/>
        <pt x="672" y="1108" on="1"/>
        <pt x="664" y="1108" on="1"/>
        <pt x="626" y="1024" on="0"/>
        <pt x="575" y="948" on="1"/>
        <pt x="307" y="543" on="1"/>
      </contour>
    </TTGlyph>
    <TTGlyph name="fourtamil" xMin="88" yMin="-24" xMax="2016" yMax="1150">
      <contour>
        <pt x="1170" y="507" on="1"/>
        <pt x="1170" y="492" on="1"/>
        <pt x="1170" y="343" on="0"/>
        <pt x="1107" y="161" on="0"/>
        <pt x="970" y="36" on="0"/>
        <pt x="755" y="-24" on="0"/>
        <pt x="602" y="-24" on="1"/>
        <pt x="368" y="-24" on="0"/>
        <pt x="88" y="169" on="0"/>
        <pt x="88" y="337" on="1"/>
        <pt x="88" y="440" on="0"/>
        <pt x="192" y="590" on="0"/>
        <pt x="296" y="637" on="1"/>
        <pt x="296" y="1150" on="1"/>
        <pt x="1519" y="1150" on="1"/>
        <pt x="1519" y="933" on="1"/>
        <pt x="1170" y="933" on="1"/>
        <pt x="1170" y="711" on="1"/>
        <pt x="1714" y="711" on="1"/>
        <pt x="1714" y="1150" on="1"/>
        <pt x="2016" y="1150" on="1"/>
        <pt x="2016" y="507" on="1"/>
      </contour>
      <contour>
        <pt x="566" y="702" on="1"/>
        <pt x="659" y="711" on="0"/>
        <pt x="748" y="711" on="1"/>
        <pt x="878" y="711" on="1"/>
        <pt x="878" y="933" on="1"/>
        <pt x="566" y="933" on="1"/>
      </contour>
      <contour>
        <pt x="878" y="507" on="1"/>
        <pt x="725" y="507" on="1"/>
        <pt x="545" y="507" on="0"/>
        <pt x="384" y="431" on="0"/>
        <pt x="384" y="340" on="1"/>
        <pt x="384" y="270" on="0"/>
        <pt x="513" y="193" on="0"/>
        <pt x="623" y="193" on="1"/>
        <pt x="762" y="193" on="0"/>
        <pt x="878" y="338" on="0"/>
        <pt x="878" y="487" on="1"/>
      </contour>
    </TTGlyph>
    <TTGlyph name="greater.tamil" xMin="88" yMin="0" xMax="1081" yMax="1460">
      <contour>
        <pt x="88" y="442" on="1"/>
        <pt x="772" y="723" on="1"/>
        <pt x="88" y="1040" on="1"/>
        <pt x="88" y="1280" on="1"/>
        <pt x="1081" y="784" on="1"/>
        <pt x="1081" y="641" on="1"/>
        <pt x="88" y="203" on="1"/>
      </contour>
      <contour>
        <pt x="597" y="0" on="1"/>
      </contour>
      <contour>
        <pt x="555" y="1460" on="1"/>
      </contour>
    </TTGlyph>
    <TTGlyph name="haprehalftamil" xMin="83" yMin="-658" xMax="3530" yMax="1742">
      <component glyphName="hatamil" x="0" y="0" flags="0x204"/>
      <component glyphName="viramatamil" x="2393" y="0" flags="0x4"/>
    </TTGlyph>
    <TTGlyph name="hatamil" xMin="83" yMin="-658" xMax="3530" yMax="1174">
      <contour>
        <pt x="95" y="-658" on="1"/>
        <pt x="83" y="-559" on="0"/>
        <pt x="83" y="-482" on="1"/>
        <pt x="83" y="-373" on="0"/>
        <pt x="191" y="-210" on="0"/>
        <pt x="390" y="-127" on="0"/>
        <pt x="584" y="-127" on="1"/>
        <pt x="2533" y="-127" on="1"/>
        <pt x="2832" y="-127" on="0"/>
        <pt x="3110" y="-2" on="0"/>
        <pt x="3228" y="260" on="0"/>
        <pt x="3228" y="486" on="1"/>
        <pt x="3228" y="716" on="0"/>
        <pt x="3084" y="957" on="0"/>
        <pt x="2952" y="957" on="1"/>
        <pt x="2871" y="957" on="0"/>
        <pt x="2772" y="881" on="0"/>
        <pt x="2731" y="756" on="0"/>
        <pt x="2731" y="634" on="1"/>
        <pt x="2731" y="0" on="1"/>
        <pt x="2429" y="0" on="1"/>
        <pt x="2429" y="631" on="1"/>
        <pt x="2429" y="816" on="0"/>
        <pt x="2357" y="957" on="0"/>
        <pt x="2279" y="957" on="1"/>
        <pt x="2191" y="957" on="0"/>
        <pt x="2115" y="842" on="0"/>
        <pt x="2115" y="668" on="1"/>
        <pt x="2115" y="0" on="1"/>
        <pt x="1124" y="0" on="1"/>
        <pt x="1117" y="166" on="1"/>
        <pt x="1209" y="340" on="0"/>
        <pt x="1209" y="547" on="1"/>
        <pt x="1209" y="740" on="0"/>
        <pt x="1000" y="952" on="0"/>
        <pt x="809" y="952" on="1"/>
        <pt x="655" y="952" on="0"/>
        <pt x="436" y="800" on="0"/>
        <pt x="390" y="662" on="1"/>
        <pt x="497" y="711" on="0"/>
        <pt x="615" y="711" on="1"/>
        <pt x="784" y="711" on="0"/>
        <pt x="982" y="521" on="0"/>
        <pt x="982" y="357" on="1"/>
        <pt x="982" y="176" on="0"/>
        <pt x="764" y="-24" on="0"/>
        <pt x="564" y="-24" on="1"/>
        <pt x="340" y="-24" on="0"/>
        <pt x="95" y="249" on="0"/>
        <pt x="95" y="507" on="1"/>
        <pt x="95" y="703" on="0"/>
        <pt x="282" y="1007" on="0"/>
        <pt x="623" y="1174" on="0"/>
        <pt x="831" y="1174" on="1"/>
        <pt x="1162" y="1174" on="0"/>
        <pt x="1511" y="861" on="0"/>
        <pt x="1511" y="581" on="1"/>
        <pt x="1511" y="405" on="0"/>
        <pt x="1435" y="217" on="1"/>
        <pt x="1813" y="217" on="1"/>
        <pt x="1813" y="678" on="1"/>
        <pt x="1813" y="855" on="0"/>
        <pt x="1904" y="1062" on="0"/>
        <pt x="2093" y="1174" on="0"/>
        <pt x="2232" y="1174" on="1"/>
        <pt x="2361" y="1174" on="0"/>
        <pt x="2521" y="1092" on="0"/>
        <pt x="2586" y="998" on="1"/>
        <pt x="2665" y="1092" on="0"/>
        <pt x="2847" y="1174" on="0"/>
        <pt x="2973" y="1174" on="1"/>
        <pt x="3239" y="1174" on="0"/>
        <pt x="3530" y="817" on="0"/>
        <pt x="3530" y="489" on="1"/>
        <pt x="3530" y="299" on="0"/>
        <pt x="3452" y="15" on="0"/>
        <pt x="3298" y="-180" on="0"/>
        <pt x="3079" y="-294" on="0"/>
        <pt x="2788" y="-344" on="0"/>
        <pt x="2571" y="-344" on="1"/>
        <pt x="715" y="-344" on="1"/>
        <pt x="577" y="-344" on="0"/>
        <pt x="459" y="-375" on="0"/>
        <pt x="385" y="-463" on="0"/>
        <pt x="385" y="-557" on="1"/>
        <pt x="385" y="-620" on="0"/>
        <pt x="390" y="-644" on="1"/>
      </contour>
      <contour>
        <pt x="362" y="441" on="1"/>
        <pt x="369" y="317" on="0"/>
        <pt x="474" y="184" on="0"/>
        <pt x="562" y="184" on="1"/>
        <pt x="625" y="184" on="0"/>
        <pt x="699" y="269" on="0"/>
        <pt x="699" y="342" on="1"/>
        <pt x="699" y="417" on="0"/>
        <pt x="610" y="506" on="0"/>
        <pt x="539" y="506" on="1"/>
        <pt x="451" y="506" on="0"/>
      </contour>
    </TTGlyph>
    <TTGlyph name="hundredtamil" xMin="164" yMin="0" xMax="1966" yMax="1175">
      <contour>
        <pt x="758" y="883" on="1"/>
        <pt x="695" y="958" on="0"/>
        <pt x="614" y="958" on="1"/>
        <pt x="555" y="958" on="0"/>
        <pt x="489" y="901" on="0"/>
        <pt x="466" y="806" on="0"/>
        <pt x="466" y="700" on="1"/>
        <pt x="466" y="0" on="1"/>
        <pt x="164" y="0" on="1"/>
        <pt x="164" y="737" on="1"/>
        <pt x="164" y="884" on="0"/>
        <pt x="232" y="1064" on="0"/>
        <pt x="385" y="1175" on="0"/>
        <pt x="524" y="1175" on="1"/>
        <pt x="656" y="1175" on="0"/>
        <pt x="758" y="1094" on="1"/>
        <pt x="758" y="1150" on="1"/>
        <pt x="1966" y="1150" on="1"/>
        <pt x="1966" y="933" on="1"/>
        <pt x="1670" y="933" on="1"/>
        <pt x="1670" y="0" on="1"/>
        <pt x="1368" y="0" on="1"/>
        <pt x="1368" y="933" on="1"/>
        <pt x="1060" y="933" on="1"/>
        <pt x="1060" y="0" on="1"/>
        <pt x="758" y="0" on="1"/>
      </contour>
    </TTGlyph>
    <TTGlyph name="hyphen.tamil" xMin="61" yMin="0" xMax="598" yMax="1150">
      <contour>
        <pt x="61" y="424" on="1"/>
        <pt x="61" y="674" on="1"/>
        <pt x="598" y="674" on="1"/>
        <pt x="598" y="424" on="1"/>
      </contour>
      <contour>
        <pt x="290" y="0" on="1"/>
      </contour>
      <contour>
        <pt x="296" y="1150" on="1"/>
      </contour>
    </TTGlyph>
    <TTGlyph name="iitamil" xMin="164" yMin="0" xMax="1692" yMax="1150">
      <contour>
        <pt x="164" y="1150" on="1"/>
        <pt x="1692" y="1150" on="1"/>
        <pt x="1692" y="933" on="1"/>
        <pt x="1240" y="933" on="1"/>
        <pt x="1240" y="0" on="1"/>
        <pt x="938" y="0" on="1"/>
        <pt x="938" y="933" on="1"/>
        <pt x="466" y="933" on="1"/>
        <pt x="466" y="0" on="1"/>
        <pt x="164" y="0" on="1"/>
      </contour>
      <contour>
        <pt x="858" y="561" on="1"/>
        <pt x="858" y="493" on="0"/>
        <pt x="769" y="404" on="0"/>
        <pt x="702" y="404" on="1"/>
        <pt x="635" y="404" on="0"/>
        <pt x="546" y="493" on="0"/>
        <pt x="546" y="561" on="1"/>
        <pt x="546" y="627" on="0"/>
        <pt x="635" y="716" on="0"/>
        <pt x="702" y="716" on="1"/>
        <pt x="769" y="716" on="0"/>
        <pt x="858" y="628" on="0"/>
      </contour>
      <contour>
        <pt x="1632" y="561" on="1"/>
        <pt x="1632" y="493" on="0"/>
        <pt x="1543" y="404" on="0"/>
        <pt x="1476" y="404" on="1"/>
        <pt x="1409" y="404" on="0"/>
        <pt x="1320" y="493" on="0"/>
        <pt x="1320" y="561" on="1"/>
        <pt x="1320" y="627" on="0"/>
        <pt x="1409" y="716" on="0"/>
        <pt x="1476" y="716" on="1"/>
        <pt x="1543" y="716" on="0"/>
        <pt x="1632" y="628" on="0"/>
      </contour>
    </TTGlyph>
    <TTGlyph name="iivowelsigntamil" xMin="-998" yMin="1056" xMax="17" yMax="1742">
      <contour>
        <pt x="-950" y="1056" on="1"/>
        <pt x="-998" y="1154" on="0"/>
        <pt x="-998" y="1288" on="1"/>
        <pt x="-998" y="1415" on="0"/>
        <pt x="-855" y="1626" on="0"/>
        <pt x="-586" y="1742" on="0"/>
        <pt x="-401" y="1742" on="1"/>
        <pt x="-197" y="1742" on="0"/>
        <pt x="17" y="1593" on="0"/>
        <pt x="17" y="1454" on="1"/>
        <pt x="17" y="1328" on="0"/>
        <pt x="-154" y="1187" on="0"/>
        <pt x="-312" y="1187" on="1"/>
        <pt x="-473" y="1187" on="0"/>
        <pt x="-639" y="1322" on="0"/>
        <pt x="-639" y="1449" on="1"/>
        <pt x="-639" y="1463" on="0"/>
        <pt x="-635" y="1491" on="1"/>
        <pt x="-693" y="1454" on="0"/>
        <pt x="-753" y="1339" on="0"/>
        <pt x="-753" y="1269" on="1"/>
        <pt x="-753" y="1186" on="0"/>
        <pt x="-713" y="1097" on="1"/>
      </contour>
      <contour>
        <pt x="-413" y="1550" on="1"/>
        <pt x="-435" y="1507" on="0"/>
        <pt x="-435" y="1460" on="1"/>
        <pt x="-435" y="1409" on="0"/>
        <pt x="-382" y="1358" on="0"/>
        <pt x="-324" y="1358" on="1"/>
        <pt x="-276" y="1358" on="0"/>
        <pt x="-222" y="1409" on="0"/>
        <pt x="-222" y="1453" on="1"/>
        <pt x="-222" y="1502" on="0"/>
        <pt x="-303" y="1550" on="0"/>
        <pt x="-393" y="1550" on="1"/>
      </contour>
      <contour>
        <pt x="-316" y="1150" on="1"/>
      </contour>
    </TTGlyph>
    <TTGlyph name="itamil" xMin="61" yMin="-658" xMax="2364" yMax="1742">
      <contour>
        <pt x="291" y="147" on="1"/>
        <pt x="220" y="282" on="0"/>
        <pt x="151" y="577" on="0"/>
        <pt x="151" y="765" on="1"/>
        <pt x="151" y="1048" on="0"/>
        <pt x="425" y="1501" on="0"/>
        <pt x="932" y="1742" on="0"/>
        <pt x="1277" y="1742" on="1"/>
        <pt x="1557" y="1742" on="0"/>
        <pt x="1970" y="1608" on="0"/>
        <pt x="2245" y="1324" on="0"/>
        <pt x="2364" y="921" on="0"/>
        <pt x="2364" y="587" on="1"/>
        <pt x="2364" y="0" on="1"/>
        <pt x="2062" y="0" on="1"/>
        <pt x="2062" y="537" on="1"/>
        <pt x="2062" y="940" on="0"/>
        <pt x="1888" y="1324" on="0"/>
        <pt x="1551" y="1520" on="0"/>
        <pt x="1273" y="1520" on="1"/>
        <pt x="1031" y="1520" on="0"/>
        <pt x="646" y="1330" on="0"/>
        <pt x="437" y="975" on="0"/>
        <pt x="437" y="739" on="1"/>
        <pt x="437" y="584" on="0"/>
        <pt x="486" y="364" on="0"/>
        <pt x="531" y="266" on="1"/>
        <pt x="761" y="343" on="0"/>
        <pt x="1053" y="343" on="1"/>
        <pt x="1282" y="343" on="0"/>
        <pt x="1491" y="288" on="1"/>
        <pt x="1514" y="395" on="0"/>
        <pt x="1514" y="513" on="1"/>
        <pt x="1514" y="626" on="0"/>
        <pt x="1455" y="814" on="0"/>
        <pt x="1397" y="878" on="1"/>
        <pt x="1408" y="843" on="0"/>
        <pt x="1408" y="808" on="1"/>
        <pt x="1408" y="659" on="0"/>
        <pt x="1203" y="468" on="0"/>
        <pt x="1019" y="468" on="1"/>
        <pt x="852" y="468" on="0"/>
        <pt x="638" y="652" on="0"/>
        <pt x="638" y="808" on="1"/>
        <pt x="638" y="981" on="0"/>
        <pt x="905" y="1174" on="0"/>
        <pt x="1130" y="1174" on="1"/>
        <pt x="1447" y="1174" on="0"/>
        <pt x="1799" y="823" on="0"/>
        <pt x="1799" y="518" on="1"/>
        <pt x="1799" y="335" on="0"/>
        <pt x="1754" y="185" on="1"/>
        <pt x="1901" y="103" on="0"/>
        <pt x="2049" y="-120" on="0"/>
        <pt x="2049" y="-262" on="1"/>
        <pt x="2049" y="-453" on="0"/>
        <pt x="1777" y="-658" on="0"/>
        <pt x="1514" y="-658" on="1"/>
        <pt x="1398" y="-658" on="0"/>
        <pt x="1170" y="-612" on="0"/>
        <pt x="1057" y="-567" on="1"/>
        <pt x="939" y="-612" on="0"/>
        <pt x="701" y="-658" on="0"/>
        <pt x="580" y="-658" on="1"/>
        <pt x="330" y="-658" on="0"/>
        <pt x="61" y="-449" on="0"/>
        <pt x="61" y="-262" on="1"/>
        <pt x="61" y="-142" on="0"/>
        <pt x="177" y="67" on="0"/>
      </contour>
      <contour>
        <pt x="1137" y="969" on="1"/>
        <pt x="1116" y="969" on="1"/>
        <pt x="1009" y="969" on="0"/>
        <pt x="907" y="894" on="0"/>
        <pt x="907" y="817" on="1"/>
        <pt x="907" y="752" on="0"/>
        <pt x="979" y="676" on="0"/>
        <pt x="1041" y="676" on="1"/>
        <pt x="1170" y="676" on="0"/>
        <pt x="1170" y="833" on="1"/>
        <pt x="1170" y="898" on="0"/>
      </contour>
      <contour>
        <pt x="1050" y="-324" on="1"/>
        <pt x="1176" y="-252" on="0"/>
        <pt x="1363" y="-49" on="0"/>
        <pt x="1424" y="82" on="1"/>
        <pt x="1255" y="127" on="0"/>
        <pt x="1058" y="127" on="1"/>
        <pt x="818" y="127" on="0"/>
        <pt x="636" y="72" on="1"/>
        <pt x="720" y="-60" on="0"/>
        <pt x="927" y="-258" on="0"/>
      </contour>
      <contour>
        <pt x="1671" y="-30" on="1"/>
        <pt x="1609" y="-153" on="0"/>
        <pt x="1440" y="-350" on="0"/>
        <pt x="1333" y="-425" on="1"/>
        <pt x="1425" y="-441" on="0"/>
        <pt x="1508" y="-441" on="1"/>
        <pt x="1640" y="-441" on="0"/>
        <pt x="1777" y="-335" on="0"/>
        <pt x="1777" y="-234" on="1"/>
        <pt x="1777" y="-175" on="0"/>
        <pt x="1724" y="-73" on="0"/>
      </contour>
      <contour>
        <pt x="784" y="-423" on="1"/>
        <pt x="675" y="-352" on="0"/>
        <pt x="489" y="-166" on="0"/>
        <pt x="411" y="-51" on="1"/>
        <pt x="332" y="-130" on="0"/>
        <pt x="332" y="-232" on="1"/>
        <pt x="332" y="-334" on="0"/>
        <pt x="466" y="-441" on="0"/>
        <pt x="600" y="-441" on="1"/>
        <pt x="694" y="-441" on="0"/>
      </contour>
    </TTGlyph>
    <TTGlyph name="ivowelsign1tamil" xMin="-801" yMin="0" xMax="466" yMax="1742">
      <contour>
        <pt x="-742" y="1054" on="1"/>
        <pt x="-770" y="1107" on="0"/>
        <pt x="-801" y="1241" on="0"/>
        <pt x="-801" y="1303" on="1"/>
        <pt x="-801" y="1438" on="0"/>
        <pt x="-657" y="1637" on="0"/>
        <pt x="-391" y="1742" on="0"/>
        <pt x="-226" y="1742" on="1"/>
        <pt x="31" y="1742" on="0"/>
        <pt x="332" y="1565" on="0"/>
        <pt x="466" y="1267" on="0"/>
        <pt x="466" y="990" on="1"/>
        <pt x="466" y="0" on="1"/>
        <pt x="164" y="0" on="1"/>
        <pt x="164" y="886" on="1"/>
        <pt x="164" y="1116" on="0"/>
        <pt x="118" y="1325" on="0"/>
        <pt x="26" y="1452" on="0"/>
        <pt x="-110" y="1524" on="0"/>
        <pt x="-231" y="1524" on="1"/>
        <pt x="-366" y="1524" on="0"/>
        <pt x="-514" y="1400" on="0"/>
        <pt x="-514" y="1304" on="1"/>
        <pt x="-514" y="1182" on="0"/>
        <pt x="-439" y="1054" on="1"/>
      </contour>
      <contour>
        <pt x="-336" y="1150" on="1"/>
      </contour>
    </TTGlyph>
    <TTGlyph name="ivowelsign2tamil" xMin="-1020" yMin="0" xMax="466" yMax="1742">
      <contour>
        <pt x="-967" y="1048" on="1"/>
        <pt x="-1020" y="1152" on="0"/>
        <pt x="-1020" y="1292" on="1"/>
        <pt x="-1020" y="1505" on="0"/>
        <pt x="-668" y="1742" on="0"/>
        <pt x="-368" y="1742" on="1"/>
        <pt x="-159" y="1742" on="0"/>
        <pt x="125" y="1653" on="0"/>
        <pt x="355" y="1463" on="0"/>
        <pt x="466" y="1159" on="0"/>
        <pt x="466" y="933" on="1"/>
        <pt x="466" y="0" on="1"/>
        <pt x="164" y="0" on="1"/>
        <pt x="164" y="858" on="1"/>
        <pt x="164" y="1113" on="0"/>
        <pt x="64" y="1375" on="0"/>
        <pt x="-171" y="1519" on="0"/>
        <pt x="-356" y="1519" on="1"/>
        <pt x="-545" y="1519" on="0"/>
        <pt x="-734" y="1385" on="0"/>
        <pt x="-734" y="1252" on="1"/>
        <pt x="-734" y="1142" on="0"/>
        <pt x="-680" y="1048" on="1"/>
      </contour>
      <contour>
        <pt x="-336" y="1150" on="1"/>
      </contour>
    </TTGlyph>
    <TTGlyph name="ivowelsign3tamil" xMin="-863" yMin="0" xMax="466" yMax="1742">
      <contour>
        <pt x="-321" y="742" on="1"/>
        <pt x="-566" y="763" on="0"/>
        <pt x="-863" y="1051" on="0"/>
        <pt x="-863" y="1264" on="1"/>
        <pt x="-863" y="1476" on="0"/>
        <pt x="-534" y="1742" on="0"/>
        <pt x="-248" y="1742" on="1"/>
        <pt x="-22" y="1742" on="0"/>
        <pt x="303" y="1569" on="0"/>
        <pt x="466" y="1257" on="0"/>
        <pt x="466" y="955" on="1"/>
        <pt x="466" y="0" on="1"/>
        <pt x="164" y="0" on="1"/>
        <pt x="164" y="865" on="1"/>
        <pt x="164" y="1071" on="0"/>
        <pt x="117" y="1303" on="0"/>
        <pt x="0" y="1454" on="0"/>
        <pt x="-165" y="1519" on="0"/>
        <pt x="-268" y="1519" on="1"/>
        <pt x="-422" y="1519" on="0"/>
        <pt x="-585" y="1368" on="0"/>
        <pt x="-585" y="1259" on="1"/>
        <pt x="-585" y="1150" on="0"/>
        <pt x="-444" y="990" on="0"/>
        <pt x="-321" y="965" on="1"/>
      </contour>
      <contour>
        <pt x="-336" y="1150" on="1"/>
      </contour>
    </TTGlyph>
    <TTGlyph name="ivowelsign4tamil" xMin="-1045" yMin="0" xMax="466" yMax="1742">
      <contour>
        <pt x="-992" y="1048" on="1"/>
        <pt x="-1045" y="1152" on="0"/>
        <pt x="-1045" y="1292" on="1"/>
        <pt x="-1045" y="1507" on="0"/>
        <pt x="-685" y="1742" on="0"/>
        <pt x="-368" y="1742" on="1"/>
        <pt x="-159" y="1742" on="0"/>
        <pt x="125" y="1653" on="0"/>
        <pt x="355" y="1463" on="0"/>
        <pt x="466" y="1159" on="0"/>
        <pt x="466" y="933" on="1"/>
        <pt x="466" y="0" on="1"/>
        <pt x="164" y="0" on="1"/>
        <pt x="164" y="858" on="1"/>
        <pt x="164" y="1113" on="0"/>
        <pt x="64" y="1375" on="0"/>
        <pt x="-171" y="1519" on="0"/>
        <pt x="-356" y="1519" on="1"/>
        <pt x="-557" y="1519" on="0"/>
        <pt x="-759" y="1385" on="0"/>
        <pt x="-759" y="1252" on="1"/>
        <pt x="-759" y="1141" on="0"/>
        <pt x="-701" y="1048" on="1"/>
      </contour>
      <contour>
        <pt x="-336" y="1150" on="1"/>
      </contour>
    </TTGlyph>
    <TTGlyph name="ivowelsigntamil" xMin="-687" yMin="0" xMax="466" yMax="1742">
      <contour>
        <pt x="-628" y="1054" on="1"/>
        <pt x="-656" y="1107" on="0"/>
        <pt x="-687" y="1241" on="0"/>
        <pt x="-687" y="1303" on="1"/>
        <pt x="-687" y="1438" on="0"/>
        <pt x="-553" y="1637" on="0"/>
        <pt x="-311" y="1742" on="0"/>
        <pt x="-166" y="1742" on="1"/>
        <pt x="36" y="1742" on="0"/>
        <pt x="322" y="1592" on="0"/>
        <pt x="466" y="1283" on="0"/>
        <pt x="466" y="1009" on="1"/>
        <pt x="466" y="0" on="1"/>
        <pt x="164" y="0" on="1"/>
        <pt x="164" y="880" on="1"/>
        <pt x="164" y="1165" on="0"/>
        <pt x="98" y="1402" on="0"/>
        <pt x="-52" y="1529" on="0"/>
        <pt x="-160" y="1529" on="1"/>
        <pt x="-275" y="1529" on="0"/>
        <pt x="-400" y="1406" on="0"/>
        <pt x="-400" y="1307" on="1"/>
        <pt x="-400" y="1182" on="0"/>
        <pt x="-330" y="1054" on="1"/>
      </contour>
      <contour>
        <pt x="-336" y="1150" on="1"/>
      </contour>
    </TTGlyph>
    <TTGlyph name="japrehalftamil" xMin="105" yMin="-658" xMax="2202" yMax="1742">
      <component glyphName="jatamil" x="0" y="0" flags="0x204"/>
      <component glyphName="viramatamil" x="1723" y="0" flags="0x4"/>
    </TTGlyph>
    <TTGlyph name="jatamil" xMin="105" yMin="-658" xMax="2202" yMax="1174">
      <contour>
        <pt x="666" y="-658" on="1"/>
        <pt x="393" y="-658" on="0"/>
        <pt x="105" y="-410" on="0"/>
        <pt x="105" y="-190" on="1"/>
        <pt x="105" y="-37" on="0"/>
        <pt x="250" y="181" on="0"/>
        <pt x="555" y="311" on="0"/>
        <pt x="843" y="311" on="1"/>
        <pt x="1262" y="311" on="1"/>
        <pt x="1422" y="311" on="0"/>
        <pt x="1597" y="329" on="0"/>
        <pt x="1740" y="372" on="0"/>
        <pt x="1847" y="454" on="0"/>
        <pt x="1900" y="576" on="0"/>
        <pt x="1900" y="660" on="1"/>
        <pt x="1900" y="800" on="0"/>
        <pt x="1755" y="957" on="0"/>
        <pt x="1634" y="957" on="1"/>
        <pt x="1549" y="957" on="0"/>
        <pt x="1440" y="872" on="0"/>
        <pt x="1401" y="732" on="0"/>
        <pt x="1401" y="602" on="1"/>
        <pt x="1401" y="433" on="1"/>
        <pt x="1099" y="433" on="1"/>
        <pt x="1099" y="549" on="1"/>
        <pt x="1099" y="709" on="0"/>
        <pt x="1025" y="882" on="0"/>
        <pt x="858" y="971" on="0"/>
        <pt x="720" y="972" on="1"/>
        <pt x="812" y="933" on="0"/>
        <pt x="912" y="784" on="0"/>
        <pt x="912" y="687" on="1"/>
        <pt x="912" y="531" on="0"/>
        <pt x="697" y="353" on="0"/>
        <pt x="503" y="353" on="1"/>
        <pt x="382" y="353" on="0"/>
        <pt x="202" y="440" on="0"/>
        <pt x="105" y="601" on="0"/>
        <pt x="105" y="696" on="1"/>
        <pt x="105" y="918" on="0"/>
        <pt x="450" y="1174" on="0"/>
        <pt x="737" y="1174" on="1"/>
        <pt x="903" y="1174" on="0"/>
        <pt x="1137" y="1088" on="0"/>
        <pt x="1238" y="975" on="1"/>
        <pt x="1307" y="1074" on="0"/>
        <pt x="1516" y="1174" on="0"/>
        <pt x="1655" y="1174" on="1"/>
        <pt x="1819" y="1174" on="0"/>
        <pt x="2066" y="1055" on="0"/>
        <pt x="2202" y="823" on="0"/>
        <pt x="2202" y="673" on="1"/>
        <pt x="2202" y="480" on="0"/>
        <pt x="2030" y="224" on="0"/>
        <pt x="1664" y="94" on="0"/>
        <pt x="1331" y="94" on="1"/>
        <pt x="855" y="94" on="1"/>
        <pt x="726" y="94" on="0"/>
        <pt x="571" y="63" on="0"/>
        <pt x="457" y="-9" on="0"/>
        <pt x="407" y="-111" on="0"/>
        <pt x="407" y="-178" on="1"/>
        <pt x="407" y="-301" on="0"/>
        <pt x="558" y="-440" on="0"/>
        <pt x="693" y="-440" on="1"/>
        <pt x="787" y="-440" on="0"/>
        <pt x="989" y="-335" on="0"/>
        <pt x="1088" y="-236" on="1"/>
        <pt x="1251" y="-73" on="0"/>
        <pt x="1516" y="49" on="0"/>
        <pt x="1729" y="49" on="1"/>
        <pt x="1858" y="49" on="0"/>
        <pt x="2062" y="-46" on="0"/>
        <pt x="2175" y="-219" on="0"/>
        <pt x="2175" y="-325" on="1"/>
        <pt x="2175" y="-478" on="0"/>
        <pt x="1964" y="-658" on="0"/>
        <pt x="1774" y="-658" on="1"/>
        <pt x="1578" y="-658" on="0"/>
        <pt x="1378" y="-488" on="0"/>
        <pt x="1378" y="-344" on="1"/>
        <pt x="1378" y="-310" on="0"/>
        <pt x="1385" y="-284" on="1"/>
        <pt x="1350" y="-313" on="0"/>
        <pt x="1299" y="-368" on="1"/>
        <pt x="1144" y="-530" on="0"/>
        <pt x="858" y="-658" on="0"/>
      </contour>
      <contour>
        <pt x="447" y="891" on="1"/>
        <pt x="365" y="822" on="0"/>
        <pt x="365" y="706" on="1"/>
        <pt x="365" y="637" on="0"/>
        <pt x="441" y="558" on="0"/>
        <pt x="512" y="558" on="1"/>
        <pt x="580" y="558" on="0"/>
        <pt x="657" y="629" on="0"/>
        <pt x="657" y="690" on="1"/>
        <pt x="657" y="774" on="0"/>
        <pt x="549" y="878" on="0"/>
      </contour>
      <contour>
        <pt x="1681" y="-157" on="1"/>
        <pt x="1616" y="-237" on="0"/>
        <pt x="1616" y="-311" on="1"/>
        <pt x="1616" y="-376" on="0"/>
        <pt x="1694" y="-450" on="0"/>
        <pt x="1764" y="-450" on="1"/>
        <pt x="1835" y="-450" on="0"/>
        <pt x="1915" y="-372" on="0"/>
        <pt x="1915" y="-310" on="1"/>
        <pt x="1915" y="-237" on="0"/>
        <pt x="1803" y="-157" on="0"/>
        <pt x="1698" y="-157" on="1"/>
      </contour>
    </TTGlyph>
    <TTGlyph name="kaprehalftamil" xMin="88" yMin="-24" xMax="1785" yMax="1742">
      <component glyphName="katamil" x="0" y="0" flags="0x204"/>
      <component glyphName="viramatamil" x="1551" y="0" flags="0x4"/>
    </TTGlyph>
    <TTGlyph name="katamil" xMin="88" yMin="-24" xMax="1785" yMax="1150">
      <contour>
        <pt x="1170" y="507" on="1"/>
        <pt x="1170" y="492" on="1"/>
        <pt x="1170" y="343" on="0"/>
        <pt x="1107" y="161" on="0"/>
        <pt x="970" y="36" on="0"/>
        <pt x="755" y="-24" on="0"/>
        <pt x="602" y="-24" on="1"/>
        <pt x="368" y="-24" on="0"/>
        <pt x="88" y="169" on="0"/>
        <pt x="88" y="337" on="1"/>
        <pt x="88" y="440" on="0"/>
        <pt x="192" y="590" on="0"/>
        <pt x="296" y="637" on="1"/>
        <pt x="296" y="1150" on="1"/>
        <pt x="1559" y="1150" on="1"/>
        <pt x="1559" y="933" on="1"/>
        <pt x="1170" y="933" on="1"/>
        <pt x="1170" y="711" on="1"/>
        <pt x="1172" y="711" on="1"/>
        <pt x="1340" y="711" on="0"/>
        <pt x="1547" y="673" on="0"/>
        <pt x="1707" y="573" on="0"/>
        <pt x="1785" y="425" on="0"/>
        <pt x="1785" y="330" on="1"/>
        <pt x="1785" y="163" on="0"/>
        <pt x="1573" y="-24" on="0"/>
        <pt x="1382" y="-24" on="1"/>
        <pt x="1243" y="-24" on="0"/>
        <pt x="1155" y="-1" on="1"/>
        <pt x="1204" y="210" on="1"/>
        <pt x="1258" y="197" on="0"/>
        <pt x="1324" y="197" on="1"/>
        <pt x="1499" y="197" on="0"/>
        <pt x="1499" y="345" on="1"/>
        <pt x="1499" y="426" on="0"/>
        <pt x="1352" y="506" on="0"/>
      </contour>
      <contour>
        <pt x="566" y="702" on="1"/>
        <pt x="659" y="711" on="0"/>
        <pt x="748" y="711" on="1"/>
        <pt x="878" y="711" on="1"/>
        <pt x="878" y="933" on="1"/>
        <pt x="566" y="933" on="1"/>
      </contour>
      <contour>
        <pt x="878" y="507" on="1"/>
        <pt x="725" y="507" on="1"/>
        <pt x="545" y="507" on="0"/>
        <pt x="384" y="431" on="0"/>
        <pt x="384" y="340" on="1"/>
        <pt x="384" y="270" on="0"/>
        <pt x="513" y="193" on="0"/>
        <pt x="623" y="193" on="1"/>
        <pt x="762" y="193" on="0"/>
        <pt x="878" y="338" on="0"/>
        <pt x="878" y="487" on="1"/>
      </contour>
    </TTGlyph>
    <TTGlyph name="kauuvowelsigntamil" xMin="88" yMin="-24" xMax="3046" yMax="1150">
      <contour>
        <pt x="2366" y="140" on="1"/>
        <pt x="2400" y="189" on="0"/>
        <pt x="2449" y="363" on="0"/>
        <pt x="2449" y="437" on="1"/>
        <pt x="2449" y="590" on="0"/>
        <pt x="2260" y="765" on="0"/>
        <pt x="2102" y="765" on="1"/>
        <pt x="2022" y="765" on="0"/>
        <pt x="1896" y="733" on="0"/>
        <pt x="1850" y="702" on="1"/>
        <pt x="2035" y="672" on="0"/>
        <pt x="2233" y="470" on="0"/>
        <pt x="2233" y="312" on="1"/>
        <pt x="2233" y="160" on="0"/>
        <pt x="2036" y="-24" on="0"/>
        <pt x="1871" y="-24" on="1"/>
        <pt x="1686" y="-24" on="0"/>
        <pt x="1452" y="192" on="0"/>
        <pt x="1452" y="383" on="1"/>
        <pt x="1452" y="452" on="0"/>
        <pt x="1465" y="507" on="1"/>
        <pt x="1170" y="507" on="1"/>
        <pt x="1170" y="492" on="1"/>
        <pt x="1170" y="343" on="0"/>
        <pt x="1107" y="161" on="0"/>
        <pt x="970" y="36" on="0"/>
        <pt x="755" y="-24" on="0"/>
        <pt x="602" y="-24" on="1"/>
        <pt x="368" y="-24" on="0"/>
        <pt x="88" y="169" on="0"/>
        <pt x="88" y="337" on="1"/>
        <pt x="88" y="440" on="0"/>
        <pt x="192" y="590" on="0"/>
        <pt x="296" y="637" on="1"/>
        <pt x="296" y="1150" on="1"/>
        <pt x="1559" y="1150" on="1"/>
        <pt x="1559" y="933" on="1"/>
        <pt x="1170" y="933" on="1"/>
        <pt x="1170" y="711" on="1"/>
        <pt x="1551" y="711" on="1"/>
        <pt x="1641" y="841" on="0"/>
        <pt x="1945" y="982" on="0"/>
        <pt x="2133" y="982" on="1"/>
        <pt x="2430" y="982" on="0"/>
        <pt x="2734" y="715" on="0"/>
        <pt x="2734" y="486" on="1"/>
        <pt x="2734" y="409" on="0"/>
        <pt x="2705" y="264" on="0"/>
        <pt x="2680" y="217" on="1"/>
        <pt x="3046" y="217" on="1"/>
        <pt x="3046" y="0" on="1"/>
        <pt x="2380" y="0" on="1"/>
      </contour>
      <contour>
        <pt x="566" y="702" on="1"/>
        <pt x="659" y="711" on="0"/>
        <pt x="748" y="711" on="1"/>
        <pt x="878" y="711" on="1"/>
        <pt x="878" y="933" on="1"/>
        <pt x="566" y="933" on="1"/>
      </contour>
      <contour>
        <pt x="878" y="507" on="1"/>
        <pt x="725" y="507" on="1"/>
        <pt x="545" y="507" on="0"/>
        <pt x="384" y="431" on="0"/>
        <pt x="384" y="340" on="1"/>
        <pt x="384" y="270" on="0"/>
        <pt x="513" y="193" on="0"/>
        <pt x="623" y="193" on="1"/>
        <pt x="762" y="193" on="0"/>
        <pt x="878" y="338" on="0"/>
        <pt x="878" y="487" on="1"/>
      </contour>
      <contour>
        <pt x="1727" y="504" on="1"/>
        <pt x="1715" y="449" on="0"/>
        <pt x="1715" y="384" on="1"/>
        <pt x="1715" y="286" on="0"/>
        <pt x="1793" y="181" on="0"/>
        <pt x="1859" y="181" on="1"/>
        <pt x="1912" y="181" on="0"/>
        <pt x="1970" y="239" on="0"/>
        <pt x="1970" y="292" on="1"/>
        <pt x="1970" y="393" on="0"/>
        <pt x="1847" y="494" on="0"/>
      </contour>
    </TTGlyph>
    <TTGlyph name="kauvowelsigntamil" xMin="115" yMin="-658" xMax="2323" yMax="1174">
      <contour>
        <pt x="1709" y="488" on="1"/>
        <pt x="1708" y="340" on="0"/>
        <pt x="1644" y="158" on="0"/>
        <pt x="1507" y="35" on="0"/>
        <pt x="1292" y="-24" on="0"/>
        <pt x="1141" y="-24" on="1"/>
        <pt x="907" y="-24" on="0"/>
        <pt x="627" y="169" on="0"/>
        <pt x="627" y="337" on="1"/>
        <pt x="627" y="441" on="0"/>
        <pt x="731" y="591" on="0"/>
        <pt x="835" y="638" on="1"/>
        <pt x="835" y="1150" on="1"/>
        <pt x="2098" y="1150" on="1"/>
        <pt x="2098" y="933" on="1"/>
        <pt x="1709" y="933" on="1"/>
        <pt x="1709" y="704" on="1"/>
        <pt x="2011" y="673" on="0"/>
        <pt x="2323" y="352" on="0"/>
        <pt x="2323" y="104" on="1"/>
        <pt x="2323" y="-138" on="0"/>
        <pt x="2075" y="-479" on="0"/>
        <pt x="1599" y="-658" on="0"/>
        <pt x="1284" y="-658" on="1"/>
        <pt x="1231" y="-658" on="1"/>
        <pt x="873" y="-658" on="0"/>
        <pt x="372" y="-423" on="0"/>
        <pt x="115" y="15" on="0"/>
        <pt x="115" y="288" on="1"/>
        <pt x="115" y="332" on="1"/>
        <pt x="115" y="754" on="0"/>
        <pt x="390" y="1174" on="1"/>
        <pt x="625" y="1032" on="1"/>
        <pt x="517" y="871" on="0"/>
        <pt x="401" y="520" on="0"/>
        <pt x="401" y="359" on="1"/>
        <pt x="401" y="310" on="1"/>
        <pt x="401" y="-40" on="0"/>
        <pt x="831" y="-435" on="0"/>
        <pt x="1236" y="-435" on="1"/>
        <pt x="1250" y="-435" on="1"/>
        <pt x="1620" y="-435" on="0"/>
        <pt x="2015" y="-161" on="0"/>
        <pt x="2015" y="99" on="1"/>
        <pt x="2015" y="250" on="0"/>
        <pt x="1860" y="449" on="0"/>
      </contour>
      <contour>
        <pt x="1105" y="702" on="1"/>
        <pt x="1198" y="711" on="0"/>
        <pt x="1287" y="711" on="1"/>
        <pt x="1416" y="711" on="1"/>
        <pt x="1416" y="933" on="1"/>
        <pt x="1105" y="933" on="1"/>
      </contour>
      <contour>
        <pt x="1416" y="507" on="1"/>
        <pt x="1264" y="507" on="1"/>
        <pt x="1084" y="507" on="0"/>
        <pt x="923" y="431" on="0"/>
        <pt x="923" y="340" on="1"/>
        <pt x="923" y="269" on="0"/>
        <pt x="1053" y="193" on="0"/>
        <pt x="1163" y="193" on="1"/>
        <pt x="1300" y="193" on="0"/>
        <pt x="1416" y="337" on="0"/>
        <pt x="1416" y="487" on="1"/>
      </contour>
    </TTGlyph>
    <TTGlyph name="laiivowelsigntamil" xMin="95" yMin="-24" xMax="2304" yMax="1742">
      <contour>
        <pt x="390" y="662" on="1"/>
        <pt x="497" y="711" on="0"/>
        <pt x="615" y="711" on="1"/>
        <pt x="784" y="711" on="0"/>
        <pt x="982" y="521" on="0"/>
        <pt x="982" y="357" on="1"/>
        <pt x="982" y="176" on="0"/>
        <pt x="764" y="-24" on="0"/>
        <pt x="564" y="-24" on="1"/>
        <pt x="340" y="-24" on="0"/>
        <pt x="95" y="249" on="0"/>
        <pt x="95" y="507" on="1"/>
        <pt x="95" y="702" on="0"/>
        <pt x="280" y="1005" on="0"/>
        <pt x="623" y="1174" on="0"/>
        <pt x="833" y="1174" on="1"/>
        <pt x="968" y="1174" on="0"/>
        <pt x="1169" y="1122" on="0"/>
        <pt x="1325" y="1010" on="0"/>
        <pt x="1408" y="868" on="0"/>
        <pt x="1452" y="653" on="0"/>
        <pt x="1461" y="482" on="1"/>
        <pt x="1470" y="319" on="0"/>
        <pt x="1572" y="193" on="0"/>
        <pt x="1666" y="193" on="1"/>
        <pt x="1775" y="193" on="0"/>
        <pt x="1877" y="350" on="0"/>
        <pt x="1877" y="514" on="1"/>
        <pt x="1877" y="642" on="0"/>
        <pt x="1834" y="773" on="1"/>
        <pt x="1563" y="825" on="0"/>
        <pt x="1289" y="1082" on="0"/>
        <pt x="1289" y="1280" on="1"/>
        <pt x="1289" y="1411" on="0"/>
        <pt x="1427" y="1625" on="0"/>
        <pt x="1698" y="1742" on="0"/>
        <pt x="1886" y="1742" on="1"/>
        <pt x="2090" y="1742" on="0"/>
        <pt x="2304" y="1593" on="0"/>
        <pt x="2304" y="1454" on="1"/>
        <pt x="2304" y="1328" on="0"/>
        <pt x="2133" y="1187" on="0"/>
        <pt x="1975" y="1187" on="1"/>
        <pt x="1814" y="1187" on="0"/>
        <pt x="1648" y="1322" on="0"/>
        <pt x="1648" y="1449" on="1"/>
        <pt x="1648" y="1475" on="0"/>
        <pt x="1652" y="1493" on="1"/>
        <pt x="1534" y="1417" on="0"/>
        <pt x="1534" y="1271" on="1"/>
        <pt x="1534" y="1181" on="0"/>
        <pt x="1641" y="1057" on="0"/>
        <pt x="1749" y="1023" on="1"/>
        <pt x="1978" y="1150" on="1"/>
        <pt x="2179" y="863" on="0"/>
        <pt x="2179" y="527" on="1"/>
        <pt x="2179" y="266" on="0"/>
        <pt x="1909" y="-24" on="0"/>
        <pt x="1658" y="-24" on="1"/>
        <pt x="1415" y="-24" on="0"/>
        <pt x="1173" y="223" on="0"/>
        <pt x="1157" y="476" on="1"/>
        <pt x="1148" y="611" on="0"/>
        <pt x="1118" y="771" on="0"/>
        <pt x="1044" y="885" on="0"/>
        <pt x="911" y="952" on="0"/>
        <pt x="806" y="952" on="1"/>
        <pt x="655" y="952" on="0"/>
        <pt x="437" y="800" on="0"/>
      </contour>
      <contour>
        <pt x="1874" y="1550" on="1"/>
        <pt x="1852" y="1506" on="0"/>
        <pt x="1852" y="1460" on="1"/>
        <pt x="1852" y="1408" on="0"/>
        <pt x="1905" y="1358" on="0"/>
        <pt x="1963" y="1358" on="1"/>
        <pt x="2011" y="1358" on="0"/>
        <pt x="2065" y="1409" on="0"/>
        <pt x="2065" y="1453" on="1"/>
        <pt x="2065" y="1502" on="0"/>
        <pt x="1984" y="1550" on="0"/>
        <pt x="1894" y="1550" on="1"/>
      </contour>
      <contour>
        <pt x="362" y="440" on="1"/>
        <pt x="369" y="318" on="0"/>
        <pt x="474" y="184" on="0"/>
        <pt x="562" y="184" on="1"/>
        <pt x="625" y="184" on="0"/>
        <pt x="699" y="269" on="0"/>
        <pt x="699" y="342" on="1"/>
        <pt x="699" y="417" on="0"/>
        <pt x="610" y="506" on="0"/>
        <pt x="539" y="506" on="1"/>
        <pt x="452" y="506" on="0"/>
      </contour>
    </TTGlyph>
    <TTGlyph name="laivowelsigntamil" xMin="95" yMin="-24" xMax="2753" yMax="1742">
      <contour>
        <pt x="1808" y="1056" on="1"/>
        <pt x="1978" y="1150" on="1"/>
        <pt x="2179" y="863" on="0"/>
        <pt x="2179" y="527" on="1"/>
        <pt x="2179" y="266" on="0"/>
        <pt x="1909" y="-24" on="0"/>
        <pt x="1658" y="-24" on="1"/>
        <pt x="1415" y="-24" on="0"/>
        <pt x="1173" y="223" on="0"/>
        <pt x="1157" y="476" on="1"/>
        <pt x="1148" y="611" on="0"/>
        <pt x="1118" y="771" on="0"/>
        <pt x="1044" y="885" on="0"/>
        <pt x="911" y="952" on="0"/>
        <pt x="806" y="952" on="1"/>
        <pt x="655" y="952" on="0"/>
        <pt x="437" y="800" on="0"/>
        <pt x="390" y="662" on="1"/>
        <pt x="497" y="711" on="0"/>
        <pt x="615" y="711" on="1"/>
        <pt x="784" y="711" on="0"/>
        <pt x="982" y="521" on="0"/>
        <pt x="982" y="357" on="1"/>
        <pt x="982" y="176" on="0"/>
        <pt x="764" y="-24" on="0"/>
        <pt x="564" y="-24" on="1"/>
        <pt x="340" y="-24" on="0"/>
        <pt x="95" y="249" on="0"/>
        <pt x="95" y="507" on="1"/>
        <pt x="95" y="702" on="0"/>
        <pt x="280" y="1005" on="0"/>
        <pt x="623" y="1174" on="0"/>
        <pt x="833" y="1174" on="1"/>
        <pt x="968" y="1174" on="0"/>
        <pt x="1169" y="1122" on="0"/>
        <pt x="1325" y="1010" on="0"/>
        <pt x="1408" y="868" on="0"/>
        <pt x="1452" y="653" on="0"/>
        <pt x="1461" y="482" on="1"/>
        <pt x="1470" y="319" on="0"/>
        <pt x="1572" y="193" on="0"/>
        <pt x="1666" y="193" on="1"/>
        <pt x="1775" y="193" on="0"/>
        <pt x="1877" y="350" on="0"/>
        <pt x="1877" y="514" on="1"/>
        <pt x="1877" y="639" on="0"/>
        <pt x="1837" y="763" on="1"/>
        <pt x="1645" y="814" on="0"/>
        <pt x="1424" y="1083" on="0"/>
        <pt x="1424" y="1264" on="1"/>
        <pt x="1424" y="1476" on="0"/>
        <pt x="1753" y="1742" on="0"/>
        <pt x="2039" y="1742" on="1"/>
        <pt x="2265" y="1742" on="0"/>
        <pt x="2590" y="1569" on="0"/>
        <pt x="2753" y="1257" on="0"/>
        <pt x="2753" y="955" on="1"/>
        <pt x="2753" y="0" on="1"/>
        <pt x="2451" y="0" on="1"/>
        <pt x="2451" y="862" on="1"/>
        <pt x="2451" y="1069" on="0"/>
        <pt x="2404" y="1302" on="0"/>
        <pt x="2288" y="1453" on="0"/>
        <pt x="2122" y="1519" on="0"/>
        <pt x="2019" y="1519" on="1"/>
        <pt x="1865" y="1519" on="0"/>
        <pt x="1702" y="1368" on="0"/>
        <pt x="1702" y="1259" on="1"/>
        <pt x="1702" y="1116" on="0"/>
      </contour>
      <contour>
        <pt x="362" y="440" on="1"/>
        <pt x="369" y="318" on="0"/>
        <pt x="474" y="184" on="0"/>
        <pt x="562" y="184" on="1"/>
        <pt x="625" y="184" on="0"/>
        <pt x="699" y="269" on="0"/>
        <pt x="699" y="342" on="1"/>
        <pt x="699" y="417" on="0"/>
        <pt x="610" y="506" on="0"/>
        <pt x="539" y="506" on="1"/>
        <pt x="452" y="506" on="0"/>
      </contour>
    </TTGlyph>
    <TTGlyph name="laprehalftamil" xMin="95" yMin="-24" xMax="2179" yMax="1742">
      <component glyphName="latamil" x="0" y="0" flags="0x204"/>
      <component glyphName="viramatamil" x="1717" y="0" flags="0x4"/>
    </TTGlyph>
    <TTGlyph name="latamil" xMin="95" yMin="-24" xMax="2179" yMax="1250">
      <contour>
        <pt x="390" y="662" on="1"/>
        <pt x="497" y="711" on="0"/>
        <pt x="615" y="711" on="1"/>
        <pt x="784" y="711" on="0"/>
        <pt x="982" y="521" on="0"/>
        <pt x="982" y="357" on="1"/>
        <pt x="982" y="176" on="0"/>
        <pt x="764" y="-24" on="0"/>
        <pt x="564" y="-24" on="1"/>
        <pt x="340" y="-24" on="0"/>
        <pt x="95" y="249" on="0"/>
        <pt x="95" y="507" on="1"/>
        <pt x="95" y="702" on="0"/>
        <pt x="280" y="1005" on="0"/>
        <pt x="623" y="1174" on="0"/>
        <pt x="833" y="1174" on="1"/>
        <pt x="968" y="1174" on="0"/>
        <pt x="1169" y="1122" on="0"/>
        <pt x="1325" y="1010" on="0"/>
        <pt x="1408" y="868" on="0"/>
        <pt x="1452" y="653" on="0"/>
        <pt x="1461" y="482" on="1"/>
        <pt x="1470" y="319" on="0"/>
        <pt x="1572" y="193" on="0"/>
        <pt x="1666" y="193" on="1"/>
        <pt x="1775" y="193" on="0"/>
        <pt x="1877" y="350" on="0"/>
        <pt x="1877" y="514" on="1"/>
        <pt x="1877" y="656" on="0"/>
        <pt x="1761" y="968" on="0"/>
        <pt x="1654" y="1099" on="1"/>
        <pt x="1903" y="1250" on="1"/>
        <pt x="2179" y="916" on="0"/>
        <pt x="2179" y="527" on="1"/>
        <pt x="2179" y="266" on="0"/>
        <pt x="1909" y="-24" on="0"/>
        <pt x="1658" y="-24" on="1"/>
        <pt x="1415" y="-24" on="0"/>
        <pt x="1173" y="223" on="0"/>
        <pt x="1157" y="476" on="1"/>
        <pt x="1148" y="611" on="0"/>
        <pt x="1118" y="771" on="0"/>
        <pt x="1044" y="885" on="0"/>
        <pt x="911" y="952" on="0"/>
        <pt x="806" y="952" on="1"/>
        <pt x="655" y="952" on="0"/>
        <pt x="437" y="800" on="0"/>
      </contour>
      <contour>
        <pt x="362" y="440" on="1"/>
        <pt x="369" y="318" on="0"/>
        <pt x="474" y="184" on="0"/>
        <pt x="562" y="184" on="1"/>
        <pt x="625" y="184" on="0"/>
        <pt x="699" y="269" on="0"/>
        <pt x="699" y="342" on="1"/>
        <pt x="699" y="417" on="0"/>
        <pt x="610" y="506" on="0"/>
        <pt x="539" y="506" on="1"/>
        <pt x="452" y="506" on="0"/>
      </contour>
    </TTGlyph>
    <TTGlyph name="lauuvowelsigntamil" xMin="67" yMin="-658" xMax="3643" yMax="1250">
      <contour>
        <pt x="2747" y="-344" on="1"/>
        <pt x="1659" y="-344" on="1"/>
        <pt x="1514" y="-499" on="0"/>
        <pt x="1045" y="-658" on="0"/>
        <pt x="739" y="-658" on="1"/>
        <pt x="719" y="-658" on="1"/>
        <pt x="400" y="-658" on="0"/>
        <pt x="67" y="-487" on="0"/>
        <pt x="67" y="-322" on="1"/>
        <pt x="67" y="-249" on="0"/>
        <pt x="138" y="-162" on="0"/>
        <pt x="253" y="-127" on="0"/>
        <pt x="391" y="-127" on="1"/>
        <pt x="1464" y="-127" on="1"/>
        <pt x="1493" y="-66" on="0"/>
        <pt x="1506" y="-9" on="1"/>
        <pt x="1343" y="24" on="0"/>
        <pt x="1170" y="264" on="0"/>
        <pt x="1157" y="476" on="1"/>
        <pt x="1148" y="611" on="0"/>
        <pt x="1118" y="771" on="0"/>
        <pt x="1044" y="885" on="0"/>
        <pt x="911" y="952" on="0"/>
        <pt x="806" y="952" on="1"/>
        <pt x="655" y="952" on="0"/>
        <pt x="437" y="800" on="0"/>
        <pt x="390" y="662" on="1"/>
        <pt x="497" y="711" on="0"/>
        <pt x="615" y="711" on="1"/>
        <pt x="784" y="711" on="0"/>
        <pt x="982" y="521" on="0"/>
        <pt x="982" y="357" on="1"/>
        <pt x="982" y="176" on="0"/>
        <pt x="764" y="-24" on="0"/>
        <pt x="564" y="-24" on="1"/>
        <pt x="340" y="-24" on="0"/>
        <pt x="95" y="249" on="0"/>
        <pt x="95" y="507" on="1"/>
        <pt x="95" y="702" on="0"/>
        <pt x="280" y="1005" on="0"/>
        <pt x="623" y="1174" on="0"/>
        <pt x="833" y="1174" on="1"/>
        <pt x="968" y="1174" on="0"/>
        <pt x="1169" y="1122" on="0"/>
        <pt x="1325" y="1010" on="0"/>
        <pt x="1408" y="868" on="0"/>
        <pt x="1452" y="653" on="0"/>
        <pt x="1461" y="482" on="1"/>
        <pt x="1470" y="319" on="0"/>
        <pt x="1572" y="193" on="0"/>
        <pt x="1666" y="193" on="1"/>
        <pt x="1775" y="193" on="0"/>
        <pt x="1877" y="350" on="0"/>
        <pt x="1877" y="514" on="1"/>
        <pt x="1877" y="656" on="0"/>
        <pt x="1761" y="968" on="0"/>
        <pt x="1654" y="1099" on="1"/>
        <pt x="1903" y="1250" on="1"/>
        <pt x="2179" y="916" on="0"/>
        <pt x="2179" y="527" on="1"/>
        <pt x="2179" y="307" on="0"/>
        <pt x="1986" y="29" on="0"/>
        <pt x="1802" y="-10" on="1"/>
        <pt x="1789" y="-68" on="0"/>
        <pt x="1766" y="-127" on="1"/>
        <pt x="2445" y="-127" on="1"/>
        <pt x="2445" y="1150" on="1"/>
        <pt x="3643" y="1150" on="1"/>
        <pt x="3643" y="933" on="1"/>
        <pt x="3357" y="933" on="1"/>
        <pt x="3357" y="-345" on="1"/>
        <pt x="3055" y="-345" on="1"/>
        <pt x="3055" y="933" on="1"/>
        <pt x="2747" y="933" on="1"/>
      </contour>
      <contour>
        <pt x="362" y="440" on="1"/>
        <pt x="369" y="318" on="0"/>
        <pt x="474" y="184" on="0"/>
        <pt x="562" y="184" on="1"/>
        <pt x="625" y="184" on="0"/>
        <pt x="699" y="269" on="0"/>
        <pt x="699" y="342" on="1"/>
        <pt x="699" y="417" on="0"/>
        <pt x="610" y="506" on="0"/>
        <pt x="539" y="506" on="1"/>
        <pt x="452" y="506" on="0"/>
      </contour>
      <contour>
        <pt x="723" y="-455" on="1"/>
        <pt x="945" y="-455" on="0"/>
        <pt x="1254" y="-390" on="0"/>
        <pt x="1342" y="-326" on="1"/>
        <pt x="419" y="-326" on="1"/>
        <pt x="372" y="-326" on="0"/>
        <pt x="340" y="-342" on="0"/>
        <pt x="340" y="-360" on="1"/>
        <pt x="340" y="-405" on="0"/>
        <pt x="519" y="-455" on="0"/>
        <pt x="700" y="-455" on="1"/>
      </contour>
    </TTGlyph>
    <TTGlyph name="lauvowelsigntamil" xMin="67" yMin="-658" xMax="2747" yMax="1250">
      <contour>
        <pt x="2747" y="-344" on="1"/>
        <pt x="1659" y="-344" on="1"/>
        <pt x="1514" y="-499" on="0"/>
        <pt x="1045" y="-658" on="0"/>
        <pt x="739" y="-658" on="1"/>
        <pt x="719" y="-658" on="1"/>
        <pt x="400" y="-658" on="0"/>
        <pt x="67" y="-487" on="0"/>
        <pt x="67" y="-322" on="1"/>
        <pt x="67" y="-249" on="0"/>
        <pt x="138" y="-162" on="0"/>
        <pt x="253" y="-127" on="0"/>
        <pt x="391" y="-127" on="1"/>
        <pt x="1464" y="-127" on="1"/>
        <pt x="1493" y="-66" on="0"/>
        <pt x="1506" y="-9" on="1"/>
        <pt x="1343" y="24" on="0"/>
        <pt x="1170" y="264" on="0"/>
        <pt x="1157" y="476" on="1"/>
        <pt x="1148" y="611" on="0"/>
        <pt x="1118" y="771" on="0"/>
        <pt x="1044" y="885" on="0"/>
        <pt x="911" y="952" on="0"/>
        <pt x="806" y="952" on="1"/>
        <pt x="655" y="952" on="0"/>
        <pt x="437" y="800" on="0"/>
        <pt x="390" y="662" on="1"/>
        <pt x="497" y="711" on="0"/>
        <pt x="615" y="711" on="1"/>
        <pt x="784" y="711" on="0"/>
        <pt x="982" y="521" on="0"/>
        <pt x="982" y="357" on="1"/>
        <pt x="982" y="176" on="0"/>
        <pt x="764" y="-24" on="0"/>
        <pt x="564" y="-24" on="1"/>
        <pt x="340" y="-24" on="0"/>
        <pt x="95" y="249" on="0"/>
        <pt x="95" y="507" on="1"/>
        <pt x="95" y="702" on="0"/>
        <pt x="280" y="1005" on="0"/>
        <pt x="623" y="1174" on="0"/>
        <pt x="833" y="1174" on="1"/>
        <pt x="968" y="1174" on="0"/>
        <pt x="1169" y="1122" on="0"/>
        <pt x="1325" y="1010" on="0"/>
        <pt x="1408" y="868" on="0"/>
        <pt x="1452" y="653" on="0"/>
        <pt x="1461" y="482" on="1"/>
        <pt x="1470" y="319" on="0"/>
        <pt x="1572" y="193" on="0"/>
        <pt x="1666" y="193" on="1"/>
        <pt x="1775" y="193" on="0"/>
        <pt x="1877" y="350" on="0"/>
        <pt x="1877" y="514" on="1"/>
        <pt x="1877" y="656" on="0"/>
        <pt x="1761" y="968" on="0"/>
        <pt x="1654" y="1099" on="1"/>
        <pt x="1903" y="1250" on="1"/>
        <pt x="2179" y="916" on="0"/>
        <pt x="2179" y="527" on="1"/>
        <pt x="2179" y="307" on="0"/>
        <pt x="1986" y="29" on="0"/>
        <pt x="1802" y="-10" on="1"/>
        <pt x="1789" y="-68" on="0"/>
        <pt x="1766" y="-127" on="1"/>
        <pt x="2445" y="-127" on="1"/>
        <pt x="2445" y="1150" on="1"/>
        <pt x="2747" y="1150" on="1"/>
      </contour>
      <contour>
        <pt x="362" y="440" on="1"/>
        <pt x="369" y="318" on="0"/>
        <pt x="474" y="184" on="0"/>
        <pt x="562" y="184" on="1"/>
        <pt x="625" y="184" on="0"/>
        <pt x="699" y="269" on="0"/>
        <pt x="699" y="342" on="1"/>
        <pt x="699" y="417" on="0"/>
        <pt x="610" y="506" on="0"/>
        <pt x="539" y="506" on="1"/>
        <pt x="452" y="506" on="0"/>
      </contour>
      <contour>
        <pt x="723" y="-455" on="1"/>
        <pt x="945" y="-455" on="0"/>
        <pt x="1254" y="-390" on="0"/>
        <pt x="1342" y="-326" on="1"/>
        <pt x="419" y="-326" on="1"/>
        <pt x="372" y="-326" on="0"/>
        <pt x="340" y="-342" on="0"/>
        <pt x="340" y="-360" on="1"/>
        <pt x="340" y="-405" on="0"/>
        <pt x="519" y="-455" on="0"/>
        <pt x="700" y="-455" on="1"/>
      </contour>
    </TTGlyph>
    <TTGlyph name="less.tamil" xMin="88" yMin="0" xMax="1081" yMax="1460">
      <contour>
        <pt x="1081" y="203" on="1"/>
        <pt x="88" y="641" on="1"/>
        <pt x="88" y="784" on="1"/>
        <pt x="1081" y="1280" on="1"/>
        <pt x="1081" y="1040" on="1"/>
        <pt x="397" y="723" on="1"/>
        <pt x="1081" y="442" on="1"/>
      </contour>
      <contour>
        <pt x="597" y="0" on="1"/>
      </contour>
      <contour>
        <pt x="555" y="1460" on="1"/>
      </contour>
    </TTGlyph>
    <TTGlyph name="llaprehalftamil" xMin="95" yMin="-24" xMax="2373" yMax="1742">
      <component glyphName="llatamil" x="0" y="0" flags="0x204"/>
      <component glyphName="viramatamil" x="1774" y="0" flags="0x4"/>
    </TTGlyph>
    <TTGlyph name="llatamil" xMin="95" yMin="-24" xMax="2373" yMax="1174">
      <contour>
        <pt x="1165" y="786" on="1"/>
        <pt x="1007" y="952" on="0"/>
        <pt x="786" y="952" on="1"/>
        <pt x="647" y="952" on="0"/>
        <pt x="437" y="799" on="0"/>
        <pt x="391" y="663" on="1"/>
        <pt x="496" y="711" on="0"/>
        <pt x="615" y="711" on="1"/>
        <pt x="784" y="711" on="0"/>
        <pt x="982" y="521" on="0"/>
        <pt x="982" y="357" on="1"/>
        <pt x="982" y="176" on="0"/>
        <pt x="764" y="-24" on="0"/>
        <pt x="564" y="-24" on="1"/>
        <pt x="340" y="-24" on="0"/>
        <pt x="95" y="249" on="0"/>
        <pt x="95" y="507" on="1"/>
        <pt x="95" y="706" on="0"/>
        <pt x="276" y="1010" on="0"/>
        <pt x="601" y="1174" on="0"/>
        <pt x="800" y="1174" on="1"/>
        <pt x="918" y="1174" on="0"/>
        <pt x="1108" y="1122" on="0"/>
        <pt x="1208" y="1062" on="1"/>
        <pt x="1208" y="1150" on="1"/>
        <pt x="2373" y="1150" on="1"/>
        <pt x="2373" y="933" on="1"/>
        <pt x="2077" y="933" on="1"/>
        <pt x="2077" y="0" on="1"/>
        <pt x="1775" y="0" on="1"/>
        <pt x="1775" y="933" on="1"/>
        <pt x="1467" y="933" on="1"/>
        <pt x="1467" y="0" on="1"/>
        <pt x="1165" y="0" on="1"/>
      </contour>
      <contour>
        <pt x="362" y="441" on="1"/>
        <pt x="369" y="317" on="0"/>
        <pt x="474" y="184" on="0"/>
        <pt x="562" y="184" on="1"/>
        <pt x="625" y="184" on="0"/>
        <pt x="699" y="269" on="0"/>
        <pt x="699" y="342" on="1"/>
        <pt x="699" y="417" on="0"/>
        <pt x="610" y="506" on="0"/>
        <pt x="539" y="506" on="1"/>
        <pt x="451" y="506" on="0"/>
      </contour>
    </TTGlyph>
    <TTGlyph name="llauuvowelsigntamil" xMin="108" yMin="-658" xMax="3665" yMax="1174">
      <contour>
        <pt x="2107" y="797" on="1"/>
        <pt x="1951" y="952" on="0"/>
        <pt x="1739" y="952" on="1"/>
        <pt x="1600" y="952" on="0"/>
        <pt x="1390" y="799" on="0"/>
        <pt x="1344" y="663" on="1"/>
        <pt x="1449" y="711" on="0"/>
        <pt x="1568" y="711" on="1"/>
        <pt x="1737" y="711" on="0"/>
        <pt x="1935" y="521" on="0"/>
        <pt x="1935" y="357" on="1"/>
        <pt x="1935" y="176" on="0"/>
        <pt x="1717" y="-24" on="0"/>
        <pt x="1517" y="-24" on="1"/>
        <pt x="1293" y="-24" on="0"/>
        <pt x="1048" y="249" on="0"/>
        <pt x="1048" y="507" on="1"/>
        <pt x="1048" y="706" on="0"/>
        <pt x="1229" y="1010" on="0"/>
        <pt x="1554" y="1174" on="0"/>
        <pt x="1753" y="1174" on="1"/>
        <pt x="1860" y="1174" on="0"/>
        <pt x="2028" y="1135" on="0"/>
        <pt x="2107" y="1093" on="1"/>
        <pt x="2107" y="1150" on="1"/>
        <pt x="3315" y="1150" on="1"/>
        <pt x="3315" y="933" on="1"/>
        <pt x="3019" y="933" on="1"/>
        <pt x="3019" y="641" on="1"/>
        <pt x="3120" y="687" on="0"/>
        <pt x="3232" y="687" on="1"/>
        <pt x="3438" y="687" on="0"/>
        <pt x="3665" y="428" on="0"/>
        <pt x="3665" y="191" on="1"/>
        <pt x="3665" y="-18" on="0"/>
        <pt x="3470" y="-312" on="0"/>
        <pt x="3083" y="-542" on="0"/>
        <pt x="2489" y="-658" on="0"/>
        <pt x="2115" y="-658" on="1"/>
        <pt x="1872" y="-658" on="1"/>
        <pt x="1317" y="-658" on="0"/>
        <pt x="518" y="-398" on="0"/>
        <pt x="108" y="119" on="0"/>
        <pt x="108" y="493" on="1"/>
        <pt x="108" y="809" on="0"/>
        <pt x="394" y="1174" on="0"/>
        <pt x="647" y="1174" on="1"/>
        <pt x="816" y="1174" on="0"/>
        <pt x="1003" y="984" on="0"/>
        <pt x="1003" y="813" on="1"/>
        <pt x="1003" y="655" on="0"/>
        <pt x="807" y="474" on="0"/>
        <pt x="623" y="474" on="1"/>
        <pt x="490" y="474" on="0"/>
        <pt x="390" y="534" on="1"/>
        <pt x="389" y="501" on="1"/>
        <pt x="380" y="208" on="0"/>
        <pt x="730" y="-220" on="0"/>
        <pt x="1419" y="-435" on="0"/>
        <pt x="1886" y="-435" on="1"/>
        <pt x="2047" y="-435" on="1"/>
        <pt x="2405" y="-435" on="0"/>
        <pt x="2931" y="-330" on="0"/>
        <pt x="3238" y="-142" on="0"/>
        <pt x="3363" y="71" on="0"/>
        <pt x="3363" y="204" on="1"/>
        <pt x="3363" y="327" on="0"/>
        <pt x="3255" y="470" on="0"/>
        <pt x="3158" y="470" on="1"/>
        <pt x="3086" y="470" on="0"/>
        <pt x="3019" y="429" on="1"/>
        <pt x="3019" y="0" on="1"/>
        <pt x="2717" y="0" on="1"/>
        <pt x="2717" y="933" on="1"/>
        <pt x="2409" y="933" on="1"/>
        <pt x="2409" y="0" on="1"/>
        <pt x="2107" y="0" on="1"/>
      </contour>
      <contour>
        <pt x="422" y="757" on="1"/>
        <pt x="499" y="692" on="0"/>
        <pt x="589" y="692" on="1"/>
        <pt x="655" y="692" on="0"/>
        <pt x="738" y="766" on="0"/>
        <pt x="738" y="833" on="1"/>
        <pt x="738" y="897" on="0"/>
        <pt x="678" y="965" on="0"/>
        <pt x="624" y="965" on="1"/>
        <pt x="555" y="965" on="0"/>
        <pt x="451" y="860" on="0"/>
      </contour>
      <contour>
        <pt x="1315" y="441" on="1"/>
        <pt x="1322" y="317" on="0"/>
        <pt x="1427" y="184" on="0"/>
        <pt x="1515" y="184" on="1"/>
        <pt x="1578" y="184" on="0"/>
        <pt x="1652" y="269" on="0"/>
        <pt x="1652" y="342" on="1"/>
        <pt x="1652" y="417" on="0"/>
        <pt x="1563" y="506" on="0"/>
        <pt x="1492" y="506" on="1"/>
        <pt x="1404" y="506" on="0"/>
      </contour>
    </TTGlyph>
    <TTGlyph name="llauvowelsigntamil" xMin="115" yMin="-658" xMax="3296" yMax="1174">
      <contour>
        <pt x="1738" y="797" on="1"/>
        <pt x="1582" y="952" on="0"/>
        <pt x="1370" y="952" on="1"/>
        <pt x="1231" y="952" on="0"/>
        <pt x="1021" y="799" on="0"/>
        <pt x="975" y="663" on="1"/>
        <pt x="1080" y="711" on="0"/>
        <pt x="1199" y="711" on="1"/>
        <pt x="1368" y="711" on="0"/>
        <pt x="1566" y="521" on="0"/>
        <pt x="1566" y="357" on="1"/>
        <pt x="1566" y="176" on="0"/>
        <pt x="1348" y="-24" on="0"/>
        <pt x="1148" y="-24" on="1"/>
        <pt x="924" y="-24" on="0"/>
        <pt x="679" y="249" on="0"/>
        <pt x="679" y="507" on="1"/>
        <pt x="679" y="706" on="0"/>
        <pt x="860" y="1010" on="0"/>
        <pt x="1185" y="1174" on="0"/>
        <pt x="1384" y="1174" on="1"/>
        <pt x="1491" y="1174" on="0"/>
        <pt x="1659" y="1135" on="0"/>
        <pt x="1738" y="1093" on="1"/>
        <pt x="1738" y="1150" on="1"/>
        <pt x="2946" y="1150" on="1"/>
        <pt x="2946" y="933" on="1"/>
        <pt x="2650" y="933" on="1"/>
        <pt x="2650" y="641" on="1"/>
        <pt x="2751" y="687" on="0"/>
        <pt x="2863" y="687" on="1"/>
        <pt x="3069" y="687" on="0"/>
        <pt x="3296" y="428" on="0"/>
        <pt x="3296" y="191" on="1"/>
        <pt x="3296" y="-75" on="0"/>
        <pt x="2929" y="-466" on="0"/>
        <pt x="2228" y="-658" on="0"/>
        <pt x="1743" y="-658" on="1"/>
        <pt x="1631" y="-658" on="1"/>
        <pt x="897" y="-658" on="0"/>
        <pt x="115" y="-168" on="0"/>
        <pt x="115" y="311" on="1"/>
        <pt x="115" y="343" on="1"/>
        <pt x="115" y="534" on="0"/>
        <pt x="229" y="909" on="0"/>
        <pt x="380" y="1174" on="1"/>
        <pt x="617" y="1038" on="1"/>
        <pt x="504" y="847" on="0"/>
        <pt x="401" y="525" on="0"/>
        <pt x="401" y="355" on="1"/>
        <pt x="401" y="318" on="1"/>
        <pt x="401" y="72" on="0"/>
        <pt x="691" y="-268" on="0"/>
        <pt x="1268" y="-435" on="0"/>
        <pt x="1659" y="-435" on="1"/>
        <pt x="1745" y="-435" on="1"/>
        <pt x="1966" y="-435" on="0"/>
        <pt x="2373" y="-380" on="0"/>
        <pt x="2694" y="-271" on="0"/>
        <pt x="2900" y="-107" on="0"/>
        <pt x="2994" y="81" on="0"/>
        <pt x="2994" y="204" on="1"/>
        <pt x="2994" y="327" on="0"/>
        <pt x="2886" y="470" on="0"/>
        <pt x="2789" y="470" on="1"/>
        <pt x="2717" y="470" on="0"/>
        <pt x="2650" y="429" on="1"/>
        <pt x="2650" y="0" on="1"/>
        <pt x="2348" y="0" on="1"/>
        <pt x="2348" y="933" on="1"/>
        <pt x="2040" y="933" on="1"/>
        <pt x="2040" y="0" on="1"/>
        <pt x="1738" y="0" on="1"/>
      </contour>
      <contour>
        <pt x="946" y="441" on="1"/>
        <pt x="953" y="317" on="0"/>
        <pt x="1058" y="184" on="0"/>
        <pt x="1146" y="184" on="1"/>
        <pt x="1209" y="184" on="0"/>
        <pt x="1283" y="269" on="0"/>
        <pt x="1283" y="342" on="1"/>
        <pt x="1283" y="417" on="0"/>
        <pt x="1194" y="506" on="0"/>
        <pt x="1123" y="506" on="1"/>
        <pt x="1035" y="506" on="0"/>
      </contour>
    </TTGlyph>
    <TTGlyph name="lllaprehalftamil" xMin="99" yMin="-658" xMax="1814" yMax="1742">
      <component glyphName="lllatamil" x="0" y="0" flags="0x204"/>
      <component glyphName="viramatamil" x="1534" y="0" flags="0x4"/>
    </TTGlyph>
    <TTGlyph name="lllatamil" xMin="99" yMin="-658" xMax="1814" yMax="1174">
      <contour>
        <pt x="1218" y="-374" on="1"/>
        <pt x="1145" y="-519" on="0"/>
        <pt x="864" y="-658" on="0"/>
        <pt x="638" y="-658" on="1"/>
        <pt x="563" y="-658" on="1"/>
        <pt x="430" y="-658" on="0"/>
        <pt x="207" y="-587" on="0"/>
        <pt x="99" y="-451" on="0"/>
        <pt x="99" y="-363" on="1"/>
        <pt x="99" y="-236" on="0"/>
        <pt x="294" y="-90" on="0"/>
        <pt x="467" y="-90" on="1"/>
        <pt x="557" y="-90" on="0"/>
        <pt x="633" y="-105" on="1"/>
        <pt x="618" y="-305" on="1"/>
        <pt x="578" y="-299" on="0"/>
        <pt x="507" y="-299" on="1"/>
        <pt x="448" y="-299" on="0"/>
        <pt x="380" y="-334" on="0"/>
        <pt x="380" y="-366" on="1"/>
        <pt x="380" y="-447" on="0"/>
        <pt x="560" y="-447" on="1"/>
        <pt x="615" y="-447" on="1"/>
        <pt x="740" y="-447" on="0"/>
        <pt x="907" y="-362" on="0"/>
        <pt x="958" y="-271" on="1"/>
        <pt x="850" y="-178" on="0"/>
        <pt x="845" y="0" on="1"/>
        <pt x="164" y="0" on="1"/>
        <pt x="164" y="1150" on="1"/>
        <pt x="466" y="1150" on="1"/>
        <pt x="466" y="217" on="1"/>
        <pt x="845" y="217" on="1"/>
        <pt x="845" y="727" on="1"/>
        <pt x="845" y="899" on="0"/>
        <pt x="949" y="1086" on="0"/>
        <pt x="1142" y="1174" on="0"/>
        <pt x="1275" y="1174" on="1"/>
        <pt x="1535" y="1174" on="0"/>
        <pt x="1814" y="846" on="0"/>
        <pt x="1814" y="552" on="1"/>
        <pt x="1814" y="394" on="0"/>
        <pt x="1740" y="186" on="0"/>
        <pt x="1583" y="55" on="0"/>
        <pt x="1355" y="0" on="0"/>
        <pt x="1138" y="0" on="1"/>
        <pt x="1139" y="-46" on="0"/>
        <pt x="1170" y="-114" on="0"/>
        <pt x="1230" y="-146" on="0"/>
        <pt x="1297" y="-158" on="0"/>
        <pt x="1366" y="-158" on="1"/>
        <pt x="1598" y="-158" on="1"/>
        <pt x="1598" y="-374" on="1"/>
      </contour>
      <contour>
        <pt x="1147" y="217" on="1"/>
        <pt x="1226" y="217" on="1"/>
        <pt x="1387" y="217" on="0"/>
        <pt x="1512" y="362" on="0"/>
        <pt x="1512" y="552" on="1"/>
        <pt x="1512" y="751" on="0"/>
        <pt x="1402" y="958" on="0"/>
        <pt x="1297" y="958" on="1"/>
        <pt x="1242" y="958" on="0"/>
        <pt x="1173" y="898" on="0"/>
        <pt x="1147" y="800" on="0"/>
        <pt x="1147" y="696" on="1"/>
      </contour>
    </TTGlyph>
    <TTGlyph name="lllauuvowelsigntamil" xMin="108" yMin="-658" xMax="2765" yMax="1174">
      <contour>
        <pt x="2088" y="0" on="1"/>
        <pt x="2088" y="-85" on="1"/>
        <pt x="2181" y="-58" on="0"/>
        <pt x="2266" y="-58" on="1"/>
        <pt x="2404" y="-58" on="0"/>
        <pt x="2561" y="-182" on="0"/>
        <pt x="2561" y="-298" on="1"/>
        <pt x="2561" y="-466" on="0"/>
        <pt x="2185" y="-658" on="0"/>
        <pt x="1764" y="-658" on="1"/>
        <pt x="1630" y="-658" on="1"/>
        <pt x="904" y="-658" on="0"/>
        <pt x="108" y="-95" on="0"/>
        <pt x="108" y="493" on="1"/>
        <pt x="108" y="811" on="0"/>
        <pt x="384" y="1174" on="0"/>
        <pt x="634" y="1174" on="1"/>
        <pt x="810" y="1174" on="0"/>
        <pt x="1003" y="985" on="0"/>
        <pt x="1003" y="813" on="1"/>
        <pt x="1003" y="655" on="0"/>
        <pt x="807" y="474" on="0"/>
        <pt x="623" y="474" on="1"/>
        <pt x="490" y="474" on="0"/>
        <pt x="390" y="534" on="1"/>
        <pt x="389" y="501" on="1"/>
        <pt x="383" y="307" on="0"/>
        <pt x="506" y="-38" on="0"/>
        <pt x="807" y="-299" on="0"/>
        <pt x="1300" y="-435" on="0"/>
        <pt x="1686" y="-435" on="1"/>
        <pt x="1776" y="-435" on="1"/>
        <pt x="2006" y="-435" on="0"/>
        <pt x="2283" y="-373" on="0"/>
        <pt x="2283" y="-306" on="1"/>
        <pt x="2283" y="-277" on="0"/>
        <pt x="2239" y="-247" on="0"/>
        <pt x="2202" y="-247" on="1"/>
        <pt x="2145" y="-247" on="0"/>
        <pt x="2088" y="-266" on="1"/>
        <pt x="2088" y="-321" on="1"/>
        <pt x="1796" y="-321" on="1"/>
        <pt x="1796" y="0" on="1"/>
        <pt x="1115" y="0" on="1"/>
        <pt x="1115" y="1150" on="1"/>
        <pt x="1417" y="1150" on="1"/>
        <pt x="1417" y="217" on="1"/>
        <pt x="1796" y="217" on="1"/>
        <pt x="1796" y="727" on="1"/>
        <pt x="1796" y="896" on="0"/>
        <pt x="1896" y="1082" on="0"/>
        <pt x="2089" y="1174" on="0"/>
        <pt x="2226" y="1174" on="1"/>
        <pt x="2486" y="1174" on="0"/>
        <pt x="2765" y="846" on="0"/>
        <pt x="2765" y="552" on="1"/>
        <pt x="2765" y="395" on="0"/>
        <pt x="2692" y="188" on="0"/>
        <pt x="2535" y="55" on="0"/>
        <pt x="2310" y="0" on="0"/>
        <pt x="2098" y="0" on="1"/>
      </contour>
      <contour>
        <pt x="422" y="757" on="1"/>
        <pt x="499" y="692" on="0"/>
        <pt x="589" y="692" on="1"/>
        <pt x="655" y="692" on="0"/>
        <pt x="738" y="766" on="0"/>
        <pt x="738" y="834" on="1"/>
        <pt x="738" y="898" on="0"/>
        <pt x="678" y="966" on="0"/>
        <pt x="624" y="966" on="1"/>
        <pt x="555" y="966" on="0"/>
        <pt x="451" y="861" on="0"/>
      </contour>
      <contour>
        <pt x="2098" y="217" on="1"/>
        <pt x="2177" y="217" on="1"/>
        <pt x="2338" y="217" on="0"/>
        <pt x="2463" y="362" on="0"/>
        <pt x="2463" y="552" on="1"/>
        <pt x="2463" y="751" on="0"/>
        <pt x="2353" y="958" on="0"/>
        <pt x="2248" y="958" on="1"/>
        <pt x="2193" y="958" on="0"/>
        <pt x="2124" y="898" on="0"/>
        <pt x="2098" y="800" on="0"/>
        <pt x="2098" y="696" on="1"/>
      </contour>
    </TTGlyph>
    <TTGlyph name="lllauvowelsigntamil" xMin="115" yMin="-658" xMax="2412" yMax="1174">
      <contour>
        <pt x="1735" y="0" on="1"/>
        <pt x="1735" y="-85" on="1"/>
        <pt x="1828" y="-58" on="0"/>
        <pt x="1911" y="-58" on="1"/>
        <pt x="2050" y="-58" on="0"/>
        <pt x="2208" y="-182" on="0"/>
        <pt x="2208" y="-298" on="1"/>
        <pt x="2208" y="-469" on="0"/>
        <pt x="1824" y="-658" on="0"/>
        <pt x="1420" y="-658" on="1"/>
        <pt x="1338" y="-658" on="1"/>
        <pt x="946" y="-658" on="0"/>
        <pt x="395" y="-451" on="0"/>
        <pt x="115" y="-24" on="0"/>
        <pt x="115" y="287" on="1"/>
        <pt x="115" y="317" on="1"/>
        <pt x="115" y="535" on="0"/>
        <pt x="247" y="951" on="0"/>
        <pt x="396" y="1174" on="1"/>
        <pt x="633" y="1038" on="1"/>
        <pt x="513" y="853" on="0"/>
        <pt x="401" y="509" on="0"/>
        <pt x="401" y="320" on="1"/>
        <pt x="401" y="290" on="1"/>
        <pt x="401" y="52" on="0"/>
        <pt x="593" y="-268" on="0"/>
        <pt x="999" y="-435" on="0"/>
        <pt x="1363" y="-435" on="1"/>
        <pt x="1434" y="-435" on="1"/>
        <pt x="1648" y="-435" on="0"/>
        <pt x="1930" y="-374" on="0"/>
        <pt x="1930" y="-305" on="1"/>
        <pt x="1930" y="-277" on="0"/>
        <pt x="1886" y="-247" on="0"/>
        <pt x="1849" y="-247" on="1"/>
        <pt x="1792" y="-247" on="0"/>
        <pt x="1735" y="-266" on="1"/>
        <pt x="1735" y="-321" on="1"/>
        <pt x="1443" y="-321" on="1"/>
        <pt x="1443" y="0" on="1"/>
        <pt x="762" y="0" on="1"/>
        <pt x="762" y="1150" on="1"/>
        <pt x="1064" y="1150" on="1"/>
        <pt x="1064" y="217" on="1"/>
        <pt x="1443" y="217" on="1"/>
        <pt x="1443" y="727" on="1"/>
        <pt x="1443" y="896" on="0"/>
        <pt x="1543" y="1082" on="0"/>
        <pt x="1736" y="1174" on="0"/>
        <pt x="1873" y="1174" on="1"/>
        <pt x="2133" y="1174" on="0"/>
        <pt x="2412" y="846" on="0"/>
        <pt x="2412" y="552" on="1"/>
        <pt x="2412" y="395" on="0"/>
        <pt x="2339" y="188" on="0"/>
        <pt x="2182" y="55" on="0"/>
        <pt x="1957" y="0" on="0"/>
        <pt x="1745" y="0" on="1"/>
      </contour>
      <contour>
        <pt x="1745" y="217" on="1"/>
        <pt x="1824" y="217" on="1"/>
        <pt x="1985" y="217" on="0"/>
        <pt x="2110" y="362" on="0"/>
        <pt x="2110" y="552" on="1"/>
        <pt x="2110" y="751" on="0"/>
        <pt x="2000" y="958" on="0"/>
        <pt x="1895" y="958" on="1"/>
        <pt x="1840" y="958" on="0"/>
        <pt x="1771" y="898" on="0"/>
        <pt x="1745" y="800" on="0"/>
        <pt x="1745" y="696" on="1"/>
      </contour>
    </TTGlyph>
    <TTGlyph name="maprehalftamil" xMin="164" yMin="0" xMax="1814" yMax="1742">
      <component glyphName="matamil" x="0" y="0" flags="0x204"/>
      <component glyphName="viramatamil" x="1535" y="0" flags="0x4"/>
    </TTGlyph>
    <TTGlyph name="matamil" xMin="164" yMin="0" xMax="1814" yMax="1174">
      <contour>
        <pt x="164" y="0" on="1"/>
        <pt x="164" y="1150" on="1"/>
        <pt x="466" y="1150" on="1"/>
        <pt x="466" y="217" on="1"/>
        <pt x="845" y="217" on="1"/>
        <pt x="845" y="727" on="1"/>
        <pt x="845" y="896" on="0"/>
        <pt x="945" y="1082" on="0"/>
        <pt x="1138" y="1174" on="0"/>
        <pt x="1275" y="1174" on="1"/>
        <pt x="1535" y="1174" on="0"/>
        <pt x="1814" y="846" on="0"/>
        <pt x="1814" y="552" on="1"/>
        <pt x="1814" y="387" on="0"/>
        <pt x="1738" y="187" on="0"/>
        <pt x="1592" y="60" on="0"/>
        <pt x="1365" y="0" on="0"/>
        <pt x="1134" y="0" on="1"/>
      </contour>
      <contour>
        <pt x="1147" y="217" on="1"/>
        <pt x="1226" y="217" on="1"/>
        <pt x="1387" y="217" on="0"/>
        <pt x="1512" y="362" on="0"/>
        <pt x="1512" y="552" on="1"/>
        <pt x="1512" y="751" on="0"/>
        <pt x="1402" y="958" on="0"/>
        <pt x="1297" y="958" on="1"/>
        <pt x="1242" y="958" on="0"/>
        <pt x="1173" y="898" on="0"/>
        <pt x="1147" y="800" on="0"/>
        <pt x="1147" y="696" on="1"/>
      </contour>
    </TTGlyph>
    <TTGlyph name="mauuvowelsigntamil" xMin="108" yMin="-658" xMax="2765" yMax="1174">
      <contour>
        <pt x="390" y="534" on="1"/>
        <pt x="389" y="501" on="1"/>
        <pt x="382" y="250" on="0"/>
        <pt x="573" y="-159" on="0"/>
        <pt x="986" y="-389" on="0"/>
        <pt x="1275" y="-389" on="1"/>
        <pt x="1504" y="-389" on="0"/>
        <pt x="1758" y="-201" on="0"/>
        <pt x="1794" y="0" on="1"/>
        <pt x="1115" y="0" on="1"/>
        <pt x="1115" y="1150" on="1"/>
        <pt x="1417" y="1150" on="1"/>
        <pt x="1417" y="217" on="1"/>
        <pt x="1796" y="217" on="1"/>
        <pt x="1796" y="727" on="1"/>
        <pt x="1796" y="896" on="0"/>
        <pt x="1896" y="1082" on="0"/>
        <pt x="2089" y="1174" on="0"/>
        <pt x="2226" y="1174" on="1"/>
        <pt x="2486" y="1174" on="0"/>
        <pt x="2765" y="846" on="0"/>
        <pt x="2765" y="552" on="1"/>
        <pt x="2765" y="388" on="0"/>
        <pt x="2689" y="188" on="0"/>
        <pt x="2544" y="60" on="0"/>
        <pt x="2318" y="0" on="0"/>
        <pt x="2089" y="0" on="1"/>
        <pt x="2043" y="-302" on="0"/>
        <pt x="1626" y="-612" on="0"/>
        <pt x="1268" y="-612" on="1"/>
        <pt x="914" y="-612" on="0"/>
        <pt x="387" y="-350" on="0"/>
        <pt x="108" y="146" on="0"/>
        <pt x="108" y="482" on="1"/>
        <pt x="108" y="806" on="0"/>
        <pt x="382" y="1174" on="0"/>
        <pt x="629" y="1174" on="1"/>
        <pt x="809" y="1174" on="0"/>
        <pt x="1003" y="987" on="0"/>
        <pt x="1003" y="813" on="1"/>
        <pt x="1003" y="655" on="0"/>
        <pt x="807" y="474" on="0"/>
        <pt x="623" y="474" on="1"/>
        <pt x="490" y="474" on="0"/>
      </contour>
      <contour>
        <pt x="422" y="757" on="1"/>
        <pt x="499" y="692" on="0"/>
        <pt x="589" y="692" on="1"/>
        <pt x="655" y="692" on="0"/>
        <pt x="738" y="766" on="0"/>
        <pt x="738" y="834" on="1"/>
        <pt x="738" y="898" on="0"/>
        <pt x="678" y="966" on="0"/>
        <pt x="624" y="966" on="1"/>
        <pt x="555" y="966" on="0"/>
        <pt x="451" y="860" on="0"/>
      </contour>
      <contour>
        <pt x="2098" y="217" on="1"/>
        <pt x="2177" y="217" on="1"/>
        <pt x="2338" y="217" on="0"/>
        <pt x="2463" y="362" on="0"/>
        <pt x="2463" y="552" on="1"/>
        <pt x="2463" y="751" on="0"/>
        <pt x="2353" y="958" on="0"/>
        <pt x="2248" y="958" on="1"/>
        <pt x="2193" y="958" on="0"/>
        <pt x="2124" y="898" on="0"/>
        <pt x="2098" y="800" on="0"/>
        <pt x="2098" y="696" on="1"/>
      </contour>
      <contour>
        <pt x="1286" y="-658" on="1"/>
      </contour>
    </TTGlyph>
    <TTGlyph name="mauvowelsigntamil" xMin="115" yMin="-658" xMax="2412" yMax="1174">
      <contour>
        <pt x="1441" y="0" on="1"/>
        <pt x="762" y="0" on="1"/>
        <pt x="762" y="1150" on="1"/>
        <pt x="1064" y="1150" on="1"/>
        <pt x="1064" y="217" on="1"/>
        <pt x="1443" y="217" on="1"/>
        <pt x="1443" y="727" on="1"/>
        <pt x="1443" y="896" on="0"/>
        <pt x="1543" y="1082" on="0"/>
        <pt x="1736" y="1174" on="0"/>
        <pt x="1873" y="1174" on="1"/>
        <pt x="2133" y="1174" on="0"/>
        <pt x="2412" y="846" on="0"/>
        <pt x="2412" y="552" on="1"/>
        <pt x="2412" y="388" on="0"/>
        <pt x="2336" y="188" on="0"/>
        <pt x="2191" y="60" on="0"/>
        <pt x="1965" y="0" on="0"/>
        <pt x="1736" y="0" on="1"/>
        <pt x="1690" y="-299" on="0"/>
        <pt x="1285" y="-612" on="0"/>
        <pt x="948" y="-612" on="1"/>
        <pt x="687" y="-612" on="0"/>
        <pt x="312" y="-397" on="0"/>
        <pt x="115" y="12" on="0"/>
        <pt x="115" y="286" on="1"/>
        <pt x="115" y="315" on="1"/>
        <pt x="115" y="521" on="0"/>
        <pt x="266" y="976" on="0"/>
        <pt x="396" y="1174" on="1"/>
        <pt x="633" y="1038" on="1"/>
        <pt x="521" y="870" on="0"/>
        <pt x="394" y="471" on="0"/>
        <pt x="394" y="289" on="1"/>
        <pt x="394" y="259" on="1"/>
        <pt x="394" y="-54" on="0"/>
        <pt x="682" y="-389" on="0"/>
        <pt x="959" y="-389" on="1"/>
        <pt x="1163" y="-389" on="0"/>
        <pt x="1404" y="-200" on="0"/>
      </contour>
      <contour>
        <pt x="1745" y="217" on="1"/>
        <pt x="1824" y="217" on="1"/>
        <pt x="1985" y="217" on="0"/>
        <pt x="2110" y="362" on="0"/>
        <pt x="2110" y="552" on="1"/>
        <pt x="2110" y="751" on="0"/>
        <pt x="2000" y="958" on="0"/>
        <pt x="1895" y="958" on="1"/>
        <pt x="1840" y="958" on="0"/>
        <pt x="1771" y="898" on="0"/>
        <pt x="1745" y="800" on="0"/>
        <pt x="1745" y="696" on="1"/>
      </contour>
      <contour>
        <pt x="986" y="-658" on="1"/>
      </contour>
    </TTGlyph>
    <TTGlyph name="minus.tamil" xMin="88" yMin="0" xMax="1081" yMax="1460">
      <contour>
        <pt x="88" y="612" on="1"/>
        <pt x="88" y="831" on="1"/>
        <pt x="1081" y="831" on="1"/>
        <pt x="1081" y="612" on="1"/>
      </contour>
      <contour>
        <pt x="597" y="0" on="1"/>
      </contour>
      <contour>
        <pt x="555" y="1460" on="1"/>
      </contour>
    </TTGlyph>
    <TTGlyph name="monthsigntamil" xMin="164" yMin="0" xMax="2799" yMax="1742">
      <contour>
        <pt x="466" y="217" on="1"/>
        <pt x="845" y="217" on="1"/>
        <pt x="845" y="727" on="1"/>
        <pt x="845" y="896" on="0"/>
        <pt x="945" y="1082" on="0"/>
        <pt x="1138" y="1174" on="0"/>
        <pt x="1275" y="1174" on="1"/>
        <pt x="1296" y="1174" on="0"/>
        <pt x="1316" y="1172" on="1"/>
        <pt x="1329" y="1299" on="0"/>
        <pt x="1511" y="1459" on="0"/>
        <pt x="1663" y="1473" on="1"/>
        <pt x="1721" y="1602" on="0"/>
        <pt x="1963" y="1742" on="0"/>
        <pt x="2125" y="1742" on="1"/>
        <pt x="2336" y="1742" on="0"/>
        <pt x="2570" y="1543" on="0"/>
        <pt x="2570" y="1368" on="1"/>
        <pt x="2570" y="1270" on="0"/>
        <pt x="2535" y="1182" on="1"/>
        <pt x="2799" y="1182" on="1"/>
        <pt x="2799" y="999" on="1"/>
        <pt x="2281" y="999" on="1"/>
        <pt x="2281" y="1107" on="1"/>
        <pt x="2343" y="1208" on="0"/>
        <pt x="2343" y="1322" on="1"/>
        <pt x="2343" y="1438" on="0"/>
        <pt x="2220" y="1557" on="0"/>
        <pt x="2100" y="1557" on="1"/>
        <pt x="1976" y="1557" on="0"/>
        <pt x="1896" y="1476" on="1"/>
        <pt x="2052" y="1475" on="0"/>
        <pt x="2194" y="1343" on="0"/>
        <pt x="2194" y="1234" on="1"/>
        <pt x="2194" y="1117" on="0"/>
        <pt x="2052" y="991" on="0"/>
        <pt x="1929" y="991" on="1"/>
        <pt x="1790" y="991" on="0"/>
        <pt x="1628" y="1149" on="0"/>
        <pt x="1627" y="1290" on="1"/>
        <pt x="1532" y="1256" on="0"/>
        <pt x="1532" y="1125" on="1"/>
        <pt x="1532" y="1120" on="1"/>
        <pt x="1669" y="1053" on="0"/>
        <pt x="1814" y="761" on="0"/>
        <pt x="1814" y="552" on="1"/>
        <pt x="1814" y="387" on="0"/>
        <pt x="1738" y="187" on="0"/>
        <pt x="1592" y="60" on="0"/>
        <pt x="1365" y="0" on="0"/>
        <pt x="1134" y="0" on="1"/>
        <pt x="164" y="0" on="1"/>
        <pt x="164" y="1150" on="1"/>
        <pt x="466" y="1150" on="1"/>
      </contour>
      <contour>
        <pt x="1829" y="1303" on="1"/>
        <pt x="1829" y="1272" on="1"/>
        <pt x="1829" y="1216" on="0"/>
        <pt x="1882" y="1156" on="0"/>
        <pt x="1931" y="1156" on="1"/>
        <pt x="1964" y="1156" on="0"/>
        <pt x="2009" y="1192" on="0"/>
        <pt x="2009" y="1224" on="1"/>
        <pt x="2009" y="1257" on="0"/>
        <pt x="1953" y="1303" on="0"/>
        <pt x="1872" y="1303" on="1"/>
      </contour>
      <contour>
        <pt x="1226" y="217" on="1"/>
        <pt x="1387" y="217" on="0"/>
        <pt x="1512" y="362" on="0"/>
        <pt x="1512" y="552" on="1"/>
        <pt x="1512" y="751" on="0"/>
        <pt x="1402" y="958" on="0"/>
        <pt x="1297" y="958" on="1"/>
        <pt x="1242" y="958" on="0"/>
        <pt x="1173" y="898" on="0"/>
        <pt x="1147" y="800" on="0"/>
        <pt x="1147" y="696" on="1"/>
        <pt x="1147" y="217" on="1"/>
      </contour>
    </TTGlyph>
    <TTGlyph name="multiply.tamil" xMin="129" yMin="0" xMax="1040" yMax="1460">
      <contour>
        <pt x="428" y="723" on="1"/>
        <pt x="129" y="1024" on="1"/>
        <pt x="281" y="1178" on="1"/>
        <pt x="582" y="879" on="1"/>
        <pt x="887" y="1178" on="1"/>
        <pt x="1040" y="1028" on="1"/>
        <pt x="735" y="723" on="1"/>
        <pt x="1036" y="420" on="1"/>
        <pt x="887" y="268" on="1"/>
        <pt x="582" y="569" on="1"/>
        <pt x="281" y="270" on="1"/>
        <pt x="131" y="422" on="1"/>
      </contour>
      <contour>
        <pt x="597" y="0" on="1"/>
      </contour>
      <contour>
        <pt x="555" y="1460" on="1"/>
      </contour>
    </TTGlyph>
    <TTGlyph name="naprehalftamil" xMin="83" yMin="-658" xMax="1737" yMax="1742">
      <component glyphName="natamil" x="0" y="0" flags="0x204"/>
      <component glyphName="viramatamil" x="1479" y="0" flags="0x4"/>
    </TTGlyph>
    <TTGlyph name="natamil" xMin="83" yMin="-658" xMax="1737" yMax="1150">
      <contour>
        <pt x="164" y="1150" on="1"/>
        <pt x="1372" y="1150" on="1"/>
        <pt x="1372" y="933" on="1"/>
        <pt x="1076" y="933" on="1"/>
        <pt x="1076" y="688" on="1"/>
        <pt x="1183" y="742" on="0"/>
        <pt x="1304" y="742" on="1"/>
        <pt x="1506" y="742" on="0"/>
        <pt x="1737" y="490" on="0"/>
        <pt x="1737" y="263" on="1"/>
        <pt x="1737" y="113" on="0"/>
        <pt x="1644" y="-116" on="0"/>
        <pt x="1447" y="-272" on="0"/>
        <pt x="1142" y="-344" on="0"/>
        <pt x="885" y="-344" on="1"/>
        <pt x="717" y="-344" on="1"/>
        <pt x="577" y="-344" on="0"/>
        <pt x="459" y="-374" on="0"/>
        <pt x="385" y="-463" on="0"/>
        <pt x="385" y="-557" on="1"/>
        <pt x="385" y="-599" on="0"/>
        <pt x="390" y="-644" on="1"/>
        <pt x="95" y="-658" on="1"/>
        <pt x="83" y="-559" on="0"/>
        <pt x="83" y="-482" on="1"/>
        <pt x="83" y="-373" on="0"/>
        <pt x="191" y="-210" on="0"/>
        <pt x="391" y="-127" on="0"/>
        <pt x="584" y="-127" on="1"/>
        <pt x="860" y="-127" on="1"/>
        <pt x="1114" y="-127" on="0"/>
        <pt x="1336" y="-47" on="0"/>
        <pt x="1443" y="115" on="0"/>
        <pt x="1443" y="256" on="1"/>
        <pt x="1443" y="388" on="0"/>
        <pt x="1337" y="525" on="0"/>
        <pt x="1234" y="525" on="1"/>
        <pt x="1149" y="525" on="0"/>
        <pt x="1076" y="474" on="1"/>
        <pt x="1076" y="0" on="1"/>
        <pt x="774" y="0" on="1"/>
        <pt x="774" y="933" on="1"/>
        <pt x="466" y="933" on="1"/>
        <pt x="466" y="0" on="1"/>
        <pt x="164" y="0" on="1"/>
      </contour>
    </TTGlyph>
    <TTGlyph name="nauuvowelsigntamil" xMin="67" yMin="-657" xMax="3203" yMax="1150">
      <contour>
        <pt x="2307" y="-344" on="1"/>
        <pt x="1538" y="-344" on="1"/>
        <pt x="1390" y="-496" on="0"/>
        <pt x="955" y="-657" on="0"/>
        <pt x="699" y="-657" on="1"/>
        <pt x="678" y="-657" on="1"/>
        <pt x="384" y="-657" on="0"/>
        <pt x="67" y="-483" on="0"/>
        <pt x="67" y="-322" on="1"/>
        <pt x="67" y="-249" on="0"/>
        <pt x="138" y="-162" on="0"/>
        <pt x="253" y="-127" on="0"/>
        <pt x="391" y="-127" on="1"/>
        <pt x="1365" y="-127" on="1"/>
        <pt x="1402" y="-47" on="0"/>
        <pt x="1443" y="137" on="0"/>
        <pt x="1443" y="217" on="1"/>
        <pt x="1443" y="375" on="0"/>
        <pt x="1345" y="525" on="0"/>
        <pt x="1234" y="525" on="1"/>
        <pt x="1149" y="525" on="0"/>
        <pt x="1076" y="474" on="1"/>
        <pt x="1076" y="0" on="1"/>
        <pt x="774" y="0" on="1"/>
        <pt x="774" y="933" on="1"/>
        <pt x="466" y="933" on="1"/>
        <pt x="466" y="0" on="1"/>
        <pt x="164" y="0" on="1"/>
        <pt x="164" y="1150" on="1"/>
        <pt x="1372" y="1150" on="1"/>
        <pt x="1372" y="933" on="1"/>
        <pt x="1076" y="933" on="1"/>
        <pt x="1076" y="688" on="1"/>
        <pt x="1183" y="742" on="0"/>
        <pt x="1304" y="742" on="1"/>
        <pt x="1513" y="742" on="0"/>
        <pt x="1737" y="484" on="0"/>
        <pt x="1737" y="241" on="1"/>
        <pt x="1737" y="138" on="0"/>
        <pt x="1699" y="-45" on="0"/>
        <pt x="1662" y="-127" on="1"/>
        <pt x="2005" y="-127" on="1"/>
        <pt x="2005" y="1150" on="1"/>
        <pt x="3203" y="1150" on="1"/>
        <pt x="3203" y="933" on="1"/>
        <pt x="2917" y="933" on="1"/>
        <pt x="2917" y="-344" on="1"/>
        <pt x="2615" y="-344" on="1"/>
        <pt x="2615" y="933" on="1"/>
        <pt x="2307" y="933" on="1"/>
      </contour>
      <contour>
        <pt x="680" y="-455" on="1"/>
        <pt x="859" y="-455" on="0"/>
        <pt x="1130" y="-390" on="0"/>
        <pt x="1223" y="-326" on="1"/>
        <pt x="419" y="-326" on="1"/>
        <pt x="372" y="-326" on="0"/>
        <pt x="340" y="-342" on="0"/>
        <pt x="340" y="-360" on="1"/>
        <pt x="340" y="-402" on="0"/>
        <pt x="504" y="-455" on="0"/>
        <pt x="650" y="-455" on="1"/>
      </contour>
    </TTGlyph>
    <TTGlyph name="nauvowelsigntamil" xMin="67" yMin="-657" xMax="2307" yMax="1150">
      <contour>
        <pt x="2307" y="-344" on="1"/>
        <pt x="1538" y="-344" on="1"/>
        <pt x="1390" y="-496" on="0"/>
        <pt x="955" y="-657" on="0"/>
        <pt x="699" y="-657" on="1"/>
        <pt x="678" y="-657" on="1"/>
        <pt x="384" y="-657" on="0"/>
        <pt x="67" y="-483" on="0"/>
        <pt x="67" y="-322" on="1"/>
        <pt x="67" y="-249" on="0"/>
        <pt x="138" y="-162" on="0"/>
        <pt x="253" y="-127" on="0"/>
        <pt x="391" y="-127" on="1"/>
        <pt x="1365" y="-127" on="1"/>
        <pt x="1402" y="-47" on="0"/>
        <pt x="1443" y="137" on="0"/>
        <pt x="1443" y="217" on="1"/>
        <pt x="1443" y="375" on="0"/>
        <pt x="1345" y="525" on="0"/>
        <pt x="1234" y="525" on="1"/>
        <pt x="1149" y="525" on="0"/>
        <pt x="1076" y="474" on="1"/>
        <pt x="1076" y="0" on="1"/>
        <pt x="774" y="0" on="1"/>
        <pt x="774" y="933" on="1"/>
        <pt x="466" y="933" on="1"/>
        <pt x="466" y="0" on="1"/>
        <pt x="164" y="0" on="1"/>
        <pt x="164" y="1150" on="1"/>
        <pt x="1372" y="1150" on="1"/>
        <pt x="1372" y="933" on="1"/>
        <pt x="1076" y="933" on="1"/>
        <pt x="1076" y="688" on="1"/>
        <pt x="1183" y="742" on="0"/>
        <pt x="1304" y="742" on="1"/>
        <pt x="1513" y="742" on="0"/>
        <pt x="1737" y="484" on="0"/>
        <pt x="1737" y="241" on="1"/>
        <pt x="1737" y="138" on="0"/>
        <pt x="1699" y="-45" on="0"/>
        <pt x="1662" y="-127" on="1"/>
        <pt x="2005" y="-127" on="1"/>
        <pt x="2005" y="1150" on="1"/>
        <pt x="2307" y="1150" on="1"/>
      </contour>
      <contour>
        <pt x="680" y="-455" on="1"/>
        <pt x="859" y="-455" on="0"/>
        <pt x="1130" y="-390" on="0"/>
        <pt x="1223" y="-326" on="1"/>
        <pt x="419" y="-326" on="1"/>
        <pt x="372" y="-326" on="0"/>
        <pt x="340" y="-342" on="0"/>
        <pt x="340" y="-360" on="1"/>
        <pt x="340" y="-402" on="0"/>
        <pt x="504" y="-455" on="0"/>
        <pt x="650" y="-455" on="1"/>
      </contour>
    </TTGlyph>
    <TTGlyph name="ngaiivowelsigntamil" xMin="164" yMin="0" xMax="2440" yMax="1742">
      <contour>
        <pt x="1957" y="1150" on="1"/>
        <pt x="2259" y="1150" on="1"/>
        <pt x="2259" y="0" on="1"/>
        <pt x="766" y="0" on="1"/>
        <pt x="766" y="217" on="1"/>
        <pt x="1341" y="217" on="1"/>
        <pt x="1367" y="246" on="0"/>
        <pt x="1398" y="331" on="0"/>
        <pt x="1398" y="375" on="1"/>
        <pt x="1398" y="525" on="0"/>
        <pt x="1250" y="525" on="1"/>
        <pt x="1162" y="525" on="0"/>
        <pt x="1068" y="457" on="1"/>
        <pt x="1068" y="327" on="1"/>
        <pt x="766" y="327" on="1"/>
        <pt x="766" y="933" on="1"/>
        <pt x="466" y="933" on="1"/>
        <pt x="466" y="0" on="1"/>
        <pt x="164" y="0" on="1"/>
        <pt x="164" y="1150" on="1"/>
        <pt x="1349" y="1150" on="1"/>
        <pt x="1349" y="933" on="1"/>
        <pt x="1068" y="933" on="1"/>
        <pt x="1068" y="668" on="1"/>
        <pt x="1183" y="742" on="0"/>
        <pt x="1327" y="742" on="1"/>
        <pt x="1505" y="742" on="0"/>
        <pt x="1697" y="567" on="0"/>
        <pt x="1697" y="425" on="1"/>
        <pt x="1697" y="305" on="0"/>
        <pt x="1635" y="217" on="1"/>
        <pt x="1957" y="217" on="1"/>
        <pt x="1957" y="753" on="1"/>
        <pt x="1691" y="806" on="0"/>
        <pt x="1425" y="1063" on="0"/>
        <pt x="1425" y="1266" on="1"/>
        <pt x="1425" y="1402" on="0"/>
        <pt x="1565" y="1623" on="0"/>
        <pt x="1834" y="1742" on="0"/>
        <pt x="2022" y="1742" on="1"/>
        <pt x="2226" y="1742" on="0"/>
        <pt x="2440" y="1593" on="0"/>
        <pt x="2440" y="1454" on="1"/>
        <pt x="2440" y="1328" on="0"/>
        <pt x="2269" y="1187" on="0"/>
        <pt x="2111" y="1187" on="1"/>
        <pt x="1950" y="1187" on="0"/>
        <pt x="1784" y="1322" on="0"/>
        <pt x="1784" y="1449" on="1"/>
        <pt x="1784" y="1474" on="0"/>
        <pt x="1788" y="1490" on="1"/>
        <pt x="1670" y="1413" on="0"/>
        <pt x="1670" y="1260" on="1"/>
        <pt x="1670" y="1152" on="0"/>
        <pt x="1813" y="1013" on="0"/>
        <pt x="1957" y="983" on="1"/>
      </contour>
      <contour>
        <pt x="2010" y="1550" on="1"/>
        <pt x="1988" y="1506" on="0"/>
        <pt x="1988" y="1460" on="1"/>
        <pt x="1988" y="1408" on="0"/>
        <pt x="2041" y="1358" on="0"/>
        <pt x="2099" y="1358" on="1"/>
        <pt x="2147" y="1358" on="0"/>
        <pt x="2201" y="1409" on="0"/>
        <pt x="2201" y="1453" on="1"/>
        <pt x="2201" y="1502" on="0"/>
        <pt x="2120" y="1550" on="0"/>
        <pt x="2030" y="1550" on="1"/>
      </contour>
    </TTGlyph>
    <TTGlyph name="ngaprehalftamil" xMin="164" yMin="0" xMax="2259" yMax="1742">
      <component glyphName="ngatamil" x="0" y="0" flags="0x204"/>
      <component glyphName="viramatamil" x="1781" y="0" flags="0x4"/>
    </TTGlyph>
    <TTGlyph name="ngatamil" xMin="164" yMin="0" xMax="2259" yMax="1150">
      <contour>
        <pt x="766" y="0" on="1"/>
        <pt x="766" y="217" on="1"/>
        <pt x="1341" y="217" on="1"/>
        <pt x="1367" y="246" on="0"/>
        <pt x="1398" y="331" on="0"/>
        <pt x="1398" y="375" on="1"/>
        <pt x="1398" y="525" on="0"/>
        <pt x="1250" y="525" on="1"/>
        <pt x="1162" y="525" on="0"/>
        <pt x="1068" y="457" on="1"/>
        <pt x="1068" y="327" on="1"/>
        <pt x="766" y="327" on="1"/>
        <pt x="766" y="933" on="1"/>
        <pt x="466" y="933" on="1"/>
        <pt x="466" y="0" on="1"/>
        <pt x="164" y="0" on="1"/>
        <pt x="164" y="1150" on="1"/>
        <pt x="1499" y="1150" on="1"/>
        <pt x="1499" y="933" on="1"/>
        <pt x="1068" y="933" on="1"/>
        <pt x="1068" y="668" on="1"/>
        <pt x="1183" y="742" on="0"/>
        <pt x="1327" y="742" on="1"/>
        <pt x="1505" y="742" on="0"/>
        <pt x="1697" y="567" on="0"/>
        <pt x="1697" y="425" on="1"/>
        <pt x="1697" y="305" on="0"/>
        <pt x="1635" y="217" on="1"/>
        <pt x="1957" y="217" on="1"/>
        <pt x="1957" y="1150" on="1"/>
        <pt x="2259" y="1150" on="1"/>
        <pt x="2259" y="0" on="1"/>
      </contour>
    </TTGlyph>
    <TTGlyph name="ngauuvowelsigntamil" xMin="162" yMin="-658" xMax="2864" yMax="1150">
      <contour>
        <pt x="1957" y="-284" on="1"/>
        <pt x="1957" y="0" on="1"/>
        <pt x="766" y="0" on="1"/>
        <pt x="766" y="217" on="1"/>
        <pt x="1341" y="217" on="1"/>
        <pt x="1367" y="246" on="0"/>
        <pt x="1398" y="331" on="0"/>
        <pt x="1398" y="375" on="1"/>
        <pt x="1398" y="525" on="0"/>
        <pt x="1250" y="525" on="1"/>
        <pt x="1162" y="525" on="0"/>
        <pt x="1068" y="457" on="1"/>
        <pt x="1068" y="327" on="1"/>
        <pt x="766" y="327" on="1"/>
        <pt x="766" y="933" on="1"/>
        <pt x="466" y="933" on="1"/>
        <pt x="466" y="0" on="1"/>
        <pt x="164" y="0" on="1"/>
        <pt x="164" y="1150" on="1"/>
        <pt x="1499" y="1150" on="1"/>
        <pt x="1499" y="933" on="1"/>
        <pt x="1068" y="933" on="1"/>
        <pt x="1068" y="668" on="1"/>
        <pt x="1183" y="742" on="0"/>
        <pt x="1327" y="742" on="1"/>
        <pt x="1505" y="742" on="0"/>
        <pt x="1697" y="567" on="0"/>
        <pt x="1697" y="425" on="1"/>
        <pt x="1697" y="305" on="0"/>
        <pt x="1635" y="217" on="1"/>
        <pt x="1957" y="217" on="1"/>
        <pt x="1957" y="1150" on="1"/>
        <pt x="2259" y="1150" on="1"/>
        <pt x="2259" y="200" on="1"/>
        <pt x="2366" y="240" on="0"/>
        <pt x="2496" y="240" on="1"/>
        <pt x="2660" y="240" on="0"/>
        <pt x="2864" y="65" on="0"/>
        <pt x="2864" y="-93" on="1"/>
        <pt x="2864" y="-241" on="0"/>
        <pt x="2697" y="-442" on="0"/>
        <pt x="2356" y="-584" on="0"/>
        <pt x="1796" y="-658" on="0"/>
        <pt x="1405" y="-658" on="1"/>
        <pt x="1201" y="-658" on="1"/>
        <pt x="618" y="-658" on="0"/>
        <pt x="162" y="-497" on="0"/>
        <pt x="162" y="-308" on="1"/>
        <pt x="162" y="-185" on="0"/>
        <pt x="359" y="-50" on="0"/>
        <pt x="547" y="-50" on="1"/>
        <pt x="633" y="-50" on="0"/>
        <pt x="836" y="-73" on="0"/>
        <pt x="910" y="-93" on="1"/>
        <pt x="869" y="-301" on="1"/>
        <pt x="826" y="-287" on="0"/>
        <pt x="642" y="-264" on="0"/>
        <pt x="594" y="-264" on="1"/>
        <pt x="520" y="-264" on="0"/>
        <pt x="449" y="-293" on="0"/>
        <pt x="449" y="-325" on="1"/>
        <pt x="449" y="-391" on="0"/>
        <pt x="883" y="-441" on="0"/>
        <pt x="1315" y="-441" on="1"/>
        <pt x="1418" y="-441" on="1"/>
        <pt x="1738" y="-441" on="0"/>
        <pt x="2293" y="-369" on="0"/>
        <pt x="2576" y="-217" on="0"/>
        <pt x="2576" y="-107" on="1"/>
        <pt x="2576" y="-44" on="0"/>
        <pt x="2492" y="30" on="0"/>
        <pt x="2414" y="30" on="1"/>
        <pt x="2340" y="30" on="0"/>
        <pt x="2259" y="-10" on="1"/>
        <pt x="2259" y="-284" on="1"/>
      </contour>
    </TTGlyph>
    <TTGlyph name="ngauvowelsigntamil" xMin="164" yMin="-658" xMax="2259" yMax="1150">
      <contour>
        <pt x="1957" y="-580" on="1"/>
        <pt x="1957" y="0" on="1"/>
        <pt x="766" y="0" on="1"/>
        <pt x="766" y="217" on="1"/>
        <pt x="1341" y="217" on="1"/>
        <pt x="1367" y="246" on="0"/>
        <pt x="1398" y="331" on="0"/>
        <pt x="1398" y="375" on="1"/>
        <pt x="1398" y="525" on="0"/>
        <pt x="1250" y="525" on="1"/>
        <pt x="1162" y="525" on="0"/>
        <pt x="1068" y="457" on="1"/>
        <pt x="1068" y="327" on="1"/>
        <pt x="766" y="327" on="1"/>
        <pt x="766" y="933" on="1"/>
        <pt x="466" y="933" on="1"/>
        <pt x="466" y="0" on="1"/>
        <pt x="164" y="0" on="1"/>
        <pt x="164" y="1150" on="1"/>
        <pt x="1499" y="1150" on="1"/>
        <pt x="1499" y="933" on="1"/>
        <pt x="1068" y="933" on="1"/>
        <pt x="1068" y="668" on="1"/>
        <pt x="1183" y="742" on="0"/>
        <pt x="1327" y="742" on="1"/>
        <pt x="1505" y="742" on="0"/>
        <pt x="1697" y="567" on="0"/>
        <pt x="1697" y="425" on="1"/>
        <pt x="1697" y="305" on="0"/>
        <pt x="1635" y="217" on="1"/>
        <pt x="1957" y="217" on="1"/>
        <pt x="1957" y="1150" on="1"/>
        <pt x="2259" y="1150" on="1"/>
        <pt x="2259" y="-580" on="1"/>
      </contour>
      <contour>
        <pt x="2086" y="-658" on="1"/>
      </contour>
    </TTGlyph>
    <TTGlyph name="nine.tamil" xMin="66" yMin="-20" xMax="1098" yMax="1479">
      <contour>
        <pt x="168" y="-6" on="1"/>
        <pt x="168" y="242" on="1"/>
        <pt x="253" y="221" on="0"/>
        <pt x="344" y="221" on="1"/>
        <pt x="579" y="221" on="0"/>
        <pt x="804" y="434" on="0"/>
        <pt x="813" y="678" on="1"/>
        <pt x="801" y="678" on="1"/>
        <pt x="744" y="583" on="0"/>
        <pt x="590" y="508" on="0"/>
        <pt x="477" y="508" on="1"/>
        <pt x="286" y="508" on="0"/>
        <pt x="66" y="754" on="0"/>
        <pt x="66" y="971" on="1"/>
        <pt x="66" y="1207" on="0"/>
        <pt x="333" y="1479" on="0"/>
        <pt x="563" y="1479" on="1"/>
        <pt x="807" y="1479" on="0"/>
        <pt x="1098" y="1142" on="0"/>
        <pt x="1098" y="838" on="1"/>
        <pt x="1098" y="403" on="0"/>
        <pt x="730" y="-20" on="0"/>
        <pt x="365" y="-20" on="1"/>
        <pt x="238" y="-20" on="0"/>
      </contour>
      <contour>
        <pt x="365" y="975" on="1"/>
        <pt x="365" y="865" on="0"/>
        <pt x="467" y="745" on="0"/>
        <pt x="563" y="745" on="1"/>
        <pt x="659" y="745" on="0"/>
        <pt x="791" y="869" on="0"/>
        <pt x="791" y="948" on="1"/>
        <pt x="791" y="1063" on="0"/>
        <pt x="668" y="1231" on="0"/>
        <pt x="569" y="1231" on="1"/>
        <pt x="472" y="1231" on="0"/>
        <pt x="365" y="1099" on="0"/>
      </contour>
    </TTGlyph>
    <TTGlyph name="ninetamil" xMin="88" yMin="-24" xMax="2694" yMax="1150">
      <contour>
        <pt x="2308" y="114" on="1"/>
        <pt x="2409" y="259" on="0"/>
        <pt x="2409" y="408" on="1"/>
        <pt x="2409" y="538" on="0"/>
        <pt x="2239" y="694" on="0"/>
        <pt x="2098" y="694" on="1"/>
        <pt x="2041" y="694" on="0"/>
        <pt x="1944" y="681" on="0"/>
        <pt x="1904" y="669" on="1"/>
        <pt x="2048" y="629" on="0"/>
        <pt x="2193" y="450" on="0"/>
        <pt x="2193" y="312" on="1"/>
        <pt x="2193" y="160" on="0"/>
        <pt x="1996" y="-24" on="0"/>
        <pt x="1831" y="-24" on="1"/>
        <pt x="1647" y="-24" on="0"/>
        <pt x="1412" y="172" on="0"/>
        <pt x="1412" y="347" on="1"/>
        <pt x="1412" y="426" on="0"/>
        <pt x="1440" y="507" on="1"/>
        <pt x="1170" y="507" on="1"/>
        <pt x="1170" y="492" on="1"/>
        <pt x="1170" y="343" on="0"/>
        <pt x="1107" y="161" on="0"/>
        <pt x="970" y="36" on="0"/>
        <pt x="755" y="-24" on="0"/>
        <pt x="602" y="-24" on="1"/>
        <pt x="368" y="-24" on="0"/>
        <pt x="88" y="169" on="0"/>
        <pt x="88" y="337" on="1"/>
        <pt x="88" y="440" on="0"/>
        <pt x="192" y="590" on="0"/>
        <pt x="296" y="637" on="1"/>
        <pt x="296" y="1150" on="1"/>
        <pt x="1559" y="1150" on="1"/>
        <pt x="1559" y="933" on="1"/>
        <pt x="1170" y="933" on="1"/>
        <pt x="1170" y="711" on="1"/>
        <pt x="1567" y="711" on="1"/>
        <pt x="1663" y="804" on="0"/>
        <pt x="1944" y="902" on="0"/>
        <pt x="2114" y="902" on="1"/>
        <pt x="2297" y="902" on="0"/>
        <pt x="2558" y="786" on="0"/>
        <pt x="2694" y="566" on="0"/>
        <pt x="2694" y="424" on="1"/>
        <pt x="2694" y="203" on="0"/>
        <pt x="2549" y="-24" on="1"/>
      </contour>
      <contour>
        <pt x="566" y="702" on="1"/>
        <pt x="659" y="711" on="0"/>
        <pt x="748" y="711" on="1"/>
        <pt x="878" y="711" on="1"/>
        <pt x="878" y="933" on="1"/>
        <pt x="566" y="933" on="1"/>
      </contour>
      <contour>
        <pt x="878" y="507" on="1"/>
        <pt x="725" y="507" on="1"/>
        <pt x="545" y="507" on="0"/>
        <pt x="384" y="431" on="0"/>
        <pt x="384" y="340" on="1"/>
        <pt x="384" y="270" on="0"/>
        <pt x="513" y="193" on="0"/>
        <pt x="623" y="193" on="1"/>
        <pt x="762" y="193" on="0"/>
        <pt x="878" y="338" on="0"/>
        <pt x="878" y="487" on="1"/>
      </contour>
      <contour>
        <pt x="1710" y="502" on="1"/>
        <pt x="1675" y="432" on="0"/>
        <pt x="1675" y="356" on="1"/>
        <pt x="1675" y="272" on="0"/>
        <pt x="1753" y="181" on="0"/>
        <pt x="1819" y="181" on="1"/>
        <pt x="1872" y="181" on="0"/>
        <pt x="1930" y="239" on="0"/>
        <pt x="1930" y="292" on="1"/>
        <pt x="1930" y="388" on="0"/>
        <pt x="1819" y="489" on="0"/>
      </contour>
    </TTGlyph>
    <TTGlyph name="nnaprehalftamil" xMin="95" yMin="-24" xMax="3720" yMax="1742">
      <component glyphName="nnatamil" x="0" y="0" flags="0x204"/>
      <component glyphName="viramatamil" x="2447" y="0" flags="0x4"/>
    </TTGlyph>
    <TTGlyph name="nnatamil" xMin="95" yMin="-24" xMax="3720" yMax="1174">
      <contour>
        <pt x="2898" y="383" on="1"/>
        <pt x="2898" y="193" on="0"/>
        <pt x="2683" y="-24" on="0"/>
        <pt x="2494" y="-24" on="1"/>
        <pt x="2294" y="-24" on="0"/>
        <pt x="2080" y="192" on="0"/>
        <pt x="2080" y="384" on="1"/>
        <pt x="2080" y="515" on="0"/>
        <pt x="2186" y="780" on="0"/>
        <pt x="2288" y="895" on="1"/>
        <pt x="2228" y="924" on="0"/>
        <pt x="2084" y="953" on="0"/>
        <pt x="2001" y="953" on="1"/>
        <pt x="1916" y="953" on="0"/>
        <pt x="1768" y="922" on="0"/>
        <pt x="1705" y="892" on="1"/>
        <pt x="1816" y="783" on="0"/>
        <pt x="1928" y="528" on="0"/>
        <pt x="1928" y="383" on="1"/>
        <pt x="1928" y="193" on="0"/>
        <pt x="1713" y="-24" on="0"/>
        <pt x="1524" y="-24" on="1"/>
        <pt x="1324" y="-24" on="0"/>
        <pt x="1110" y="192" on="0"/>
        <pt x="1110" y="384" on="1"/>
        <pt x="1110" y="522" on="0"/>
        <pt x="1211" y="771" on="0"/>
        <pt x="1313" y="881" on="1"/>
        <pt x="1236" y="917" on="0"/>
        <pt x="1055" y="953" on="0"/>
        <pt x="951" y="953" on="1"/>
        <pt x="750" y="953" on="0"/>
        <pt x="461" y="801" on="0"/>
        <pt x="399" y="666" on="1"/>
        <pt x="501" y="711" on="0"/>
        <pt x="615" y="711" on="1"/>
        <pt x="782" y="711" on="0"/>
        <pt x="981" y="522" on="0"/>
        <pt x="981" y="356" on="1"/>
        <pt x="981" y="175" on="0"/>
        <pt x="764" y="-24" on="0"/>
        <pt x="564" y="-24" on="1"/>
        <pt x="342" y="-24" on="0"/>
        <pt x="95" y="243" on="0"/>
        <pt x="95" y="492" on="1"/>
        <pt x="95" y="696" on="0"/>
        <pt x="299" y="1005" on="0"/>
        <pt x="685" y="1174" on="0"/>
        <pt x="946" y="1174" on="1"/>
        <pt x="1108" y="1174" on="0"/>
        <pt x="1374" y="1108" on="0"/>
        <pt x="1501" y="1039" on="1"/>
        <pt x="1600" y="1108" on="0"/>
        <pt x="1843" y="1174" on="0"/>
        <pt x="2003" y="1174" on="1"/>
        <pt x="2177" y="1174" on="0"/>
        <pt x="2395" y="1109" on="0"/>
        <pt x="2486" y="1049" on="1"/>
        <pt x="2592" y="1108" on="0"/>
        <pt x="2850" y="1150" on="0"/>
        <pt x="3067" y="1150" on="1"/>
        <pt x="3720" y="1150" on="1"/>
        <pt x="3720" y="933" on="1"/>
        <pt x="3424" y="933" on="1"/>
        <pt x="3424" y="0" on="1"/>
        <pt x="3122" y="0" on="1"/>
        <pt x="3122" y="933" on="1"/>
        <pt x="3030" y="933" on="1"/>
        <pt x="2871" y="933" on="0"/>
        <pt x="2729" y="916" on="0"/>
        <pt x="2683" y="898" on="1"/>
        <pt x="2790" y="786" on="0"/>
        <pt x="2898" y="529" on="0"/>
      </contour>
      <contour>
        <pt x="2481" y="755" on="1"/>
        <pt x="2426" y="691" on="0"/>
        <pt x="2363" y="505" on="0"/>
        <pt x="2363" y="405" on="1"/>
        <pt x="2363" y="297" on="0"/>
        <pt x="2426" y="184" on="0"/>
        <pt x="2487" y="184" on="1"/>
        <pt x="2614" y="184" on="0"/>
        <pt x="2614" y="403" on="1"/>
        <pt x="2614" y="495" on="0"/>
        <pt x="2546" y="681" on="0"/>
      </contour>
      <contour>
        <pt x="1511" y="741" on="1"/>
        <pt x="1452" y="670" on="0"/>
        <pt x="1393" y="494" on="0"/>
        <pt x="1393" y="389" on="1"/>
        <pt x="1393" y="290" on="0"/>
        <pt x="1458" y="184" on="0"/>
        <pt x="1517" y="184" on="1"/>
        <pt x="1579" y="184" on="0"/>
        <pt x="1644" y="289" on="0"/>
        <pt x="1644" y="391" on="1"/>
        <pt x="1644" y="494" on="0"/>
        <pt x="1577" y="669" on="0"/>
      </contour>
      <contour>
        <pt x="362" y="441" on="1"/>
        <pt x="369" y="317" on="0"/>
        <pt x="474" y="184" on="0"/>
        <pt x="562" y="184" on="1"/>
        <pt x="625" y="184" on="0"/>
        <pt x="699" y="268" on="0"/>
        <pt x="699" y="342" on="1"/>
        <pt x="699" y="417" on="0"/>
        <pt x="611" y="506" on="0"/>
        <pt x="539" y="506" on="1"/>
        <pt x="451" y="506" on="0"/>
      </contour>
    </TTGlyph>
    <TTGlyph name="nnauuvowelsigntamil" xMin="69" yMin="-658" xMax="4997" yMax="1174">
      <contour>
        <pt x="4101" y="-344" on="1"/>
        <pt x="3180" y="-344" on="1"/>
        <pt x="2933" y="-497" on="0"/>
        <pt x="2169" y="-658" on="0"/>
        <pt x="1512" y="-658" on="1"/>
        <pt x="1096" y="-658" on="1"/>
        <pt x="702" y="-658" on="0"/>
        <pt x="276" y="-591" on="0"/>
        <pt x="69" y="-443" on="0"/>
        <pt x="69" y="-322" on="1"/>
        <pt x="69" y="-249" on="0"/>
        <pt x="140" y="-162" on="0"/>
        <pt x="255" y="-127" on="0"/>
        <pt x="393" y="-127" on="1"/>
        <pt x="3002" y="-127" on="1"/>
        <pt x="3108" y="5" on="0"/>
        <pt x="3217" y="321" on="0"/>
        <pt x="3217" y="492" on="1"/>
        <pt x="3217" y="720" on="0"/>
        <pt x="3037" y="957" on="0"/>
        <pt x="2864" y="957" on="1"/>
        <pt x="2809" y="957" on="0"/>
        <pt x="2709" y="936" on="0"/>
        <pt x="2665" y="916" on="1"/>
        <pt x="2782" y="801" on="0"/>
        <pt x="2898" y="531" on="0"/>
        <pt x="2898" y="383" on="1"/>
        <pt x="2898" y="193" on="0"/>
        <pt x="2683" y="-24" on="0"/>
        <pt x="2494" y="-24" on="1"/>
        <pt x="2294" y="-24" on="0"/>
        <pt x="2080" y="192" on="0"/>
        <pt x="2080" y="384" on="1"/>
        <pt x="2080" y="525" on="0"/>
        <pt x="2184" y="780" on="0"/>
        <pt x="2289" y="894" on="1"/>
        <pt x="2230" y="923" on="0"/>
        <pt x="2086" y="953" on="0"/>
        <pt x="2001" y="953" on="1"/>
        <pt x="1916" y="953" on="0"/>
        <pt x="1768" y="922" on="0"/>
        <pt x="1705" y="892" on="1"/>
        <pt x="1816" y="783" on="0"/>
        <pt x="1928" y="528" on="0"/>
        <pt x="1928" y="383" on="1"/>
        <pt x="1928" y="193" on="0"/>
        <pt x="1713" y="-24" on="0"/>
        <pt x="1524" y="-24" on="1"/>
        <pt x="1324" y="-24" on="0"/>
        <pt x="1110" y="192" on="0"/>
        <pt x="1110" y="384" on="1"/>
        <pt x="1110" y="522" on="0"/>
        <pt x="1211" y="771" on="0"/>
        <pt x="1313" y="881" on="1"/>
        <pt x="1236" y="917" on="0"/>
        <pt x="1055" y="953" on="0"/>
        <pt x="951" y="953" on="1"/>
        <pt x="750" y="953" on="0"/>
        <pt x="461" y="801" on="0"/>
        <pt x="399" y="666" on="1"/>
        <pt x="501" y="711" on="0"/>
        <pt x="615" y="711" on="1"/>
        <pt x="782" y="711" on="0"/>
        <pt x="981" y="522" on="0"/>
        <pt x="981" y="356" on="1"/>
        <pt x="981" y="175" on="0"/>
        <pt x="764" y="-24" on="0"/>
        <pt x="564" y="-24" on="1"/>
        <pt x="342" y="-24" on="0"/>
        <pt x="95" y="243" on="0"/>
        <pt x="95" y="492" on="1"/>
        <pt x="95" y="696" on="0"/>
        <pt x="299" y="1005" on="0"/>
        <pt x="685" y="1174" on="0"/>
        <pt x="946" y="1174" on="1"/>
        <pt x="1106" y="1174" on="0"/>
        <pt x="1384" y="1106" on="0"/>
        <pt x="1502" y="1039" on="1"/>
        <pt x="1599" y="1107" on="0"/>
        <pt x="1835" y="1174" on="0"/>
        <pt x="2003" y="1174" on="1"/>
        <pt x="2175" y="1174" on="0"/>
        <pt x="2390" y="1112" on="0"/>
        <pt x="2479" y="1054" on="1"/>
        <pt x="2574" y="1118" on="0"/>
        <pt x="2785" y="1174" on="0"/>
        <pt x="2916" y="1174" on="1"/>
        <pt x="3206" y="1174" on="0"/>
        <pt x="3519" y="815" on="0"/>
        <pt x="3519" y="490" on="1"/>
        <pt x="3519" y="322" on="0"/>
        <pt x="3427" y="1" on="0"/>
        <pt x="3343" y="-127" on="1"/>
        <pt x="3799" y="-127" on="1"/>
        <pt x="3799" y="1150" on="1"/>
        <pt x="4997" y="1150" on="1"/>
        <pt x="4997" y="933" on="1"/>
        <pt x="4711" y="933" on="1"/>
        <pt x="4711" y="-345" on="1"/>
        <pt x="4409" y="-345" on="1"/>
        <pt x="4409" y="933" on="1"/>
        <pt x="4101" y="933" on="1"/>
      </contour>
      <contour>
        <pt x="2476" y="761" on="1"/>
        <pt x="2419" y="691" on="0"/>
        <pt x="2363" y="513" on="0"/>
        <pt x="2363" y="405" on="1"/>
        <pt x="2363" y="297" on="0"/>
        <pt x="2426" y="184" on="0"/>
        <pt x="2487" y="184" on="1"/>
        <pt x="2614" y="184" on="0"/>
        <pt x="2614" y="403" on="1"/>
        <pt x="2614" y="495" on="0"/>
        <pt x="2543" y="686" on="0"/>
      </contour>
      <contour>
        <pt x="1511" y="741" on="1"/>
        <pt x="1452" y="670" on="0"/>
        <pt x="1393" y="494" on="0"/>
        <pt x="1393" y="389" on="1"/>
        <pt x="1393" y="290" on="0"/>
        <pt x="1458" y="184" on="0"/>
        <pt x="1517" y="184" on="1"/>
        <pt x="1579" y="184" on="0"/>
        <pt x="1644" y="289" on="0"/>
        <pt x="1644" y="391" on="1"/>
        <pt x="1644" y="494" on="0"/>
        <pt x="1577" y="669" on="0"/>
      </contour>
      <contour>
        <pt x="362" y="441" on="1"/>
        <pt x="369" y="317" on="0"/>
        <pt x="474" y="184" on="0"/>
        <pt x="562" y="184" on="1"/>
        <pt x="625" y="184" on="0"/>
        <pt x="699" y="268" on="0"/>
        <pt x="699" y="342" on="1"/>
        <pt x="699" y="417" on="0"/>
        <pt x="611" y="506" on="0"/>
        <pt x="539" y="506" on="1"/>
        <pt x="451" y="506" on="0"/>
      </contour>
      <contour>
        <pt x="1371" y="-455" on="1"/>
        <pt x="1863" y="-455" on="0"/>
        <pt x="2526" y="-391" on="0"/>
        <pt x="2743" y="-326" on="1"/>
        <pt x="421" y="-326" on="1"/>
        <pt x="374" y="-326" on="0"/>
        <pt x="342" y="-342" on="0"/>
        <pt x="342" y="-360" on="1"/>
        <pt x="342" y="-409" on="0"/>
        <pt x="731" y="-455" on="0"/>
        <pt x="1134" y="-455" on="1"/>
      </contour>
    </TTGlyph>
    <TTGlyph name="nnauvowelsigntamil" xMin="69" yMin="-658" xMax="4103" yMax="1174">
      <contour>
        <pt x="4103" y="-344" on="1"/>
        <pt x="3180" y="-344" on="1"/>
        <pt x="2933" y="-497" on="0"/>
        <pt x="2169" y="-658" on="0"/>
        <pt x="1512" y="-658" on="1"/>
        <pt x="1096" y="-658" on="1"/>
        <pt x="702" y="-658" on="0"/>
        <pt x="276" y="-591" on="0"/>
        <pt x="69" y="-443" on="0"/>
        <pt x="69" y="-322" on="1"/>
        <pt x="69" y="-249" on="0"/>
        <pt x="140" y="-162" on="0"/>
        <pt x="255" y="-127" on="0"/>
        <pt x="393" y="-127" on="1"/>
        <pt x="3002" y="-127" on="1"/>
        <pt x="3108" y="5" on="0"/>
        <pt x="3217" y="321" on="0"/>
        <pt x="3217" y="492" on="1"/>
        <pt x="3217" y="720" on="0"/>
        <pt x="3037" y="957" on="0"/>
        <pt x="2864" y="957" on="1"/>
        <pt x="2809" y="957" on="0"/>
        <pt x="2709" y="936" on="0"/>
        <pt x="2665" y="916" on="1"/>
        <pt x="2782" y="801" on="0"/>
        <pt x="2898" y="531" on="0"/>
        <pt x="2898" y="383" on="1"/>
        <pt x="2898" y="193" on="0"/>
        <pt x="2683" y="-24" on="0"/>
        <pt x="2494" y="-24" on="1"/>
        <pt x="2294" y="-24" on="0"/>
        <pt x="2080" y="192" on="0"/>
        <pt x="2080" y="384" on="1"/>
        <pt x="2080" y="525" on="0"/>
        <pt x="2184" y="780" on="0"/>
        <pt x="2289" y="894" on="1"/>
        <pt x="2230" y="923" on="0"/>
        <pt x="2086" y="953" on="0"/>
        <pt x="2001" y="953" on="1"/>
        <pt x="1916" y="953" on="0"/>
        <pt x="1768" y="922" on="0"/>
        <pt x="1705" y="892" on="1"/>
        <pt x="1816" y="783" on="0"/>
        <pt x="1928" y="528" on="0"/>
        <pt x="1928" y="383" on="1"/>
        <pt x="1928" y="193" on="0"/>
        <pt x="1713" y="-24" on="0"/>
        <pt x="1524" y="-24" on="1"/>
        <pt x="1324" y="-24" on="0"/>
        <pt x="1110" y="192" on="0"/>
        <pt x="1110" y="384" on="1"/>
        <pt x="1110" y="522" on="0"/>
        <pt x="1211" y="771" on="0"/>
        <pt x="1313" y="881" on="1"/>
        <pt x="1236" y="917" on="0"/>
        <pt x="1055" y="953" on="0"/>
        <pt x="951" y="953" on="1"/>
        <pt x="750" y="953" on="0"/>
        <pt x="461" y="801" on="0"/>
        <pt x="399" y="666" on="1"/>
        <pt x="501" y="711" on="0"/>
        <pt x="615" y="711" on="1"/>
        <pt x="782" y="711" on="0"/>
        <pt x="981" y="522" on="0"/>
        <pt x="981" y="356" on="1"/>
        <pt x="981" y="175" on="0"/>
        <pt x="764" y="-24" on="0"/>
        <pt x="564" y="-24" on="1"/>
        <pt x="342" y="-24" on="0"/>
        <pt x="95" y="243" on="0"/>
        <pt x="95" y="492" on="1"/>
        <pt x="95" y="696" on="0"/>
        <pt x="299" y="1005" on="0"/>
        <pt x="685" y="1174" on="0"/>
        <pt x="946" y="1174" on="1"/>
        <pt x="1106" y="1174" on="0"/>
        <pt x="1384" y="1106" on="0"/>
        <pt x="1502" y="1039" on="1"/>
        <pt x="1599" y="1107" on="0"/>
        <pt x="1835" y="1174" on="0"/>
        <pt x="2003" y="1174" on="1"/>
        <pt x="2175" y="1174" on="0"/>
        <pt x="2390" y="1112" on="0"/>
        <pt x="2479" y="1054" on="1"/>
        <pt x="2574" y="1118" on="0"/>
        <pt x="2785" y="1174" on="0"/>
        <pt x="2916" y="1174" on="1"/>
        <pt x="3206" y="1174" on="0"/>
        <pt x="3519" y="815" on="0"/>
        <pt x="3519" y="490" on="1"/>
        <pt x="3519" y="322" on="0"/>
        <pt x="3427" y="1" on="0"/>
        <pt x="3343" y="-127" on="1"/>
        <pt x="3801" y="-127" on="1"/>
        <pt x="3801" y="1150" on="1"/>
        <pt x="4103" y="1150" on="1"/>
      </contour>
      <contour>
        <pt x="2476" y="761" on="1"/>
        <pt x="2419" y="691" on="0"/>
        <pt x="2363" y="513" on="0"/>
        <pt x="2363" y="405" on="1"/>
        <pt x="2363" y="297" on="0"/>
        <pt x="2426" y="184" on="0"/>
        <pt x="2487" y="184" on="1"/>
        <pt x="2614" y="184" on="0"/>
        <pt x="2614" y="403" on="1"/>
        <pt x="2614" y="495" on="0"/>
        <pt x="2543" y="686" on="0"/>
      </contour>
      <contour>
        <pt x="1511" y="741" on="1"/>
        <pt x="1452" y="670" on="0"/>
        <pt x="1393" y="494" on="0"/>
        <pt x="1393" y="389" on="1"/>
        <pt x="1393" y="290" on="0"/>
        <pt x="1458" y="184" on="0"/>
        <pt x="1517" y="184" on="1"/>
        <pt x="1579" y="184" on="0"/>
        <pt x="1644" y="289" on="0"/>
        <pt x="1644" y="391" on="1"/>
        <pt x="1644" y="494" on="0"/>
        <pt x="1577" y="669" on="0"/>
      </contour>
      <contour>
        <pt x="362" y="441" on="1"/>
        <pt x="369" y="317" on="0"/>
        <pt x="474" y="184" on="0"/>
        <pt x="562" y="184" on="1"/>
        <pt x="625" y="184" on="0"/>
        <pt x="699" y="268" on="0"/>
        <pt x="699" y="342" on="1"/>
        <pt x="699" y="417" on="0"/>
        <pt x="611" y="506" on="0"/>
        <pt x="539" y="506" on="1"/>
        <pt x="451" y="506" on="0"/>
      </contour>
      <contour>
        <pt x="1371" y="-455" on="1"/>
        <pt x="1863" y="-455" on="0"/>
        <pt x="2526" y="-391" on="0"/>
        <pt x="2743" y="-326" on="1"/>
        <pt x="421" y="-326" on="1"/>
        <pt x="374" y="-326" on="0"/>
        <pt x="342" y="-342" on="0"/>
        <pt x="342" y="-360" on="1"/>
        <pt x="342" y="-409" on="0"/>
        <pt x="731" y="-455" on="0"/>
        <pt x="1134" y="-455" on="1"/>
      </contour>
    </TTGlyph>
    <TTGlyph name="nnnaprehalftamil" xMin="95" yMin="-24" xMax="2750" yMax="1742">
      <component glyphName="nnnatamil" x="0" y="0" flags="0x204"/>
      <component glyphName="viramatamil" x="1962" y="0" flags="0x4"/>
    </TTGlyph>
    <TTGlyph name="nnnatamil" xMin="95" yMin="-24" xMax="2750" yMax="1174">
      <contour>
        <pt x="399" y="666" on="1"/>
        <pt x="501" y="711" on="0"/>
        <pt x="615" y="711" on="1"/>
        <pt x="782" y="711" on="0"/>
        <pt x="981" y="522" on="0"/>
        <pt x="981" y="356" on="1"/>
        <pt x="981" y="175" on="0"/>
        <pt x="764" y="-24" on="0"/>
        <pt x="564" y="-24" on="1"/>
        <pt x="342" y="-24" on="0"/>
        <pt x="95" y="243" on="0"/>
        <pt x="95" y="492" on="1"/>
        <pt x="95" y="697" on="0"/>
        <pt x="301" y="1007" on="0"/>
        <pt x="686" y="1174" on="0"/>
        <pt x="945" y="1174" on="1"/>
        <pt x="1274" y="1174" on="0"/>
        <pt x="1509" y="1035" on="1"/>
        <pt x="1620" y="1099" on="0"/>
        <pt x="1878" y="1150" on="0"/>
        <pt x="2093" y="1150" on="1"/>
        <pt x="2750" y="1150" on="1"/>
        <pt x="2750" y="933" on="1"/>
        <pt x="2454" y="933" on="1"/>
        <pt x="2454" y="0" on="1"/>
        <pt x="2152" y="0" on="1"/>
        <pt x="2152" y="933" on="1"/>
        <pt x="2060" y="933" on="1"/>
        <pt x="1924" y="933" on="0"/>
        <pt x="1762" y="913" on="0"/>
        <pt x="1708" y="889" on="1"/>
        <pt x="1818" y="777" on="0"/>
        <pt x="1928" y="524" on="0"/>
        <pt x="1928" y="383" on="1"/>
        <pt x="1928" y="193" on="0"/>
        <pt x="1713" y="-24" on="0"/>
        <pt x="1525" y="-24" on="1"/>
        <pt x="1325" y="-24" on="0"/>
        <pt x="1112" y="193" on="0"/>
        <pt x="1112" y="384" on="1"/>
        <pt x="1112" y="516" on="0"/>
        <pt x="1213" y="771" on="0"/>
        <pt x="1311" y="881" on="1"/>
        <pt x="1234" y="917" on="0"/>
        <pt x="1053" y="953" on="0"/>
        <pt x="948" y="953" on="1"/>
        <pt x="748" y="953" on="0"/>
        <pt x="461" y="802" on="0"/>
      </contour>
      <contour>
        <pt x="1508" y="746" on="1"/>
        <pt x="1453" y="683" on="0"/>
        <pt x="1393" y="505" on="0"/>
        <pt x="1393" y="405" on="1"/>
        <pt x="1393" y="297" on="0"/>
        <pt x="1456" y="184" on="0"/>
        <pt x="1517" y="184" on="1"/>
        <pt x="1644" y="184" on="0"/>
        <pt x="1644" y="403" on="1"/>
        <pt x="1644" y="497" on="0"/>
        <pt x="1574" y="676" on="0"/>
      </contour>
      <contour>
        <pt x="362" y="441" on="1"/>
        <pt x="369" y="317" on="0"/>
        <pt x="474" y="184" on="0"/>
        <pt x="562" y="184" on="1"/>
        <pt x="625" y="184" on="0"/>
        <pt x="699" y="268" on="0"/>
        <pt x="699" y="342" on="1"/>
        <pt x="699" y="417" on="0"/>
        <pt x="611" y="506" on="0"/>
        <pt x="539" y="506" on="1"/>
        <pt x="451" y="506" on="0"/>
      </contour>
    </TTGlyph>
    <TTGlyph name="nnnauuvowelsigntamil" xMin="67" yMin="-658" xMax="4027" yMax="1174">
      <contour>
        <pt x="3131" y="-344" on="1"/>
        <pt x="2205" y="-344" on="1"/>
        <pt x="1984" y="-501" on="0"/>
        <pt x="1370" y="-658" on="0"/>
        <pt x="977" y="-658" on="1"/>
        <pt x="850" y="-658" on="1"/>
        <pt x="683" y="-658" on="0"/>
        <pt x="460" y="-642" on="0"/>
        <pt x="269" y="-595" on="0"/>
        <pt x="128" y="-504" on="0"/>
        <pt x="67" y="-391" on="0"/>
        <pt x="67" y="-322" on="1"/>
        <pt x="67" y="-249" on="0"/>
        <pt x="138" y="-162" on="0"/>
        <pt x="253" y="-127" on="0"/>
        <pt x="391" y="-127" on="1"/>
        <pt x="2033" y="-127" on="1"/>
        <pt x="2136" y="1" on="0"/>
        <pt x="2247" y="320" on="0"/>
        <pt x="2247" y="492" on="1"/>
        <pt x="2247" y="720" on="0"/>
        <pt x="2067" y="957" on="0"/>
        <pt x="1894" y="957" on="1"/>
        <pt x="1836" y="957" on="0"/>
        <pt x="1731" y="934" on="0"/>
        <pt x="1685" y="911" on="1"/>
        <pt x="1806" y="796" on="0"/>
        <pt x="1928" y="532" on="0"/>
        <pt x="1928" y="383" on="1"/>
        <pt x="1928" y="193" on="0"/>
        <pt x="1713" y="-24" on="0"/>
        <pt x="1524" y="-24" on="1"/>
        <pt x="1324" y="-24" on="0"/>
        <pt x="1110" y="192" on="0"/>
        <pt x="1110" y="384" on="1"/>
        <pt x="1110" y="522" on="0"/>
        <pt x="1209" y="772" on="0"/>
        <pt x="1309" y="883" on="1"/>
        <pt x="1234" y="918" on="0"/>
        <pt x="1055" y="953" on="0"/>
        <pt x="951" y="953" on="1"/>
        <pt x="750" y="953" on="0"/>
        <pt x="461" y="801" on="0"/>
        <pt x="399" y="666" on="1"/>
        <pt x="501" y="711" on="0"/>
        <pt x="615" y="711" on="1"/>
        <pt x="782" y="711" on="0"/>
        <pt x="981" y="522" on="0"/>
        <pt x="981" y="356" on="1"/>
        <pt x="981" y="175" on="0"/>
        <pt x="764" y="-24" on="0"/>
        <pt x="564" y="-24" on="1"/>
        <pt x="342" y="-24" on="0"/>
        <pt x="95" y="243" on="0"/>
        <pt x="95" y="492" on="1"/>
        <pt x="95" y="694" on="0"/>
        <pt x="296" y="1004" on="0"/>
        <pt x="680" y="1174" on="0"/>
        <pt x="940" y="1174" on="1"/>
        <pt x="1100" y="1174" on="0"/>
        <pt x="1376" y="1108" on="0"/>
        <pt x="1492" y="1043" on="1"/>
        <pt x="1591" y="1113" on="0"/>
        <pt x="1807" y="1174" on="0"/>
        <pt x="1946" y="1174" on="1"/>
        <pt x="2236" y="1174" on="0"/>
        <pt x="2549" y="815" on="0"/>
        <pt x="2549" y="490" on="1"/>
        <pt x="2549" y="322" on="0"/>
        <pt x="2457" y="1" on="0"/>
        <pt x="2373" y="-127" on="1"/>
        <pt x="2829" y="-127" on="1"/>
        <pt x="2829" y="1150" on="1"/>
        <pt x="4027" y="1150" on="1"/>
        <pt x="4027" y="933" on="1"/>
        <pt x="3741" y="933" on="1"/>
        <pt x="3741" y="-344" on="1"/>
        <pt x="3439" y="-344" on="1"/>
        <pt x="3439" y="933" on="1"/>
        <pt x="3131" y="933" on="1"/>
      </contour>
      <contour>
        <pt x="1500" y="754" on="1"/>
        <pt x="1446" y="684" on="0"/>
        <pt x="1393" y="509" on="0"/>
        <pt x="1393" y="405" on="1"/>
        <pt x="1393" y="297" on="0"/>
        <pt x="1456" y="184" on="0"/>
        <pt x="1517" y="184" on="1"/>
        <pt x="1644" y="184" on="0"/>
        <pt x="1644" y="403" on="1"/>
        <pt x="1644" y="499" on="0"/>
        <pt x="1570" y="683" on="0"/>
      </contour>
      <contour>
        <pt x="362" y="441" on="1"/>
        <pt x="369" y="317" on="0"/>
        <pt x="474" y="184" on="0"/>
        <pt x="562" y="184" on="1"/>
        <pt x="625" y="184" on="0"/>
        <pt x="699" y="268" on="0"/>
        <pt x="699" y="342" on="1"/>
        <pt x="699" y="417" on="0"/>
        <pt x="611" y="506" on="0"/>
        <pt x="539" y="506" on="1"/>
        <pt x="451" y="506" on="0"/>
      </contour>
      <contour>
        <pt x="968" y="-455" on="1"/>
        <pt x="1222" y="-455" on="0"/>
        <pt x="1650" y="-389" on="0"/>
        <pt x="1799" y="-326" on="1"/>
        <pt x="419" y="-326" on="1"/>
        <pt x="372" y="-326" on="0"/>
        <pt x="340" y="-342" on="0"/>
        <pt x="340" y="-360" on="1"/>
        <pt x="340" y="-411" on="0"/>
        <pt x="603" y="-455" on="0"/>
        <pt x="859" y="-455" on="1"/>
      </contour>
    </TTGlyph>
    <TTGlyph name="nnnauvowelsigntamil" xMin="67" yMin="-658" xMax="3131" yMax="1174">
      <contour>
        <pt x="3131" y="-344" on="1"/>
        <pt x="2205" y="-344" on="1"/>
        <pt x="1984" y="-501" on="0"/>
        <pt x="1370" y="-658" on="0"/>
        <pt x="977" y="-658" on="1"/>
        <pt x="850" y="-658" on="1"/>
        <pt x="683" y="-658" on="0"/>
        <pt x="460" y="-642" on="0"/>
        <pt x="269" y="-595" on="0"/>
        <pt x="128" y="-504" on="0"/>
        <pt x="67" y="-391" on="0"/>
        <pt x="67" y="-322" on="1"/>
        <pt x="67" y="-249" on="0"/>
        <pt x="138" y="-162" on="0"/>
        <pt x="253" y="-127" on="0"/>
        <pt x="391" y="-127" on="1"/>
        <pt x="2033" y="-127" on="1"/>
        <pt x="2136" y="1" on="0"/>
        <pt x="2247" y="320" on="0"/>
        <pt x="2247" y="492" on="1"/>
        <pt x="2247" y="720" on="0"/>
        <pt x="2067" y="957" on="0"/>
        <pt x="1894" y="957" on="1"/>
        <pt x="1836" y="957" on="0"/>
        <pt x="1731" y="934" on="0"/>
        <pt x="1685" y="911" on="1"/>
        <pt x="1806" y="796" on="0"/>
        <pt x="1928" y="532" on="0"/>
        <pt x="1928" y="383" on="1"/>
        <pt x="1928" y="193" on="0"/>
        <pt x="1713" y="-24" on="0"/>
        <pt x="1524" y="-24" on="1"/>
        <pt x="1324" y="-24" on="0"/>
        <pt x="1110" y="192" on="0"/>
        <pt x="1110" y="384" on="1"/>
        <pt x="1110" y="522" on="0"/>
        <pt x="1209" y="772" on="0"/>
        <pt x="1309" y="883" on="1"/>
        <pt x="1234" y="918" on="0"/>
        <pt x="1055" y="953" on="0"/>
        <pt x="951" y="953" on="1"/>
        <pt x="750" y="953" on="0"/>
        <pt x="461" y="801" on="0"/>
        <pt x="399" y="666" on="1"/>
        <pt x="501" y="711" on="0"/>
        <pt x="615" y="711" on="1"/>
        <pt x="782" y="711" on="0"/>
        <pt x="981" y="522" on="0"/>
        <pt x="981" y="356" on="1"/>
        <pt x="981" y="175" on="0"/>
        <pt x="764" y="-24" on="0"/>
        <pt x="564" y="-24" on="1"/>
        <pt x="342" y="-24" on="0"/>
        <pt x="95" y="243" on="0"/>
        <pt x="95" y="492" on="1"/>
        <pt x="95" y="694" on="0"/>
        <pt x="296" y="1004" on="0"/>
        <pt x="680" y="1174" on="0"/>
        <pt x="940" y="1174" on="1"/>
        <pt x="1100" y="1174" on="0"/>
        <pt x="1376" y="1108" on="0"/>
        <pt x="1492" y="1043" on="1"/>
        <pt x="1591" y="1113" on="0"/>
        <pt x="1807" y="1174" on="0"/>
        <pt x="1946" y="1174" on="1"/>
        <pt x="2236" y="1174" on="0"/>
        <pt x="2549" y="815" on="0"/>
        <pt x="2549" y="490" on="1"/>
        <pt x="2549" y="322" on="0"/>
        <pt x="2457" y="1" on="0"/>
        <pt x="2373" y="-127" on="1"/>
        <pt x="2829" y="-127" on="1"/>
        <pt x="2829" y="1150" on="1"/>
        <pt x="3131" y="1150" on="1"/>
      </contour>
      <contour>
        <pt x="1500" y="754" on="1"/>
        <pt x="1446" y="684" on="0"/>
        <pt x="1393" y="509" on="0"/>
        <pt x="1393" y="405" on="1"/>
        <pt x="1393" y="297" on="0"/>
        <pt x="1456" y="184" on="0"/>
        <pt x="1517" y="184" on="1"/>
        <pt x="1644" y="184" on="0"/>
        <pt x="1644" y="403" on="1"/>
        <pt x="1644" y="499" on="0"/>
        <pt x="1570" y="683" on="0"/>
      </contour>
      <contour>
        <pt x="362" y="441" on="1"/>
        <pt x="369" y="317" on="0"/>
        <pt x="474" y="184" on="0"/>
        <pt x="562" y="184" on="1"/>
        <pt x="625" y="184" on="0"/>
        <pt x="699" y="268" on="0"/>
        <pt x="699" y="342" on="1"/>
        <pt x="699" y="417" on="0"/>
        <pt x="611" y="506" on="0"/>
        <pt x="539" y="506" on="1"/>
        <pt x="451" y="506" on="0"/>
      </contour>
      <contour>
        <pt x="968" y="-455" on="1"/>
        <pt x="1222" y="-455" on="0"/>
        <pt x="1650" y="-389" on="0"/>
        <pt x="1799" y="-326" on="1"/>
        <pt x="419" y="-326" on="1"/>
        <pt x="372" y="-326" on="0"/>
        <pt x="340" y="-342" on="0"/>
        <pt x="340" y="-360" on="1"/>
        <pt x="340" y="-411" on="0"/>
        <pt x="603" y="-455" on="0"/>
        <pt x="859" y="-455" on="1"/>
      </contour>
    </TTGlyph>
    <TTGlyph name="numbersign.tamil" xMin="65" yMin="0" xMax="1298" yMax="1460">
      <contour>
        <pt x="1019" y="844" on="1"/>
        <pt x="972" y="612" on="1"/>
        <pt x="1230" y="612" on="1"/>
        <pt x="1230" y="406" on="1"/>
        <pt x="933" y="406" on="1"/>
        <pt x="856" y="0" on="1"/>
        <pt x="636" y="0" on="1"/>
        <pt x="714" y="406" on="1"/>
        <pt x="520" y="406" on="1"/>
        <pt x="444" y="0" on="1"/>
        <pt x="229" y="0" on="1"/>
        <pt x="303" y="406" on="1"/>
        <pt x="65" y="406" on="1"/>
        <pt x="65" y="612" on="1"/>
        <pt x="342" y="612" on="1"/>
        <pt x="389" y="844" on="1"/>
        <pt x="137" y="844" on="1"/>
        <pt x="137" y="1053" on="1"/>
        <pt x="426" y="1053" on="1"/>
        <pt x="503" y="1460" on="1"/>
        <pt x="722" y="1460" on="1"/>
        <pt x="645" y="1053" on="1"/>
        <pt x="843" y="1053" on="1"/>
        <pt x="921" y="1460" on="1"/>
        <pt x="1136" y="1460" on="1"/>
        <pt x="1058" y="1053" on="1"/>
        <pt x="1298" y="1053" on="1"/>
        <pt x="1298" y="844" on="1"/>
      </contour>
      <contour>
        <pt x="559" y="612" on="1"/>
        <pt x="755" y="612" on="1"/>
        <pt x="802" y="844" on="1"/>
        <pt x="606" y="844" on="1"/>
      </contour>
    </TTGlyph>
</ttFont>
